{"glyphs":{"0":{"ha":833,"x_min":0,"x_max":0,"o":"m 118 451 b 544 917 151 688 308 917 b 840 451 781 917 874 688 b 414 -14 807 215 650 -14 b 118 451 178 -14 83 201 m 354 451 b 424 56 317 188 326 56 b 604 451 521 56 567 188 b 535 847 642 715 632 847 b 354 451 438 847 392 715 "},"1":{"ha":583,"x_min":0,"x_max":0,"o":"m 424 153 b 547 42 413 76 438 56 l 542 0 l 42 0 l 47 42 b 201 153 160 56 190 76 l 278 694 b 153 792 289 771 278 792 l 158 833 l 517 917 l 531 917 "},"2":{"ha":708,"x_min":0,"x_max":0,"o":"m 465 847 b 536 653 535 847 551 764 b 49 56 518 528 447 319 l 42 0 l 667 0 l 689 167 l 293 167 b 753 668 683 417 738 556 b 496 917 771 792 683 917 b 193 743 294 917 206 832 b 278 646 186 694 201 646 b 372 725 347 646 369 696 b 465 847 379 826 410 847 "},"3":{"ha":743,"x_min":0,"x_max":0,"o":"m 340 56 b 492 258 424 56 472 119 b 376 444 508 376 464 444 l 326 444 l 336 507 l 358 507 b 546 706 443 507 526 572 b 465 847 561 819 493 847 b 372 725 410 847 379 826 b 278 646 369 696 347 646 b 193 743 201 646 186 694 b 482 917 206 832 294 917 b 750 710 669 917 768 833 b 500 482 735 601 640 507 l 500 479 b 724 256 621 464 744 403 b 324 -14 699 78 539 -14 b 83 160 150 -14 71 71 b 203 257 90 208 119 257 b 275 185 272 257 281 214 b 340 56 254 83 285 56 "},"4":{"ha":792,"x_min":0,"x_max":0,"o":"m 151 306 l 525 707 l 468 306 m 792 306 l 690 306 l 776 917 l 632 917 l 88 328 l 64 167 l 449 167 l 426 0 l 649 0 l 671 167 l 772 167 "},"5":{"ha":743,"x_min":0,"x_max":0,"o":"m 286 903 l 779 903 l 756 736 l 328 736 l 294 563 b 725 271 703 604 740 378 b 324 -14 701 104 546 -14 b 83 160 150 -14 71 71 b 203 257 90 208 119 257 b 275 185 272 257 281 214 b 340 56 254 83 285 56 b 494 264 438 56 478 139 b 325 486 513 386 464 486 l 214 486 "},"6":{"ha":785,"x_min":0,"x_max":0,"o":"m 532 278 b 403 56 510 119 468 56 b 354 453 299 56 306 274 b 457 489 392 479 431 489 b 532 278 528 489 551 417 m 769 292 b 540 582 790 444 715 582 b 363 521 503 582 432 574 b 711 875 393 625 458 806 l 704 931 b 104 353 401 875 146 649 b 392 -14 76 154 182 -14 b 769 292 558 -14 743 106 "},"7":{"ha":681,"x_min":0,"x_max":0,"o":"m 767 819 l 779 903 l 175 903 l 131 639 l 179 639 b 297 736 203 710 218 736 l 644 736 l 122 0 l 372 0 "},"8":{"ha":785,"x_min":0,"x_max":0,"o":"m 600 714 b 521 543 590 644 553 569 b 400 726 408 590 392 667 b 514 847 411 807 471 847 b 600 714 571 847 614 819 m 535 199 b 397 56 524 121 479 56 b 296 231 326 56 279 113 b 375 403 306 301 342 361 b 535 199 500 346 547 290 m 756 246 b 575 515 771 351 735 444 b 779 708 704 544 768 626 b 529 917 800 851 668 917 b 192 681 364 917 214 831 b 321 433 181 596 203 507 b 93 221 199 407 108 326 b 385 -14 69 56 206 -14 b 756 246 560 -14 732 76 "},"9":{"ha":785,"x_min":0,"x_max":0,"o":"m 379 625 b 507 847 401 783 442 847 b 556 450 611 847 604 629 b 453 414 518 424 479 414 b 379 625 382 414 360 486 m 140 611 b 369 321 119 458 194 321 b 547 382 407 321 479 329 b 199 28 518 278 451 97 l 207 -28 b 806 550 508 28 764 254 b 518 917 833 749 728 917 b 140 611 351 917 167 797 "},"\u0000":{"ha":819,"x_min":0,"x_max":0,"o":"m 819 694 l 722 0 l 97 0 l 194 694 m 207 674 l 115 22 l 446 346 m 710 25 l 800 671 l 469 346 m 461 360 l 786 678 l 224 678 m 133 17 l 690 17 l 457 333 "}," ":{"ha":319,"x_min":0,"x_max":0,"o":""},"!":{"ha":444,"x_min":0,"x_max":0,"o":"m 132 88 b 249 189 140 143 193 189 b 335 88 304 189 343 143 b 219 -14 328 32 275 -14 b 132 88 164 -14 125 32 m 235 278 l 251 947 b 374 1069 254 1025 304 1069 b 454 947 443 1069 474 1025 l 290 278 "},"\"":{"ha":578,"x_min":0,"x_max":0,"o":"m 481 1056 l 469 771 l 533 771 l 600 1056 m 272 1056 l 261 771 l 325 771 l 392 1056 "},"#":{"ha":778,"x_min":0,"x_max":0,"o":"m 281 299 l 300 444 l 103 444 l 114 521 l 311 521 l 339 719 l 415 719 l 388 521 l 533 521 l 561 719 l 638 719 l 610 521 l 808 521 l 797 444 l 599 444 l 579 299 l 778 299 l 767 222 l 568 222 l 540 25 l 464 25 l 492 222 l 346 222 l 318 25 l 242 25 l 269 222 l 72 222 l 83 299 m 357 299 l 503 299 l 522 444 l 376 444 "},"$":{"ha":743,"x_min":0,"x_max":0,"o":"m 565 1111 l 547 985 b 775 924 625 981 713 960 l 754 681 l 706 681 b 538 910 688 846 653 908 l 496 615 b 742 292 625 560 767 469 b 408 -10 715 106 569 8 l 389 -139 l 313 -139 l 331 -14 b 63 56 235 -11 129 17 l 85 313 l 133 313 b 342 63 128 125 228 63 l 388 394 b 140 708 240 463 117 539 b 471 985 164 872 301 969 l 489 1111 m 515 215 b 458 350 524 269 501 314 l 421 83 b 515 215 468 107 507 151 m 376 778 b 425 656 371 732 382 690 l 458 890 b 376 778 421 871 385 838 "},"%":{"ha":1361,"x_min":0,"x_max":0,"o":"m 1032 1069 l 396 -83 l 479 -83 l 1114 1069 m 833 201 b 1085 417 850 321 958 417 b 1264 201 1207 417 1283 321 b 1011 -14 1246 82 1138 -14 b 833 201 888 -14 813 82 m 972 201 b 1024 26 954 76 971 26 b 1125 201 1076 26 1107 76 b 1074 376 1143 326 1126 376 b 972 201 1021 376 990 326 m 233 771 b 483 986 250 890 357 986 b 664 771 606 986 683 890 b 411 556 644 651 538 556 b 233 771 288 556 211 651 m 372 771 b 424 596 354 646 371 596 b 525 771 476 596 507 646 b 472 946 542 896 525 946 b 372 771 419 946 389 896 "},"&":{"ha":1089,"x_min":0,"x_max":0,"o":"m 408 479 b 364 563 499 479 481 618 b 542 931 318 729 375 931 b 650 814 625 931 665 889 b 799 813 631 715 785 710 b 565 986 811 901 736 986 b 300 511 169 986 114 661 b 464 -14 32 415 18 -14 b 882 508 828 -14 1056 290 b 1164 681 1071 522 1151 596 b 972 840 1193 885 1000 903 b 1075 792 943 775 1026 740 b 826 667 1115 835 1200 667 b 510 426 639 667 510 554 b 731 281 510 238 693 204 b 654 332 761 342 685 389 b 754 499 600 232 440 499 b 549 125 949 499 932 125 b 346 488 299 125 297 381 b 408 479 365 482 386 479 "},"’":{"ha":472,"x_min":0,"x_max":0,"o":"m 372 1083 b 478 931 475 1083 486 992 b 243 656 457 790 332 686 l 219 700 b 340 886 360 761 417 886 b 263 988 290 886 254 922 b 372 1083 269 1038 322 1083 "},"(":{"ha":521,"x_min":0,"x_max":0,"o":"m 356 410 b 426 -368 321 164 326 -139 l 371 -368 b 168 410 183 -154 132 153 b 590 1188 204 667 342 974 l 646 1188 b 356 410 481 958 390 656 "},")":{"ha":521,"x_min":0,"x_max":0,"o":"m 279 410 b -10 -368 244 164 153 -139 l 44 -368 b 467 410 293 -154 431 153 b 264 1188 503 667 451 974 l 208 1188 b 279 410 307 958 314 656 "},"*":{"ha":614,"x_min":0,"x_max":0,"o":"m 294 900 b 342 901 308 914 329 915 b 401 799 350 890 350 876 b 403 925 406 900 401 911 b 440 958 406 944 421 958 b 471 925 460 958 474 946 b 435 799 469 911 461 896 b 525 901 507 875 513 890 b 572 901 540 915 560 915 b 565 853 583 888 582 868 b 451 775 554 842 542 840 b 579 796 553 786 564 796 b 610 761 599 796 611 781 b 569 728 607 742 589 728 b 449 744 556 728 544 733 b 539 672 517 683 529 682 b 532 624 550 658 547 636 b 483 624 515 610 494 610 b 424 719 475 633 472 644 b 425 601 421 626 428 614 b 386 567 422 582 406 567 b 357 601 367 567 354 582 b 392 724 360 614 367 626 b 306 624 319 646 314 632 b 256 624 289 610 267 610 b 264 672 243 638 247 658 b 369 744 272 681 286 685 b 246 728 271 733 258 728 b 218 761 226 728 215 742 b 256 796 219 781 236 796 b 376 776 269 796 281 788 b 288 853 307 839 294 843 b 294 900 275 867 278 886 "},"+":{"ha":778,"x_min":0,"x_max":0,"o":"m 483 410 l 710 410 l 699 333 l 472 333 l 440 108 l 364 108 l 396 333 l 171 333 l 182 410 l 407 410 l 439 636 l 515 636 "},",":{"ha":472,"x_min":0,"x_max":0,"o":"m 246 186 b 351 33 349 186 360 94 b 117 -242 332 -107 206 -211 l 94 -197 b 214 -11 233 -136 290 -11 b 138 90 164 -11 128 25 b 246 186 144 140 196 186 "},"-":{"ha":778,"x_min":0,"x_max":0,"o":"m 710 410 l 699 333 l 171 333 l 182 410 "},".":{"ha":444,"x_min":0,"x_max":0,"o":"m 132 88 b 249 189 140 143 193 189 b 335 88 304 189 343 143 b 219 -14 328 32 275 -14 b 132 88 164 -14 125 32 "},"/":{"ha":667,"x_min":0,"x_max":0,"o":"m 610 1069 l 113 -83 l 196 -83 l 692 1069 "},":":{"ha":444,"x_min":0,"x_max":0,"o":"m 142 154 b 257 256 150 210 201 256 b 344 154 313 256 353 210 b 229 53 336 99 285 53 b 142 154 174 53 133 99 m 196 542 b 313 643 204 597 257 643 b 399 542 368 643 407 597 b 283 440 392 486 339 440 b 196 542 228 440 189 486 "},";":{"ha":472,"x_min":0,"x_max":0,"o":"m 210 542 b 326 643 218 597 271 643 b 413 542 382 643 421 597 b 297 440 406 486 353 440 b 210 542 242 440 203 486 m 246 186 b 351 33 349 186 360 94 b 117 -242 332 -107 206 -211 l 94 -197 b 214 -11 233 -136 290 -11 b 138 90 164 -11 128 25 b 246 186 144 140 196 186 "},"<":{"ha":667,"x_min":0,"x_max":0,"o":"m 622 581 l 635 671 l 179 393 l 174 351 l 551 74 l 564 164 l 282 374 "},"=":{"ha":778,"x_min":0,"x_max":0,"o":"m 724 507 l 713 431 l 185 431 l 196 507 m 696 313 l 685 236 l 157 236 l 168 313 "},">":{"ha":667,"x_min":0,"x_max":0,"o":"m 206 581 l 218 671 l 596 393 l 590 351 l 135 74 l 147 164 l 488 374 "},"?":{"ha":624,"x_min":0,"x_max":0,"o":"m 550 764 b 294 881 564 867 372 847 b 426 1042 160 939 286 1142 b 615 736 490 996 633 868 b 425 486 601 640 564 556 b 329 278 386 467 318 399 l 267 278 b 339 656 210 399 161 583 b 550 764 419 689 538 674 m 172 88 b 289 189 181 143 233 189 b 375 88 344 189 383 143 b 260 -14 368 32 315 -14 b 172 88 204 -14 165 32 "},"@":{"ha":1228,"x_min":0,"x_max":0,"o":"m 782 346 b 699 129 765 288 724 171 b 567 33 665 82 622 33 b 533 288 482 33 485 164 b 733 496 579 413 646 496 b 782 346 772 496 822 456 m 835 451 l 831 451 b 735 536 825 508 786 536 b 436 308 615 536 496 432 b 540 -14 369 176 389 -14 b 710 92 600 -14 672 29 b 804 -11 706 38 729 -11 b 1139 365 954 -11 1107 136 b 776 783 1181 653 1010 783 b 172 238 500 783 214 539 b 549 -217 135 -24 288 -217 b 946 -83 692 -217 835 -167 l 936 -58 b 597 -171 833 -132 710 -171 b 268 240 339 -171 231 -22 b 768 742 306 511 522 742 b 1097 360 972 742 1138 650 b 858 40 1068 150 940 40 b 825 163 790 40 806 104 l 942 521 l 926 521 "},"A":{"ha":972,"x_min":0,"x_max":0,"o":"m 686 979 l 568 979 l 156 125 b 6 42 128 68 90 56 l 0 0 l 333 0 l 339 42 b 261 188 229 56 222 104 l 329 326 l 604 326 l 633 167 b 561 42 644 94 632 56 l 556 0 l 972 0 l 978 42 b 885 125 911 63 900 79 m 521 736 l 589 389 l 358 389 l 518 736 "},"B":{"ha":847,"x_min":0,"x_max":0,"o":"m 654 511 b 881 736 769 542 865 625 b 594 972 900 875 803 972 l 178 972 l 172 931 b 239 819 225 917 250 896 l 146 153 b 47 42 135 76 104 56 l 42 0 l 500 0 b 856 257 708 0 833 104 b 654 508 869 364 822 465 m 468 472 b 626 264 593 472 644 386 b 453 63 611 153 564 63 l 356 63 l 413 472 m 422 535 l 475 910 l 544 910 b 650 722 628 910 665 833 b 450 535 632 603 575 535 "},"C":{"ha":889,"x_min":0,"x_max":0,"o":"m 535 56 b 346 486 382 56 308 222 b 656 917 382 750 503 917 b 910 694 822 917 897 806 l 958 694 l 974 903 b 665 986 922 938 804 986 b 110 486 374 986 150 778 b 525 -14 68 194 233 -14 b 857 69 664 -14 796 35 l 900 278 l 851 278 b 535 56 807 167 701 56 "},"D":{"ha":1028,"x_min":0,"x_max":0,"o":"m 481 63 b 818 486 678 63 786 267 b 586 910 854 743 792 910 l 475 910 l 356 63 m 42 0 l 47 42 b 146 153 104 56 135 76 l 239 819 b 172 931 250 896 225 917 l 178 972 l 608 972 b 1054 486 907 972 1097 792 b 472 0 1014 200 771 0 "},"E":{"ha":833,"x_min":0,"x_max":0,"o":"m 419 521 l 503 521 b 674 667 579 521 646 556 l 722 667 l 672 313 l 624 313 b 494 458 626 424 571 458 l 411 458 l 356 63 l 571 63 b 775 236 647 63 746 124 l 824 236 l 778 0 l 42 0 l 47 42 b 146 153 104 56 135 76 l 239 819 b 172 931 250 896 225 917 l 178 972 l 900 972 l 874 736 l 825 736 b 676 910 826 849 753 910 l 475 910 "},"F":{"ha":799,"x_min":0,"x_max":0,"o":"m 368 153 b 436 42 357 76 382 56 l 431 0 l 42 0 l 47 42 b 146 153 104 56 135 76 l 239 819 b 172 931 250 896 225 917 l 178 972 l 900 972 l 874 736 l 825 736 b 676 910 826 849 753 910 l 475 910 l 417 500 l 500 500 b 671 646 576 500 643 535 l 719 646 l 669 292 l 621 292 b 492 438 624 403 568 438 l 408 438 "},"G":{"ha":986,"x_min":0,"x_max":0,"o":"m 678 83 b 535 56 633 65 586 56 b 346 486 382 56 308 222 b 656 917 382 750 503 917 b 910 694 822 917 897 806 l 958 694 l 974 903 b 665 986 922 938 804 986 b 110 486 374 986 150 778 b 525 -14 68 194 233 -14 b 901 97 664 -14 840 56 l 929 292 b 1028 403 940 368 943 389 l 1033 444 l 644 444 l 639 403 b 707 292 707 389 718 368 "},"H":{"ha":1083,"x_min":0,"x_max":0,"o":"m 979 153 b 1047 42 968 76 993 56 l 1042 0 l 653 0 l 658 42 b 757 153 715 56 746 76 l 801 465 l 413 465 l 368 153 b 436 42 357 76 382 56 l 431 0 l 42 0 l 47 42 b 146 153 104 56 135 76 l 239 819 b 172 931 250 896 225 917 l 178 972 l 567 972 l 561 931 b 461 819 503 917 472 896 l 421 528 l 810 528 l 850 819 b 783 931 861 896 836 917 l 789 972 l 1178 972 l 1172 931 b 1072 819 1114 917 1083 896 "},"I":{"ha":472,"x_min":0,"x_max":0,"o":"m 368 153 b 436 42 357 76 382 56 l 431 0 l 42 0 l 47 42 b 146 153 104 56 135 76 l 239 819 b 172 931 250 896 225 917 l 178 972 l 567 972 l 561 931 b 461 819 503 917 472 896 "},"J":{"ha":556,"x_min":0,"x_max":0,"o":"m 489 417 b 81 -14 457 194 324 -14 b 106 104 -92 -14 8 196 b 258 361 256 -37 235 194 l 322 819 b 256 931 333 896 308 917 l 261 972 l 650 972 l 644 931 b 544 819 586 917 556 896 "},"K":{"ha":1019,"x_min":0,"x_max":0,"o":"m 728 785 b 706 931 782 840 822 917 l 711 972 l 1086 972 l 1081 931 b 860 833 982 917 918 893 l 621 569 l 865 181 b 1011 42 904 121 968 69 l 1006 0 l 561 0 l 567 42 b 579 174 632 56 617 110 l 451 396 b 407 431 432 429 421 431 l 368 153 b 436 42 357 76 382 56 l 431 0 l 42 0 l 47 42 b 146 153 104 56 135 76 l 239 819 b 172 931 250 896 225 917 l 178 972 l 567 972 l 561 931 b 461 819 503 917 472 896 l 419 514 b 540 583 475 514 499 542 "},"L":{"ha":806,"x_min":0,"x_max":0,"o":"m 571 63 b 775 236 647 63 746 124 l 824 236 l 778 0 l 42 0 l 47 42 b 146 153 104 56 135 76 l 239 819 b 172 931 250 896 225 917 l 178 972 l 567 972 l 561 931 b 461 819 503 917 472 896 l 356 63 "},"M":{"ha":1222,"x_min":0,"x_max":0,"o":"m 1025 972 l 1317 972 l 1311 931 b 1211 819 1253 917 1222 896 l 1118 153 b 1186 42 1107 76 1132 56 l 1181 0 l 792 0 l 797 42 b 896 153 854 56 885 76 l 974 708 l 631 -7 l 519 -7 l 347 792 l 257 153 b 367 42 246 76 257 56 l 361 0 l 42 0 l 47 42 b 188 153 160 56 176 76 l 281 819 b 172 931 292 896 281 917 l 178 972 l 546 972 l 692 278 "},"N":{"ha":1014,"x_min":0,"x_max":0,"o":"m 906 819 b 797 931 917 896 906 917 l 803 972 l 1122 972 l 1117 931 b 982 819 1031 917 993 896 l 868 0 l 736 0 l 347 792 l 257 153 b 367 42 246 76 257 56 l 361 0 l 42 0 l 47 42 b 181 153 132 56 169 76 l 274 819 b 172 931 285 896 253 917 l 178 972 l 525 972 l 838 333 "},"O":{"ha":1083,"x_min":0,"x_max":0,"o":"m 110 486 b 679 986 150 778 418 986 b 1110 486 940 986 1150 778 b 539 -14 1068 194 800 -14 b 110 486 278 -14 68 194 m 346 486 b 549 56 308 222 368 56 b 874 486 729 56 836 222 b 669 917 910 750 850 917 b 346 486 489 917 382 750 "},"P":{"ha":847,"x_min":0,"x_max":0,"o":"m 468 465 b 688 694 607 465 669 572 b 572 910 703 806 683 910 l 475 910 l 413 465 m 403 403 l 368 153 b 436 42 357 76 382 56 l 431 0 l 42 0 l 47 42 b 146 153 104 56 135 76 l 239 819 b 172 931 250 896 225 917 l 178 972 l 636 972 b 918 708 844 972 940 861 b 486 403 899 569 778 403 "},"Q":{"ha":1083,"x_min":0,"x_max":0,"o":"m 110 486 b 679 986 150 778 418 986 b 1110 486 940 986 1150 778 b 646 -1 1074 235 869 44 b 1031 -271 722 -92 856 -242 l 1026 -306 b 825 -347 986 -322 894 -347 b 478 -10 633 -347 551 -218 b 110 486 244 19 71 217 m 346 486 b 549 56 308 222 368 56 b 874 486 729 56 836 222 b 669 917 910 750 850 917 b 346 486 489 917 382 750 "},"R":{"ha":931,"x_min":0,"x_max":0,"o":"m 904 708 b 672 443 890 604 826 492 l 804 194 b 922 42 839 136 871 69 l 917 0 l 653 0 b 563 153 628 28 585 97 l 454 417 l 406 417 l 368 153 b 436 42 357 76 382 56 l 431 0 l 42 0 l 47 42 b 146 153 104 56 135 76 l 239 819 b 172 931 250 896 225 917 l 178 972 l 622 972 b 904 708 831 972 926 861 m 469 479 b 674 694 608 479 656 572 b 558 910 689 806 669 910 l 475 910 l 414 479 "},"S":{"ha":743,"x_min":0,"x_max":0,"o":"m 706 681 b 535 910 688 847 654 910 b 376 778 489 910 392 882 b 489 618 368 715 394 658 b 742 292 619 563 767 472 b 349 -14 713 83 535 -14 b 63 56 249 -14 133 14 l 85 313 l 133 313 b 332 63 128 125 228 63 b 515 215 417 63 501 115 b 372 403 528 299 471 358 b 140 708 240 463 117 539 b 515 986 165 886 325 986 b 775 924 600 986 704 965 l 754 681 "},"T":{"ha":833,"x_min":0,"x_max":0,"o":"m 171 972 l 131 736 l 179 736 b 378 910 208 849 301 910 l 433 910 l 326 153 b 228 42 315 76 285 56 l 222 0 l 611 0 l 617 42 b 549 153 563 56 538 76 l 656 910 l 711 910 b 860 736 788 910 861 849 l 908 736 l 935 972 "},"U":{"ha":1056,"x_min":0,"x_max":0,"o":"m 940 819 b 825 931 951 896 933 917 l 831 972 l 1164 972 l 1158 931 b 1017 819 1058 917 1028 896 l 954 375 b 518 -14 919 125 744 -14 b 163 375 247 -14 129 135 l 225 819 b 158 931 236 896 211 917 l 164 972 l 553 972 l 547 931 b 447 819 489 917 458 896 l 388 389 b 572 69 356 167 426 69 b 881 389 760 69 853 194 "},"V":{"ha":972,"x_min":0,"x_max":0,"o":"m 422 -7 l 540 -7 l 951 847 b 1103 931 979 904 1017 917 l 1108 972 l 775 972 l 769 931 b 846 785 878 917 885 868 l 589 236 l 586 236 l 460 806 b 533 931 449 878 461 917 l 539 972 l 136 972 l 131 931 b 222 847 197 910 208 893 "},"W":{"ha":1403,"x_min":0,"x_max":0,"o":"m 760 625 l 564 236 l 561 236 l 456 806 b 533 931 446 878 460 917 l 539 972 l 136 972 l 131 931 b 219 847 196 910 207 893 l 389 -7 l 507 -7 l 779 518 l 882 -7 l 1007 -7 l 1379 847 b 1533 931 1408 904 1446 917 l 1539 972 l 1206 972 l 1200 931 b 1279 785 1307 917 1315 869 l 1043 236 l 1040 236 l 956 806 b 1033 931 946 878 960 917 l 1039 972 l 636 972 l 631 931 b 719 847 696 910 711 894 "},"X":{"ha":1000,"x_min":0,"x_max":0,"o":"m 471 444 l 236 153 b 33 42 183 90 133 63 l 28 0 l 382 0 l 388 42 b 361 201 276 60 304 133 l 504 382 l 583 201 b 540 42 614 125 632 56 l 535 0 l 972 0 l 978 42 b 861 153 926 69 892 83 l 682 556 l 892 819 b 1082 931 947 889 986 913 l 1088 972 l 747 972 l 742 931 b 783 789 857 919 847 867 l 651 621 l 576 799 b 603 931 549 861 518 919 l 608 972 l 185 972 l 179 931 b 308 819 264 913 279 888 "},"Y":{"ha":889,"x_min":0,"x_max":0,"o":"m 401 338 l 375 153 b 276 42 364 76 333 56 l 271 0 l 660 0 l 665 42 b 597 153 611 56 586 76 l 632 404 l 896 847 b 1033 931 929 903 963 917 l 1039 972 l 733 972 l 728 931 b 792 799 824 917 833 867 l 576 444 l 574 444 l 439 806 b 478 931 414 872 406 917 l 483 972 l 122 972 l 117 931 b 194 847 156 910 178 892 "},"Z":{"ha":833,"x_min":0,"x_max":0,"o":"m 901 889 l 914 972 l 215 972 l 175 736 l 224 736 b 422 910 253 849 343 910 l 669 910 l 51 69 l 42 0 l 778 0 l 824 236 l 775 236 b 571 63 746 124 654 63 l 300 63 "},"[":{"ha":528,"x_min":0,"x_max":0,"o":"m 443 -299 l 249 -299 l 449 1125 l 643 1125 l 653 1188 l 278 1188 l 60 -361 l 435 -361 "},"\\":{"ha":667,"x_min":0,"x_max":0,"o":"m 357 1069 l 529 -83 l 446 -83 l 275 1069 "},"]":{"ha":528,"x_min":0,"x_max":0,"o":"m 0 -299 l 193 -299 l 393 1125 l 199 1125 l 208 1188 l 583 1188 l 365 -361 l -8 -361 "},"^":{"ha":708,"x_min":0,"x_max":0,"o":"m 261 681 l 206 681 l 453 1000 l 536 1000 l 692 681 l 636 681 l 472 840 "},"_":{"ha":847,"x_min":0,"x_max":0,"o":"m 714 -56 l 703 -132 l 106 -132 l 117 -56 "},"‘":{"ha":472,"x_min":0,"x_max":0,"o":"m 344 681 b 240 833 242 681 232 772 b 475 1108 260 974 386 1078 l 497 1064 b 376 878 358 1003 300 878 b 454 776 426 878 464 842 b 344 681 447 726 394 681 "},"a":{"ha":818,"x_min":0,"x_max":0,"o":"m 751 701 l 676 661 b 514 708 622 700 554 708 b 106 347 340 708 147 594 b 307 -14 71 139 154 -14 b 504 150 404 -14 465 63 l 507 150 b 651 -14 490 56 529 -14 b 881 188 793 -14 846 76 l 832 208 b 756 97 797 122 781 97 b 728 153 743 97 722 110 l 807 701 m 390 104 b 333 347 335 104 306 167 b 500 653 364 553 421 653 b 549 444 571 653 567 576 l 539 375 b 390 104 515 208 446 104 "},"b":{"ha":774,"x_min":0,"x_max":0,"o":"m 481 590 b 332 319 425 590 356 486 l 322 250 b 371 42 304 118 300 42 b 538 347 450 42 507 142 b 481 590 565 528 536 590 m 188 861 b 132 965 197 931 199 965 l 138 1007 l 428 1069 l 439 1069 l 363 544 l 365 544 b 564 708 404 632 467 708 b 765 347 717 708 800 556 b 357 -14 724 100 531 -14 b 103 278 272 -14 64 7 "},"c":{"ha":717,"x_min":0,"x_max":0,"o":"m 375 -14 b 103 340 146 -14 76 153 b 494 708 136 576 333 708 b 736 535 668 708 749 624 b 617 438 729 486 700 438 b 543 510 547 438 538 481 b 478 639 564 611 533 639 b 329 390 410 639 351 551 b 472 146 304 208 375 146 b 665 236 569 146 631 188 l 707 236 b 375 -14 664 125 549 -14 "},"d":{"ha":821,"x_min":0,"x_max":0,"o":"m 390 104 b 539 375 446 104 515 208 l 576 639 b 333 347 449 681 369 586 b 390 104 306 167 335 104 m 608 861 b 553 965 618 931 593 951 l 558 1007 l 846 1069 l 860 1069 l 731 153 b 758 97 725 110 746 97 b 835 208 783 97 800 122 l 883 188 b 654 -14 849 76 796 -14 b 508 150 532 -14 492 56 l 506 150 b 307 -14 467 63 404 -14 b 106 347 154 -14 71 139 b 585 694 154 639 397 750 "},"e":{"ha":721,"x_min":0,"x_max":0,"o":"m 494 708 b 324 307 865 708 801 250 b 472 146 329 189 392 146 b 665 236 569 146 631 188 l 707 236 b 375 -14 664 125 549 -14 b 103 340 146 -14 76 153 b 494 708 136 576 333 708 m 478 639 b 326 363 406 639 339 535 b 478 639 550 350 615 639 "},"f":{"ha":472,"x_min":0,"x_max":0,"o":"m 183 618 l 114 618 l 124 688 l 194 694 b 594 1069 258 910 492 1069 b 589 931 747 1069 665 889 b 417 694 418 1022 440 910 l 556 694 l 544 618 l 406 618 l 328 63 b -24 -375 293 -181 86 -375 b -18 -236 -176 -375 -96 -194 b 106 63 150 -328 75 -153 "},"g":{"ha":749,"x_min":0,"x_max":0,"o":"m 318 451 b 390 271 310 321 342 271 b 493 457 460 271 483 339 b 428 639 503 576 481 639 b 318 451 368 639 326 581 m 243 -76 b 222 -208 229 -125 222 -153 b 361 -306 222 -285 292 -306 b 542 -181 444 -306 542 -274 b 431 -104 542 -132 490 -112 m 246 229 b 103 454 160 257 89 347 b 444 708 125 604 271 708 b 614 674 528 708 567 690 l 818 694 l 806 611 l 667 611 l 667 608 b 708 458 694 579 717 521 b 374 201 686 299 547 201 b 292 215 346 201 313 208 b 257 167 278 203 257 186 b 326 132 257 146 274 138 l 506 111 b 736 -83 674 92 736 14 b 306 -375 736 -254 500 -375 b 28 -236 133 -375 28 -326 b 201 -62 28 -153 103 -107 b 90 63 169 -50 90 -28 b 246 229 90 139 163 188 "},"h":{"ha":806,"x_min":0,"x_max":0,"o":"m 204 861 b 149 965 214 931 215 965 l 154 1007 l 444 1069 l 456 1069 l 375 514 l 378 514 b 633 708 435 635 532 708 b 764 500 726 708 786 653 l 715 153 b 743 97 710 110 731 97 b 819 208 768 97 785 122 l 868 188 b 639 -14 833 76 781 -14 b 493 153 517 -14 479 56 l 540 486 b 507 569 549 549 542 569 b 347 299 450 569 365 431 l 306 0 l 83 0 "},"i":{"ha":474,"x_min":0,"x_max":0,"o":"m 215 542 b 188 597 221 585 200 597 b 111 486 163 597 146 572 l 63 507 b 292 708 97 618 150 708 b 438 544 414 708 450 639 l 383 153 b 411 97 378 110 399 97 b 488 208 436 97 453 122 l 536 188 b 307 -14 501 76 449 -14 b 161 153 185 -14 147 56 m 256 940 b 401 1069 265 1011 331 1069 b 513 940 472 1069 522 1011 b 365 813 501 869 436 813 b 256 940 294 813 244 869 "},"j":{"ha":436,"x_min":0,"x_max":0,"o":"m 222 542 b 194 597 228 585 207 597 b 118 486 169 597 153 572 l 69 507 b 299 708 104 618 157 708 b 444 549 421 708 458 643 l 376 63 b 25 -375 342 -181 135 -375 b 31 -236 -128 -375 -47 -194 b 154 63 199 -328 124 -153 m 261 940 b 407 1069 271 1011 336 1069 b 518 940 478 1069 528 1011 b 371 813 507 869 442 813 b 261 940 300 813 250 869 "},"k":{"ha":819,"x_min":0,"x_max":0,"o":"m 361 397 b 613 625 536 435 625 524 b 764 625 597 736 772 736 b 575 408 760 569 710 471 l 674 176 b 747 111 693 129 717 111 b 833 208 772 111 803 129 l 882 188 b 639 -14 838 71 781 -14 b 460 115 542 -14 492 28 l 374 354 b 354 351 367 353 361 353 l 306 0 l 83 0 l 204 861 b 149 965 214 931 215 965 l 154 1007 l 444 1069 l 456 1069 "},"l":{"ha":413,"x_min":0,"x_max":0,"o":"m 322 153 b 350 97 317 110 338 97 b 426 208 375 97 392 122 l 475 188 b 246 -14 440 76 388 -14 b 100 153 124 -14 86 56 l 200 861 b 144 965 210 931 211 965 l 150 1007 l 440 1069 l 451 1069 "},"m":{"ha":1253,"x_min":0,"x_max":0,"o":"m 822 514 l 825 514 b 1081 708 882 635 979 708 b 1211 500 1174 708 1233 653 l 1163 153 b 1190 97 1157 110 1178 97 b 1267 208 1215 97 1232 122 l 1315 188 b 1086 -14 1281 76 1228 -14 b 940 153 964 -14 926 56 l 988 486 b 954 569 996 549 989 569 b 794 299 897 569 813 431 l 753 0 l 531 0 l 597 486 b 564 569 606 549 599 569 b 404 299 507 569 422 431 l 363 0 l 140 0 l 215 542 b 188 597 221 585 200 597 b 111 486 163 597 146 572 l 63 507 b 292 708 97 618 150 708 b 438 544 414 708 454 639 l 432 514 l 435 514 b 690 708 492 635 589 708 b 825 533 776 708 843 660 "},"n":{"ha":863,"x_min":0,"x_max":0,"o":"m 432 514 l 435 514 b 690 708 492 635 589 708 b 821 500 783 708 843 653 l 772 153 b 800 97 767 110 788 97 b 876 208 825 97 842 122 l 925 188 b 696 -14 890 76 838 -14 b 550 153 574 -14 536 56 l 597 486 b 564 569 606 549 599 569 b 404 299 507 569 422 431 l 363 0 l 140 0 l 215 542 b 188 597 221 585 200 597 b 111 486 163 597 146 572 l 63 507 b 292 708 97 618 150 708 b 438 544 414 708 454 639 "},"o":{"ha":776,"x_min":0,"x_max":0,"o":"m 104 347 b 493 708 135 547 285 708 b 771 347 701 708 801 547 b 379 -14 738 147 586 -14 b 104 347 169 -14 71 147 m 340 347 b 396 56 311 139 322 56 b 535 347 469 56 506 139 b 478 639 564 556 551 639 b 340 347 404 639 369 556 "},"p":{"ha":793,"x_min":0,"x_max":0,"o":"m 500 590 b 351 319 444 590 375 486 l 314 56 b 557 347 442 14 521 108 b 500 590 585 528 556 590 m 276 -208 b 344 -319 265 -285 292 -306 l 339 -361 l -35 -361 l -29 -319 b 54 -208 28 -306 43 -285 l 182 694 l 404 694 l 382 544 l 385 544 b 583 708 424 632 486 708 b 785 347 736 708 819 556 b 307 0 736 56 494 -56 "},"q":{"ha":793,"x_min":0,"x_max":0,"o":"m 390 104 b 333 347 335 104 306 167 b 500 653 364 553 421 653 b 549 444 571 653 567 576 l 539 375 b 390 104 515 208 446 104 m 676 661 b 514 708 622 700 554 708 b 106 347 340 708 147 594 b 307 -14 71 139 154 -14 b 506 150 404 -14 467 63 l 508 150 l 457 -208 b 358 -319 446 -285 417 -306 l 353 -361 l 728 -361 l 733 -319 b 679 -208 681 -306 669 -285 l 807 701 l 751 701 "},"r":{"ha":664,"x_min":0,"x_max":0,"o":"m 619 514 b 626 708 736 496 763 708 b 435 514 539 708 492 635 l 432 514 l 438 544 b 292 708 454 639 414 708 b 63 507 150 708 97 618 l 111 486 b 188 597 146 572 163 597 b 215 542 200 597 221 585 l 140 0 l 363 0 l 404 299 b 619 514 422 431 469 538 "},"s":{"ha":667,"x_min":0,"x_max":0,"o":"m 317 56 b 413 146 361 56 404 83 b 306 271 417 179 411 222 b 144 507 175 331 128 389 b 436 708 160 618 256 708 b 678 535 610 708 692 626 b 572 465 674 511 656 465 b 499 538 503 465 492 508 b 433 639 519 633 454 639 b 346 563 399 639 354 618 b 424 465 339 507 379 485 b 631 208 593 389 647 333 b 321 -14 611 76 481 -14 b 79 160 147 -14 65 68 b 185 229 83 183 101 229 b 258 157 254 229 265 186 b 317 56 238 61 296 56 "},"t":{"ha":486,"x_min":0,"x_max":0,"o":"m 326 153 b 354 97 321 110 342 97 b 444 208 379 97 410 122 l 493 188 b 250 -14 458 76 392 -14 b 104 153 128 -14 90 56 l 169 618 l 114 618 l 124 688 l 182 708 l 376 903 l 432 903 l 403 694 l 542 694 l 531 618 l 392 618 "},"u":{"ha":863,"x_min":0,"x_max":0,"o":"m 556 181 l 553 181 b 297 -14 496 60 399 -14 b 167 194 204 -14 144 42 l 215 542 b 188 597 221 585 200 597 b 111 486 163 597 146 572 l 63 507 b 292 708 97 618 150 708 b 438 542 414 708 451 639 l 390 208 b 424 125 382 146 389 125 b 583 396 481 125 565 264 l 625 694 l 847 694 l 772 153 b 800 97 767 110 788 97 b 876 208 825 97 842 122 l 925 188 b 696 -14 890 76 838 -14 b 550 150 574 -14 533 56 "},"v":{"ha":810,"x_min":0,"x_max":0,"o":"m 354 -14 b 167 194 222 -14 144 42 l 215 542 b 188 597 221 585 200 597 b 111 486 163 597 146 572 l 63 507 b 292 708 97 618 150 708 b 438 542 414 708 451 639 l 390 208 b 493 97 382 146 417 97 b 586 583 597 97 731 178 b 799 607 540 713 769 778 b 354 -14 856 271 660 -14 "},"w":{"ha":1199,"x_min":0,"x_max":0,"o":"m 553 181 b 297 -14 496 60 399 -14 b 167 194 204 -14 144 42 l 215 542 b 188 597 221 585 200 597 b 111 486 163 597 146 572 l 63 507 b 292 708 97 618 150 708 b 438 542 414 708 451 639 l 390 208 b 424 125 382 146 389 125 b 583 396 481 125 565 264 l 625 694 l 847 694 l 779 208 b 882 97 771 146 806 97 b 975 583 986 97 1119 178 b 1188 607 929 713 1158 778 b 743 -14 1244 271 1049 -14 b 556 181 611 -14 533 42 "},"x":{"ha":810,"x_min":0,"x_max":0,"o":"m 346 311 l 224 171 b 93 139 182 125 163 129 b 97 -14 -26 156 -35 -14 b 271 110 149 -14 182 7 l 376 233 l 408 153 b 588 -14 444 61 479 -14 b 839 188 729 -14 804 76 l 790 208 b 700 111 763 144 725 111 b 654 151 688 111 669 115 l 540 424 l 626 524 b 764 556 671 568 694 565 b 760 708 868 542 892 708 b 582 583 708 708 664 671 l 510 500 l 493 542 b 315 708 456 633 424 708 b 64 507 174 708 99 618 l 113 486 b 203 583 140 550 178 583 b 254 546 215 583 240 582 "},"y":{"ha":814,"x_min":0,"x_max":0,"o":"m 660 92 b 361 -14 579 25 475 -14 b 174 194 229 -14 151 42 l 222 542 b 194 597 228 585 207 597 b 118 486 169 597 153 572 l 69 507 b 299 708 104 618 157 708 b 444 542 421 708 458 639 l 397 208 b 500 97 389 146 424 97 b 593 583 604 97 738 178 b 806 607 547 713 783 779 b 160 -375 875 79 493 -375 b 142 -236 8 -375 60 -207 b 661 90 254 -276 538 -193 "},"z":{"ha":688,"x_min":0,"x_max":0,"o":"m 169 158 b 550 35 475 313 496 11 b 556 128 569 43 565 97 b 689 125 529 210 689 222 b 444 -42 689 42 578 -42 b 126 88 238 -42 142 111 b 140 40 119 78 132 67 b 43 19 160 -26 54 -61 b 569 556 35 83 97 236 l 568 557 b 221 569 363 435 281 569 b 131 486 196 569 165 572 l 82 507 b 347 722 154 675 217 722 b 636 649 472 722 622 621 b 611 701 643 663 619 672 b 700 713 588 776 693 790 b 168 160 713 563 567 472 "},"{":{"ha":597,"x_min":0,"x_max":0,"o":"m 701 1139 b 479 994 588 1136 504 1125 b 440 575 469 942 456 633 b 207 400 411 460 282 428 l 207 399 b 390 221 274 369 394 339 b 314 -183 389 165 318 -131 b 497 -312 303 -314 388 -303 l 490 -361 b 147 -156 282 -361 121 -344 b 233 236 160 -60 233 138 b 107 368 236 342 214 354 l 115 428 b 279 563 228 449 253 457 b 304 967 307 661 292 871 b 708 1188 331 1156 500 1188 "},"|":{"ha":326,"x_min":0,"x_max":0,"o":"m 361 1139 l 181 -139 l 104 -139 l 285 1139 "},"}":{"ha":597,"x_min":0,"x_max":0,"o":"m 11 -311 b 233 -167 124 -308 207 -297 b 272 253 243 -114 257 194 b 506 428 301 368 431 400 l 506 429 b 322 607 439 458 318 489 b 399 1011 324 663 393 958 b 215 1140 410 1142 325 1131 l 222 1189 b 565 983 431 1189 592 1172 b 478 592 551 888 478 690 b 606 460 476 486 497 474 l 597 400 b 432 265 485 379 460 371 b 407 -139 404 167 421 -43 b 4 -360 381 -328 213 -360 "},"~":{"ha":764,"x_min":0,"x_max":0,"o":"m 175 458 b 367 639 213 518 303 639 b 582 583 422 639 528 583 b 692 625 631 583 665 597 l 736 597 b 553 431 699 539 617 431 b 332 486 488 431 397 486 b 219 431 282 486 246 457 "},"¡":{"ha":444,"x_min":0,"x_max":0,"o":"m 214 663 b 300 561 206 607 244 561 b 417 663 356 561 408 607 b 329 764 424 718 385 764 b 214 663 274 764 221 718 m 261 472 l 92 -197 b 178 -319 72 -275 108 -319 b 294 -197 247 -319 292 -275 l 317 472 "},"¢":{"ha":750,"x_min":0,"x_max":0,"o":"m 372 -12 b 103 340 168 3 78 163 b 474 704 133 554 311 683 l 492 833 l 568 833 l 550 707 b 764 535 704 699 775 618 b 644 438 757 486 728 438 b 571 510 575 438 565 481 b 540 633 588 588 572 622 l 471 147 b 724 208 564 140 640 160 l 710 111 b 449 -11 679 85 596 1 l 431 -139 l 354 -139 m 329 390 b 399 174 313 275 346 208 l 463 632 b 329 390 392 610 349 526 "},"£":{"ha":885,"x_min":0,"x_max":0,"o":"m 261 486 b 268 656 264 542 265 597 b 650 986 278 882 460 986 b 886 813 824 986 901 901 b 763 715 878 764 846 715 b 692 788 693 715 686 758 b 617 910 717 889 685 910 b 486 778 571 910 506 882 b 457 486 474 707 475 600 l 624 486 l 614 424 l 443 424 b 250 101 417 307 363 190 l 250 99 b 618 111 468 208 532 144 b 793 194 682 86 747 94 l 842 194 b 510 -51 818 136 728 -90 b 83 0 444 -40 267 76 l 64 63 b 256 424 204 139 243 271 l 156 424 l 165 486 "},"⁄":{"ha":667,"x_min":0,"x_max":0,"o":"m 610 1069 l 113 -83 l 196 -83 l 692 1069 "},"¥":{"ha":1028,"x_min":0,"x_max":0,"o":"m 965 847 b 1103 931 999 903 1032 917 l 1108 972 l 803 972 l 797 931 b 861 799 893 917 903 867 l 653 444 l 650 444 l 508 806 b 547 931 483 872 475 917 l 553 972 l 192 972 l 186 931 b 264 847 225 910 247 892 l 454 396 l 313 396 l 301 319 l 468 319 l 444 153 b 346 42 433 76 403 56 l 340 0 l 729 0 l 735 42 b 667 153 681 56 656 76 l 690 319 l 857 319 l 868 396 l 708 396 "},"ƒ":{"ha":431,"x_min":0,"x_max":0,"o":"m 96 618 l 96 688 l 165 694 b 578 1069 203 913 475 1069 b 568 931 731 1069 643 889 b 388 694 400 1022 425 910 l 526 694 l 526 618 l 374 618 l 264 0 b -147 -375 226 -218 -44 -375 b -137 -236 -300 -375 -212 -194 b 42 0 29 -328 6 -215 l 153 618 "},"§":{"ha":785,"x_min":0,"x_max":0,"o":"m 392 28 b 550 160 476 28 539 83 b 404 313 563 250 479 281 b 239 521 303 356 222 403 b 325 658 247 578 278 625 b 278 799 288 692 269 735 b 540 986 294 910 397 986 b 760 813 692 986 772 901 b 675 743 753 764 711 743 b 622 788 644 743 617 758 b 528 944 643 889 635 944 b 381 833 444 944 390 903 b 519 688 368 743 447 715 b 704 472 617 650 722 597 b 622 329 696 413 665 364 b 665 194 654 296 674 253 b 379 -14 647 63 511 -14 b 161 160 228 -14 149 71 b 246 229 168 208 210 229 b 297 185 276 229 303 214 b 392 28 276 83 285 28 m 443 590 b 372 624 417 601 393 611 b 342 556 356 606 346 583 b 481 410 329 465 408 438 b 563 372 508 399 538 388 b 589 438 576 392 585 414 b 443 590 601 528 518 558 "},"¤":{"ha":713,"x_min":0,"x_max":0,"o":"m 186 346 b 231 188 178 283 196 228 l 108 68 l 119 56 l 242 176 b 374 128 275 146 321 128 b 518 176 425 128 476 146 l 608 56 l 622 68 l 533 188 b 624 346 581 226 615 283 b 578 506 633 408 615 465 l 703 629 l 692 640 l 567 515 b 436 565 533 546 488 565 b 290 515 383 565 332 546 l 197 640 l 185 629 l 276 504 b 186 346 228 464 196 408 m 203 346 b 433 549 219 456 324 549 b 607 346 543 549 624 456 b 376 144 592 236 486 144 b 203 346 267 144 188 236 "},"'":{"ha":369,"x_min":0,"x_max":0,"o":"m 272 1056 l 261 771 l 325 771 l 392 1056 "},"“":{"ha":778,"x_min":0,"x_max":0,"o":"m 649 681 b 544 833 546 681 536 772 b 779 1108 564 974 690 1078 l 801 1064 b 681 878 663 1003 604 878 b 758 776 731 878 768 842 b 649 681 751 726 699 681 m 343 681 b 239 833 240 681 231 772 b 474 1108 258 974 385 1078 l 496 1064 b 375 878 357 1003 299 878 b 453 776 425 878 463 842 b 343 681 446 726 393 681 "},"«":{"ha":1014,"x_min":0,"x_max":0,"o":"m 622 581 l 635 671 l 179 393 l 174 351 l 551 74 l 564 164 l 393 374 m 969 581 l 982 671 l 526 393 l 521 351 l 899 74 l 911 164 l 740 374 "},"‹":{"ha":667,"x_min":0,"x_max":0,"o":"m 622 581 l 635 671 l 179 393 l 174 351 l 551 74 l 564 164 l 393 374 "},"›":{"ha":667,"x_min":0,"x_max":0,"o":"m 206 581 l 218 671 l 596 393 l 590 351 l 135 74 l 147 164 l 376 374 "},"ﬁ":{"ha":889,"x_min":0,"x_max":0,"o":"m 799 153 b 826 97 793 110 814 97 b 903 208 851 97 868 122 l 951 188 b 722 -14 917 76 864 -14 b 576 153 600 -14 563 56 l 631 542 b 572 618 639 597 617 618 l 406 618 l 328 63 b -24 -375 293 -181 86 -375 b -18 -236 -176 -375 -96 -194 b 106 63 150 -328 75 -153 l 183 618 l 114 618 l 124 688 l 194 694 b 594 1069 258 910 492 1069 b 589 931 747 1069 665 889 b 417 694 418 1022 440 910 l 583 694 l 865 708 l 876 708 "},"ﬂ":{"ha":889,"x_min":0,"x_max":0,"o":"m 328 63 b -24 -375 293 -181 86 -375 b -18 -236 -176 -375 -96 -194 b 106 63 150 -328 75 -153 l 183 618 l 114 618 l 124 688 l 194 694 b 650 1069 258 910 475 1069 b 844 1022 718 1069 792 1051 l 917 1069 l 928 1069 l 799 153 b 826 97 793 110 814 97 b 903 208 851 97 868 122 l 951 188 b 722 -14 917 76 864 -14 b 576 153 600 -14 563 56 l 678 878 b 417 694 399 1065 439 904 l 556 694 l 544 618 l 406 618 "},"–":{"ha":847,"x_min":0,"x_max":0,"o":"m 779 410 l 768 333 l 171 333 l 182 410 "},"†":{"ha":896,"x_min":0,"x_max":0,"o":"m 450 160 b 451 424 475 339 447 388 b 518 646 456 446 472 467 b 279 611 325 625 301 611 b 232 667 249 611 228 636 b 296 722 236 697 265 722 b 524 688 318 722 336 707 b 524 931 531 888 519 907 b 586 986 528 961 556 986 b 635 931 617 986 639 961 b 565 688 631 907 613 888 b 803 722 757 707 779 722 b 850 667 833 722 854 697 b 786 611 846 636 817 611 b 560 646 763 611 746 625 b 563 424 554 467 567 446 b 492 160 558 388 517 339 l 418 -361 l 376 -361 "},"‡":{"ha":896,"x_min":0,"x_max":0,"o":"m 549 319 b 464 -35 538 242 494 144 b 701 0 656 -14 678 0 b 749 -56 732 0 753 -25 b 685 -111 744 -86 715 -111 b 458 -76 661 -111 644 -96 b 458 -319 450 -276 463 -296 b 396 -375 454 -350 426 -375 b 347 -319 365 -375 343 -350 b 417 -76 351 -296 368 -276 b 178 -111 224 -96 200 -111 b 131 -56 147 -111 126 -86 b 194 0 135 -25 164 0 b 422 -35 217 0 235 -14 b 438 319 440 144 426 242 b 518 646 449 397 486 467 b 279 611 325 625 301 611 b 232 667 249 611 228 636 b 296 722 236 697 265 722 b 524 688 318 722 336 707 b 524 931 531 888 519 907 b 586 986 528 961 556 986 b 635 931 617 986 639 961 b 565 688 631 907 613 888 b 803 722 757 707 779 722 b 850 667 833 722 854 697 b 786 611 846 636 817 611 b 560 646 763 611 746 625 b 549 319 540 467 560 397 "},"·":{"ha":494,"x_min":0,"x_max":0,"o":"m 163 344 b 314 476 174 417 242 476 b 426 344 386 476 438 417 b 276 213 417 272 349 213 b 163 344 204 213 153 272 "},"¶":{"ha":931,"x_min":0,"x_max":0,"o":"m 478 139 b 336 28 467 63 450 42 l 333 0 l 528 0 l 664 972 l 539 972 b 238 708 386 972 260 861 b 517 417 218 569 294 417 m 597 0 l 792 0 l 794 28 b 686 139 686 42 675 63 l 783 833 b 924 944 794 910 811 931 l 928 972 l 733 972 "},"•":{"ha":551,"x_min":0,"x_max":0,"o":"m 183 322 b 339 460 194 399 263 460 b 457 322 415 460 468 399 b 300 186 446 246 376 186 b 183 322 224 186 172 246 "},"‚":{"ha":472,"x_min":0,"x_max":0,"o":"m 246 186 b 351 33 349 186 360 94 b 117 -242 332 -107 206 -211 l 94 -197 b 214 -11 233 -136 290 -11 b 138 90 164 -11 128 25 b 246 186 144 140 196 186 "},"„":{"ha":778,"x_min":0,"x_max":0,"o":"m 246 186 b 351 33 349 186 360 94 b 117 -242 332 -107 206 -211 l 94 -197 b 214 -11 233 -136 290 -11 b 138 90 164 -11 128 25 b 246 186 144 140 196 186 m 551 186 b 657 33 654 186 665 94 b 422 -242 638 -107 511 -211 l 400 -197 b 519 -11 539 -136 596 -11 b 443 90 469 -11 433 25 b 551 186 450 140 501 186 "},"”":{"ha":778,"x_min":0,"x_max":0,"o":"m 372 1083 b 478 931 475 1083 486 992 b 243 656 457 790 332 686 l 219 700 b 340 886 360 761 417 886 b 263 988 290 886 254 922 b 372 1083 269 1038 322 1083 m 678 1083 b 783 931 781 1083 792 992 b 549 656 763 790 638 686 l 525 700 b 646 886 665 761 722 886 b 568 988 596 886 560 922 b 678 1083 575 1038 628 1083 "},"»":{"ha":1014,"x_min":0,"x_max":0,"o":"m 206 581 l 218 671 l 596 393 l 590 351 l 135 74 l 147 164 l 376 374 m 553 581 l 565 671 l 943 393 l 938 351 l 482 74 l 494 164 l 724 374 "},"…":{"ha":1111,"x_min":0,"x_max":0,"o":"m 132 88 b 249 189 140 143 193 189 b 335 88 304 189 343 143 b 219 -14 328 32 275 -14 b 132 88 164 -14 125 32 m 465 88 b 582 189 474 143 526 189 b 668 88 638 189 676 143 b 553 -14 661 32 608 -14 b 465 88 497 -14 458 32 m 799 88 b 915 189 807 143 860 189 b 1001 88 971 189 1010 143 b 886 -14 994 32 942 -14 b 799 88 831 -14 792 32 "},"‰":{"ha":1931,"x_min":0,"x_max":0,"o":"m 1032 1069 l 396 -83 l 479 -83 l 1114 1069 m 833 201 b 1085 417 850 321 958 417 b 1264 201 1207 417 1283 321 b 1011 -14 1246 82 1138 -14 b 833 201 888 -14 813 82 m 972 201 b 1024 26 954 76 971 26 b 1125 201 1076 26 1107 76 b 1074 376 1143 326 1126 376 b 972 201 1021 376 990 326 m 233 771 b 483 986 250 890 357 986 b 664 771 606 986 683 890 b 411 556 644 651 538 556 b 233 771 288 556 211 651 m 372 771 b 424 596 354 646 371 596 b 525 771 476 596 507 646 b 472 946 542 896 525 946 b 372 771 419 946 389 896 m 1403 201 b 1654 417 1419 321 1528 417 b 1833 201 1776 417 1853 321 b 1581 -14 1815 82 1707 -14 b 1403 201 1457 -14 1382 82 m 1542 201 b 1593 26 1524 76 1540 26 b 1694 201 1646 26 1676 76 b 1643 376 1713 326 1696 376 b 1542 201 1590 376 1560 326 "},"¿":{"ha":624,"x_min":0,"x_max":0,"o":"m 178 -14 b 433 -131 164 -117 356 -97 b 301 -292 568 -189 442 -392 b 113 14 238 -246 94 -118 b 303 264 126 110 164 194 b 399 472 342 283 410 351 l 461 472 b 389 94 518 351 567 167 b 178 -14 308 61 190 76 m 556 663 b 439 561 547 607 494 561 b 353 663 383 561 344 607 b 468 764 360 718 413 764 b 556 663 524 764 563 718 "},"`":{"ha":513,"x_min":0,"x_max":0,"o":"m 281 914 b 392 1000 199 981 349 1083 l 497 790 l 467 764 "},"´":{"ha":513,"x_min":0,"x_max":0,"o":"m 488 914 b 401 1000 589 981 467 1083 l 235 790 l 260 764 "},"ˆ":{"ha":653,"x_min":0,"x_max":0,"o":"m 288 764 l 218 764 l 426 1014 l 510 1014 l 649 764 l 579 764 l 447 868 "},"˜":{"ha":764,"x_min":0,"x_max":0,"o":"m 224 806 b 415 986 261 865 351 986 b 631 931 471 986 576 931 b 740 972 679 931 714 944 l 785 944 b 601 778 747 886 665 778 b 381 833 536 778 446 833 b 268 778 331 833 294 804 "},"¯":{"ha":708,"x_min":0,"x_max":0,"o":"m 708 896 l 697 819 l 239 819 l 250 896 "},"˘":{"ha":625,"x_min":0,"x_max":0,"o":"m 424 792 b 640 1001 549 792 626 900 l 574 1001 b 440 914 549 931 483 914 b 332 1001 397 914 338 931 l 265 1001 b 424 792 251 900 299 792 "},"˙":{"ha":436,"x_min":0,"x_max":0,"o":"m 244 871 b 353 967 251 925 299 967 b 436 871 407 967 443 925 b 326 775 428 817 381 775 b 244 871 272 775 236 817 "},"¨":{"ha":694,"x_min":0,"x_max":0,"o":"m 242 854 b 343 944 249 907 293 944 b 421 854 394 944 428 907 b 318 767 414 801 369 767 b 242 854 268 767 235 801 m 513 854 b 615 944 519 907 564 944 b 692 854 665 944 699 907 b 590 767 685 801 640 767 b 513 854 539 767 506 801 "},"˚":{"ha":521,"x_min":0,"x_max":0,"o":"m 250 885 b 403 1019 261 960 326 1019 b 518 885 478 1019 529 960 b 365 751 507 808 440 751 b 250 885 289 751 239 808 m 308 885 b 372 810 303 843 331 810 b 460 885 415 810 454 843 b 394 961 465 928 438 961 b 308 885 353 961 314 928 "},"¸":{"ha":517,"x_min":0,"x_max":0,"o":"m 236 0 l 228 -56 b 363 -197 221 -106 381 -75 b 86 -368 349 -285 189 -354 l 82 -306 b 213 -215 125 -292 204 -274 b 169 -69 222 -142 151 -160 l 185 0 "},"˝":{"ha":667,"x_min":0,"x_max":0,"o":"m 456 976 b 340 1036 519 1056 375 1119 l 235 785 l 276 764 m 678 976 b 563 1036 742 1056 597 1119 l 457 785 l 499 764 "},"˛":{"ha":500,"x_min":0,"x_max":0,"o":"m 336 -271 b 203 -326 307 -303 244 -326 b 250 0 32 -326 40 -135 l 313 0 b 343 -222 181 -108 161 -293 "},"ˇ":{"ha":653,"x_min":0,"x_max":0,"o":"m 322 1014 l 253 1014 l 392 764 l 475 764 l 683 1014 l 614 1014 l 454 910 "},"—":{"ha":1250,"x_min":0,"x_max":0,"o":"m 1182 410 l 1171 333 l 171 333 l 182 410 "},"Æ":{"ha":1222,"x_min":0,"x_max":0,"o":"m 175 125 b 6 42 136 68 92 56 l 0 0 l 333 0 l 339 42 b 294 188 232 56 236 104 l 478 458 l 633 458 l 590 153 b 492 42 579 76 549 56 l 486 0 l 1167 0 l 1213 236 l 1164 236 b 960 63 1135 124 1036 63 l 800 63 l 856 458 l 883 458 b 1013 313 960 458 1015 424 l 1061 313 l 1111 667 l 1063 667 b 892 521 1035 556 968 521 l 864 521 l 919 910 l 1065 910 b 1214 736 1142 910 1215 849 l 1263 736 l 1289 972 l 761 972 m 672 736 l 642 521 l 521 521 l 669 736 "},"ª":{"ha":535,"x_min":0,"x_max":0,"o":"m 486 676 b 538 622 474 611 499 614 l 535 601 b 410 551 486 565 460 551 b 344 618 351 551 340 586 l 343 618 b 218 551 290 569 268 551 b 146 651 169 551 139 594 b 263 746 154 703 196 736 l 368 765 l 379 835 b 339 933 392 901 389 933 b 282 851 265 933 263 872 b 182 810 313 819 189 781 b 396 986 164 861 272 986 b 519 872 479 986 531 944 m 361 731 l 322 722 b 276 668 292 717 276 701 b 310 636 276 651 288 636 b 349 651 326 636 336 642 "},"Ł":{"ha":806,"x_min":0,"x_max":0,"o":"m 197 521 l 239 819 b 172 931 250 896 225 917 l 178 972 l 567 972 l 561 931 b 461 819 503 917 472 896 l 419 521 l 544 521 l 536 458 l 411 458 l 356 63 l 571 63 b 775 236 647 63 746 124 l 824 236 l 778 0 l 42 0 l 47 42 b 146 153 104 56 135 76 l 189 458 l 106 458 l 114 521 "},"Ø":{"ha":1083,"x_min":0,"x_max":0,"o":"m 110 486 b 679 986 150 778 418 986 b 983 869 797 986 906 943 l 1074 950 l 1113 897 l 1028 819 b 1110 486 1094 733 1128 618 b 539 -14 1068 194 800 -14 b 238 99 422 -14 317 26 l 147 15 l 106 69 l 193 149 b 110 486 124 235 90 351 m 346 486 b 338 281 335 408 332 340 l 867 761 b 669 917 838 860 774 917 b 346 486 489 917 382 750 m 874 486 b 881 685 883 560 886 626 l 353 203 b 549 56 382 108 446 56 b 874 486 729 56 836 222 "},"Œ":{"ha":1347,"x_min":0,"x_max":0,"o":"m 961 521 l 1017 521 b 1188 667 1093 521 1160 556 l 1236 667 l 1186 313 l 1138 313 b 1008 458 1140 424 1085 458 l 953 458 l 897 63 l 1085 63 b 1289 236 1161 63 1260 124 l 1338 236 l 1292 0 l 681 0 b 539 -14 649 -8 578 -14 b 110 486 278 -14 68 194 b 679 986 150 778 418 986 b 817 972 718 986 788 981 l 1414 972 l 1388 736 l 1339 736 b 1190 910 1340 849 1267 910 l 1017 910 m 346 486 b 549 56 308 222 368 56 b 693 194 625 56 679 97 l 774 764 b 669 917 789 875 746 917 b 346 486 489 917 382 750 "},"º":{"ha":565,"x_min":0,"x_max":0,"o":"m 164 767 b 414 986 183 889 288 986 b 596 767 536 986 615 889 b 344 551 578 649 468 551 b 164 767 218 551 143 649 m 304 767 b 356 593 288 644 303 593 b 453 767 408 593 436 644 b 404 944 471 892 457 944 b 304 767 351 944 322 892 "},"æ":{"ha":1035,"x_min":0,"x_max":0,"o":"m 329 125 b 443 160 350 125 390 125 b 425 285 429 194 422 236 l 350 271 b 275 181 301 261 275 238 b 329 125 275 153 292 125 m 714 -14 b 472 97 596 -14 518 29 b 178 -14 333 -6 251 -14 b 49 153 96 -14 35 58 b 251 313 61 239 139 294 l 426 340 l 446 458 b 379 625 464 569 463 625 b 283 486 254 625 250 521 b 114 417 333 432 129 369 b 474 708 86 504 265 708 b 639 656 546 708 603 690 b 854 708 715 697 790 708 b 657 310 1135 708 1144 335 b 807 146 663 192 726 146 b 1000 236 904 146 965 188 l 1042 236 b 714 -14 999 125 888 -14 m 813 639 b 661 367 740 639 674 539 b 813 639 838 385 903 639 "},"ı":{"ha":474,"x_min":0,"x_max":0,"o":"m 215 542 b 188 597 221 585 200 597 b 111 486 163 597 146 572 l 63 507 b 292 708 97 618 150 708 b 438 544 414 708 450 639 l 383 153 b 411 97 378 110 399 97 b 488 208 436 97 453 122 l 536 188 b 307 -14 501 76 449 -14 b 161 153 185 -14 147 56 "},"ł":{"ha":436,"x_min":0,"x_max":0,"o":"m 397 521 l 467 521 l 458 458 l 389 458 l 346 153 b 374 97 340 110 361 97 b 450 208 399 97 415 122 l 499 188 b 269 -14 464 76 411 -14 b 124 153 147 -14 110 56 l 167 458 l 97 458 l 106 521 l 175 521 l 224 861 b 168 965 233 931 235 965 l 174 1007 l 464 1069 l 475 1069 "},"ø":{"ha":776,"x_min":0,"x_max":0,"o":"m 729 589 b 769 347 769 525 783 440 b 378 -14 736 147 585 -14 b 183 53 296 -14 229 10 l 115 -14 l 69 35 l 140 104 b 103 347 100 168 88 253 b 492 708 133 547 283 708 b 686 639 574 708 639 682 l 757 708 l 801 660 m 339 347 b 332 292 336 328 333 308 l 547 503 b 476 639 549 599 528 639 b 339 347 403 639 368 556 m 533 347 b 540 403 536 367 539 386 l 324 190 b 394 56 322 96 343 56 b 533 347 468 56 504 139 "},"œ":{"ha":1157,"x_min":0,"x_max":0,"o":"m 931 708 b 760 307 1301 708 1238 250 b 908 146 765 189 828 146 b 1101 236 1006 146 1067 188 l 1143 236 b 811 -14 1100 125 985 -14 b 601 64 714 -14 646 15 b 379 -14 542 15 467 -14 b 104 347 169 -14 71 147 b 493 708 135 547 285 708 b 699 622 586 708 654 676 b 931 708 769 679 854 708 m 340 347 b 396 56 311 139 322 56 b 535 347 469 56 506 139 b 478 639 564 556 551 639 b 340 347 404 639 369 556 m 914 639 b 763 363 842 639 775 535 b 914 639 986 350 1051 639 "},"ß":{"ha":867,"x_min":0,"x_max":0,"o":"m 183 618 l 114 618 l 124 688 l 194 694 b 594 1069 231 957 413 1069 b 836 889 765 1069 850 986 b 618 590 814 722 633 697 b 664 504 614 563 628 532 l 786 406 b 549 -14 976 251 797 -14 b 397 133 444 -14 385 47 b 539 153 411 232 574 236 b 568 49 508 79 517 49 b 672 139 614 49 663 69 b 617 250 679 197 646 225 l 514 338 b 585 675 408 426 513 572 b 557 1007 657 779 676 1007 b 417 694 474 1007 447 910 l 328 63 b -24 -375 293 -181 86 -375 b -18 -236 -176 -375 -96 -194 b 106 63 150 -328 75 -153 "},"¹":{"ha":556,"x_min":0,"x_max":0,"o":"m 439 796 b 525 729 432 750 443 738 l 522 708 l 231 708 l 233 729 b 339 796 318 738 332 750 l 388 1138 b 299 1188 393 1183 378 1188 l 301 1208 l 496 1258 l 504 1258 "},"¬":{"ha":829,"x_min":0,"x_max":0,"o":"m 718 108 l 642 108 l 674 333 l 171 333 l 182 410 l 761 410 "},"µ":{"ha":871,"x_min":0,"x_max":0,"o":"m 224 542 b 196 597 229 585 208 597 b 119 486 171 597 154 572 l 71 507 b 300 708 106 618 158 708 b 446 542 422 708 460 639 l 399 208 b 432 125 390 146 397 125 b 592 396 489 125 574 264 l 633 694 l 856 694 l 781 153 b 808 97 775 110 796 97 b 885 208 833 97 850 122 l 933 188 b 704 -14 899 76 846 -14 b 558 150 582 -14 542 56 l 564 181 l 561 181 b 361 -6 514 82 442 15 b 25 -375 303 -215 124 -375 b 31 -236 -128 -375 -47 -194 b 154 63 199 -328 124 -153 "},"™":{"ha":1325,"x_min":0,"x_max":0,"o":"m 268 972 l 247 849 l 275 849 b 374 935 293 917 329 935 l 399 935 l 354 618 b 296 553 349 574 329 561 l 293 529 l 522 529 l 525 553 b 486 618 494 561 481 574 l 531 935 l 554 935 b 628 849 599 935 631 917 l 657 849 l 671 972 m 1172 972 l 1332 972 l 1328 946 b 1269 881 1296 939 1275 926 l 1232 618 b 1272 553 1226 574 1242 561 l 1269 529 l 1040 529 l 1043 553 b 1101 618 1076 561 1096 574 l 1129 817 l 979 525 l 914 525 l 825 867 l 790 618 b 854 553 785 574 790 561 l 851 529 l 663 529 l 665 553 b 749 618 733 561 743 574 l 786 881 b 721 946 792 926 788 939 l 725 972 l 926 972 l 1011 672 "},"Ð":{"ha":1028,"x_min":0,"x_max":0,"o":"m 197 521 l 239 819 b 172 931 250 896 225 917 l 178 972 l 608 972 b 1054 486 907 972 1097 792 b 472 0 1014 200 771 0 l 42 0 l 47 42 b 146 153 104 56 135 76 l 189 458 l 106 458 l 114 521 m 481 63 b 818 486 678 63 786 267 b 586 910 854 743 792 910 l 475 910 l 419 521 l 544 521 l 536 458 l 411 458 l 356 63 "},"½":{"ha":1250,"x_min":0,"x_max":0,"o":"m 338 518 b 424 451 331 472 342 460 l 421 431 l 129 431 l 132 451 b 238 518 217 460 231 472 l 285 860 b 197 910 292 906 276 910 l 200 931 l 394 981 l 403 981 m 899 986 l 424 -14 l 479 -14 l 953 986 m 1074 514 b 1131 392 1128 514 1140 458 b 826 33 1121 317 1083 204 l 822 0 l 1181 0 l 1192 79 l 938 79 b 1232 401 1189 238 1222 333 b 1086 550 1243 475 1194 550 b 907 446 974 550 914 499 b 951 396 903 417 918 396 b 999 432 982 396 999 415 b 1074 514 1003 493 1025 514 "},"±":{"ha":778,"x_min":0,"x_max":0,"o":"m 374 174 l 396 333 l 171 333 l 182 410 l 407 410 l 439 636 l 515 636 l 483 410 l 710 410 l 699 333 l 472 333 l 450 174 l 676 174 l 665 97 l 138 97 l 149 174 "},"Þ":{"ha":847,"x_min":0,"x_max":0,"o":"m 440 271 b 660 500 579 271 643 378 b 544 715 675 611 656 715 l 447 715 l 385 271 m 239 819 b 172 931 250 896 225 917 l 178 972 l 567 972 l 561 931 b 461 819 503 917 472 896 l 456 778 l 608 778 b 892 514 817 778 913 667 b 460 208 871 375 751 208 l 376 208 l 368 153 b 436 42 357 76 382 56 l 431 0 l 42 0 l 47 42 b 146 153 104 56 135 76 "},"¼":{"ha":1250,"x_min":0,"x_max":0,"o":"m 338 518 b 424 451 331 472 342 460 l 421 431 l 129 431 l 132 451 b 238 518 217 460 231 472 l 285 860 b 197 910 292 906 276 910 l 200 931 l 394 981 l 403 981 m 919 986 l 444 -14 l 500 -14 l 974 986 m 821 183 l 1069 450 l 1032 183 m 1206 183 l 1132 183 l 1183 550 l 1118 550 l 790 197 l 779 117 l 1022 117 l 1007 0 l 1107 0 l 1122 117 l 1196 117 "},"÷":{"ha":778,"x_min":0,"x_max":0,"o":"m 328 171 b 432 263 335 221 382 263 b 511 171 482 263 518 221 b 407 79 504 121 457 79 b 328 171 357 79 321 121 m 383 572 b 489 664 390 622 439 664 b 567 572 539 664 574 622 b 463 481 560 522 513 481 b 383 572 413 481 376 522 m 710 410 l 699 333 l 171 333 l 182 410 "},"¦":{"ha":326,"x_min":0,"x_max":0,"o":"m 290 639 l 214 639 l 285 1139 l 361 1139 m 181 -139 l 104 -139 l 175 361 l 251 361 "},"°":{"ha":521,"x_min":0,"x_max":0,"o":"m 257 935 b 410 1069 268 1010 333 1069 b 525 935 485 1069 536 1010 b 372 801 514 858 447 801 b 257 935 296 801 246 858 m 315 935 b 379 860 310 893 338 860 b 467 935 422 860 461 893 b 401 1011 472 978 444 1011 b 315 935 360 1011 321 978 "},"þ":{"ha":793,"x_min":0,"x_max":0,"o":"m 500 590 b 351 319 444 590 375 486 l 314 56 b 557 347 442 14 521 108 b 500 590 585 528 556 590 m 206 861 b 150 965 215 931 217 965 l 156 1007 l 446 1069 l 457 1069 l 382 544 l 385 544 b 583 708 424 632 486 708 b 785 347 736 708 819 556 b 307 0 736 56 494 -56 l 276 -208 b 344 -319 265 -285 292 -306 l 339 -361 l -35 -361 l -29 -319 b 54 -208 28 -306 43 -285 "},"¾":{"ha":1250,"x_min":0,"x_max":0,"o":"m 926 986 l 451 -14 l 507 -14 l 981 986 m 292 451 b 407 581 357 451 396 497 b 315 693 417 651 382 693 l 289 693 l 293 726 l 306 726 b 432 849 372 726 421 767 b 369 939 440 907 408 939 b 299 857 324 939 297 918 b 251 821 300 840 282 821 b 207 857 229 821 207 831 b 382 975 210 924 279 975 b 531 851 482 975 540 925 b 389 714 521 786 468 732 l 389 713 b 514 576 461 703 526 665 b 283 417 499 469 403 417 b 146 535 182 417 126 463 b 201 571 151 557 174 571 b 240 536 232 571 242 553 b 292 451 232 475 246 451 m 821 183 l 1069 450 l 1032 183 m 1206 183 l 1132 183 l 1183 550 l 1118 550 l 790 197 l 779 117 l 1022 117 l 1007 0 l 1107 0 l 1122 117 l 1196 117 "},"²":{"ha":556,"x_min":0,"x_max":0,"o":"m 449 1222 b 507 1100 503 1222 517 1167 b 203 742 496 1025 460 913 l 197 708 l 556 708 l 567 788 l 313 788 b 608 1110 564 946 599 1042 b 463 1258 618 1183 571 1258 b 282 1154 350 1258 290 1207 b 326 1104 278 1125 293 1104 b 375 1140 357 1104 374 1124 b 449 1222 379 1201 400 1222 "},"®":{"ha":1278,"x_min":0,"x_max":0,"o":"m 922 569 b 803 457 915 524 874 481 l 861 350 b 932 276 875 322 903 288 l 929 253 l 764 253 b 724 310 744 267 731 286 l 679 442 l 660 442 l 646 342 b 686 276 639 296 653 286 l 683 253 l 451 253 l 454 276 b 515 342 488 286 508 296 l 553 606 b 510 671 558 651 540 661 l 514 694 l 753 694 b 922 569 876 694 935 660 m 681 481 b 789 569 739 481 779 496 b 715 660 799 633 779 660 l 690 660 l 665 481 m 207 486 b 776 986 246 763 500 986 b 1207 486 1053 986 1246 763 b 636 -14 1168 210 913 -14 b 207 486 360 -14 168 210 m 257 486 b 643 36 222 238 394 36 b 1157 486 892 36 1122 238 b 769 936 1192 735 1018 936 b 257 486 521 936 292 735 "},"−":{"ha":778,"x_min":0,"x_max":0,"o":"m 710 410 l 699 333 l 171 333 l 182 410 "},"ð":{"ha":781,"x_min":0,"x_max":0,"o":"m 513 908 b 456 1069 490 982 467 1039 l 553 1069 b 619 967 567 1046 592 1011 l 814 1071 l 839 1014 l 651 913 b 799 333 735 768 831 557 b 381 -14 771 133 588 -14 b 75 333 171 -14 43 133 b 490 681 106 533 282 681 b 568 674 517 681 543 678 b 531 849 558 736 546 796 l 356 754 l 332 811 m 311 333 b 397 56 282 125 310 56 b 561 333 485 56 532 125 b 475 611 590 542 563 611 b 311 333 388 611 340 542 "},"×":{"ha":764,"x_min":0,"x_max":0,"o":"m 481 372 l 661 163 l 606 115 l 425 324 l 188 115 l 147 164 l 385 372 l 206 581 l 260 629 l 439 421 l 678 629 l 719 582 "},"³":{"ha":556,"x_min":0,"x_max":0,"o":"m 357 729 b 472 858 422 729 461 775 b 381 971 483 929 447 971 l 354 971 l 358 1004 l 371 1004 b 497 1126 438 1004 486 1044 b 435 1217 506 1185 474 1217 b 364 1135 389 1217 364 1196 b 317 1099 365 1118 347 1099 b 272 1135 294 1099 272 1108 b 447 1253 275 1201 344 1253 b 596 1129 547 1253 606 1203 b 454 992 586 1064 533 1010 l 454 990 b 579 854 526 981 592 943 b 349 694 564 747 468 694 b 211 813 247 694 192 740 b 267 849 217 835 239 849 b 306 814 297 849 308 831 b 357 729 297 753 311 729 "},"©":{"ha":1278,"x_min":0,"x_max":0,"o":"m 207 486 b 776 986 246 763 500 986 b 1207 486 1053 986 1246 763 b 636 -14 1168 210 913 -14 b 207 486 360 -14 168 210 m 257 486 b 643 36 222 238 394 36 b 1157 486 892 36 1122 238 b 769 936 1192 735 1018 936 b 257 486 521 936 292 735 m 715 286 b 626 474 663 286 606 317 b 768 661 649 631 715 661 b 885 531 842 661 878 597 l 913 531 l 924 654 b 767 704 894 675 849 704 b 488 474 651 704 513 646 b 701 243 464 301 586 243 b 872 293 783 243 838 272 l 897 417 l 869 417 b 715 286 843 350 806 286 "},"Á":{"ha":972,"x_min":0,"x_max":0,"o":"m 861 1192 b 775 1278 963 1258 840 1361 l 610 1068 l 633 1042 m 686 979 l 568 979 l 156 125 b 6 42 128 68 90 56 l 0 0 l 333 0 l 339 42 b 261 188 229 56 222 104 l 329 326 l 604 326 l 633 167 b 561 42 644 94 632 56 l 556 0 l 972 0 l 978 42 b 885 125 911 63 900 79 m 521 736 l 589 389 l 358 389 l 518 736 "},"Â":{"ha":972,"x_min":0,"x_max":0,"o":"m 488 1042 l 418 1042 l 626 1292 l 710 1292 l 849 1042 l 779 1042 l 647 1146 m 686 979 l 568 979 l 156 125 b 6 42 128 68 90 56 l 0 0 l 333 0 l 339 42 b 261 188 229 56 222 104 l 329 326 l 604 326 l 633 167 b 561 42 644 94 632 56 l 556 0 l 972 0 l 978 42 b 885 125 911 63 900 79 m 521 736 l 589 389 l 358 389 l 518 736 "},"Ä":{"ha":972,"x_min":0,"x_max":0,"o":"m 418 1132 b 519 1222 425 1185 469 1222 b 597 1132 571 1222 604 1185 b 494 1044 590 1079 546 1044 b 418 1132 444 1044 411 1079 m 689 1132 b 792 1222 696 1185 740 1222 b 868 1132 842 1222 875 1185 b 767 1044 861 1079 817 1044 b 689 1132 715 1044 682 1079 m 686 979 l 568 979 l 156 125 b 6 42 128 68 90 56 l 0 0 l 333 0 l 339 42 b 261 188 229 56 222 104 l 329 326 l 604 326 l 633 167 b 561 42 644 94 632 56 l 556 0 l 972 0 l 978 42 b 885 125 911 63 900 79 m 521 736 l 589 389 l 358 389 l 518 736 "},"À":{"ha":972,"x_min":0,"x_max":0,"o":"m 435 1192 b 546 1278 353 1258 503 1361 l 653 1068 l 621 1042 m 686 979 l 568 979 l 156 125 b 6 42 128 68 90 56 l 0 0 l 333 0 l 339 42 b 261 188 229 56 222 104 l 329 326 l 604 326 l 633 167 b 561 42 644 94 632 56 l 556 0 l 972 0 l 978 42 b 885 125 911 63 900 79 m 521 736 l 589 389 l 358 389 l 518 736 "},"Å":{"ha":972,"x_min":0,"x_max":0,"o":"m 503 1086 b 656 1221 514 1161 579 1221 b 771 1086 731 1221 782 1161 b 688 969 764 1035 731 992 l 885 125 b 978 42 900 79 911 63 l 972 0 l 556 0 l 561 42 b 633 167 632 56 644 94 l 607 319 l 324 319 l 261 188 b 339 42 222 104 229 56 l 333 0 l 0 0 l 6 42 b 156 125 90 56 128 68 l 560 965 b 503 1086 518 986 496 1031 m 518 736 l 360 396 l 590 396 l 521 736 m 561 1086 b 626 1011 556 1044 585 1011 b 713 1086 669 1011 707 1044 b 647 1163 719 1129 690 1163 b 561 1086 606 1163 568 1129 "},"Ã":{"ha":972,"x_min":0,"x_max":0,"o":"m 367 1083 b 558 1264 404 1143 494 1264 b 774 1208 614 1264 719 1208 b 883 1250 822 1208 857 1222 l 928 1222 b 744 1056 890 1164 808 1056 b 524 1111 679 1056 589 1111 b 411 1056 474 1111 438 1082 m 686 979 l 568 979 l 156 125 b 6 42 128 68 90 56 l 0 0 l 333 0 l 339 42 b 261 188 229 56 222 104 l 329 326 l 604 326 l 633 167 b 561 42 644 94 632 56 l 556 0 l 972 0 l 978 42 b 885 125 911 63 900 79 m 521 736 l 589 389 l 358 389 l 518 736 "},"Ç":{"ha":889,"x_min":0,"x_max":0,"o":"m 535 56 b 346 486 382 56 308 222 b 656 917 382 750 503 917 b 910 694 822 917 897 806 l 958 694 l 974 903 b 665 986 922 938 804 986 b 110 486 374 986 150 778 b 475 -11 71 211 214 10 l 464 -69 b 507 -215 446 -160 517 -142 b 376 -306 499 -274 419 -292 l 381 -368 b 657 -197 483 -354 643 -285 b 522 -56 675 -75 515 -106 l 528 -14 b 857 69 665 -12 796 35 l 900 278 l 851 278 b 535 56 807 167 701 56 "},"É":{"ha":833,"x_min":0,"x_max":0,"o":"m 803 1192 b 717 1278 904 1258 782 1361 l 551 1068 l 575 1042 m 419 521 l 503 521 b 674 667 579 521 646 556 l 722 667 l 672 313 l 624 313 b 494 458 626 424 571 458 l 411 458 l 356 63 l 571 63 b 775 236 647 63 746 124 l 824 236 l 778 0 l 42 0 l 47 42 b 146 153 104 56 135 76 l 239 819 b 172 931 250 896 225 917 l 178 972 l 900 972 l 874 736 l 825 736 b 676 910 826 849 753 910 l 475 910 "},"Ê":{"ha":833,"x_min":0,"x_max":0,"o":"m 450 1042 l 381 1042 l 589 1292 l 672 1292 l 811 1042 l 742 1042 l 610 1146 m 419 521 l 503 521 b 674 667 579 521 646 556 l 722 667 l 672 313 l 624 313 b 494 458 626 424 571 458 l 411 458 l 356 63 l 571 63 b 775 236 647 63 746 124 l 824 236 l 778 0 l 42 0 l 47 42 b 146 153 104 56 135 76 l 239 819 b 172 931 250 896 225 917 l 178 972 l 900 972 l 874 736 l 825 736 b 676 910 826 849 753 910 l 475 910 "},"Ë":{"ha":833,"x_min":0,"x_max":0,"o":"m 394 1132 b 496 1222 401 1185 446 1222 b 574 1132 547 1222 581 1185 b 471 1044 567 1079 522 1044 b 394 1132 421 1044 388 1079 m 665 1132 b 768 1222 672 1185 717 1222 b 844 1132 818 1222 851 1185 b 743 1044 838 1079 793 1044 b 665 1132 692 1044 658 1079 m 419 521 l 503 521 b 674 667 579 521 646 556 l 722 667 l 672 313 l 624 313 b 494 458 626 424 571 458 l 411 458 l 356 63 l 571 63 b 775 236 647 63 746 124 l 824 236 l 778 0 l 42 0 l 47 42 b 146 153 104 56 135 76 l 239 819 b 172 931 250 896 225 917 l 178 972 l 900 972 l 874 736 l 825 736 b 676 910 826 849 753 910 l 475 910 "},"È":{"ha":833,"x_min":0,"x_max":0,"o":"m 413 1192 b 524 1278 331 1258 481 1361 l 631 1068 l 599 1042 m 419 521 l 503 521 b 674 667 579 521 646 556 l 722 667 l 672 313 l 624 313 b 494 458 626 424 571 458 l 411 458 l 356 63 l 571 63 b 775 236 647 63 746 124 l 824 236 l 778 0 l 42 0 l 47 42 b 146 153 104 56 135 76 l 239 819 b 172 931 250 896 225 917 l 178 972 l 900 972 l 874 736 l 825 736 b 676 910 826 849 753 910 l 475 910 "},"Í":{"ha":472,"x_min":0,"x_max":0,"o":"m 614 1192 b 528 1278 715 1258 593 1361 l 363 1068 l 386 1042 m 368 153 b 436 42 357 76 382 56 l 431 0 l 42 0 l 47 42 b 146 153 104 56 135 76 l 239 819 b 172 931 250 896 225 917 l 178 972 l 567 972 l 561 931 b 461 819 503 917 472 896 "},"Î":{"ha":472,"x_min":0,"x_max":0,"o":"m 236 1042 l 167 1042 l 375 1292 l 458 1292 l 597 1042 l 528 1042 l 396 1146 m 368 153 b 436 42 357 76 382 56 l 431 0 l 42 0 l 47 42 b 146 153 104 56 135 76 l 239 819 b 172 931 250 896 225 917 l 178 972 l 567 972 l 561 931 b 461 819 503 917 472 896 "},"Ï":{"ha":472,"x_min":0,"x_max":0,"o":"m 169 1132 b 271 1222 176 1185 221 1222 b 349 1132 322 1222 356 1185 b 246 1044 342 1079 297 1044 b 169 1132 196 1044 163 1079 m 440 1132 b 543 1222 447 1185 492 1222 b 619 1132 593 1222 626 1185 b 518 1044 613 1079 568 1044 b 440 1132 467 1044 433 1079 m 371 153 b 439 42 360 76 385 56 l 433 0 l 44 0 l 50 42 b 149 153 107 56 138 76 l 242 819 b 175 931 253 896 228 917 l 181 972 l 569 972 l 564 931 b 464 819 506 917 475 896 "},"Ì":{"ha":472,"x_min":0,"x_max":0,"o":"m 193 1192 b 304 1278 111 1258 261 1361 l 411 1068 l 379 1042 m 368 153 b 436 42 357 76 382 56 l 431 0 l 42 0 l 47 42 b 146 153 104 56 135 76 l 239 819 b 172 931 250 896 225 917 l 178 972 l 567 972 l 561 931 b 461 819 503 917 472 896 "},"Ñ":{"ha":1014,"x_min":0,"x_max":0,"o":"m 439 1083 b 631 1264 476 1143 567 1264 b 846 1208 686 1264 792 1208 b 956 1250 894 1208 929 1222 l 1000 1222 b 817 1056 963 1164 881 1056 b 596 1111 751 1056 661 1111 b 483 1056 546 1111 510 1082 m 906 819 b 797 931 917 896 906 917 l 803 972 l 1122 972 l 1117 931 b 982 819 1031 917 993 896 l 868 0 l 736 0 l 347 792 l 257 153 b 367 42 246 76 257 56 l 361 0 l 42 0 l 47 42 b 181 153 132 56 169 76 l 274 819 b 172 931 285 896 253 917 l 178 972 l 525 972 l 838 333 "},"Ó":{"ha":1083,"x_min":0,"x_max":0,"o":"m 875 1192 b 789 1278 976 1258 854 1361 l 624 1068 l 647 1042 m 110 486 b 679 986 150 778 418 986 b 1110 486 940 986 1150 778 b 539 -14 1068 194 800 -14 b 110 486 278 -14 68 194 m 346 486 b 549 56 308 222 368 56 b 874 486 729 56 836 222 b 669 917 910 750 850 917 b 346 486 489 917 382 750 "},"Ô":{"ha":1083,"x_min":0,"x_max":0,"o":"m 542 1042 l 472 1042 l 681 1292 l 764 1292 l 903 1042 l 833 1042 l 701 1146 m 110 486 b 679 986 150 778 418 986 b 1110 486 940 986 1150 778 b 539 -14 1068 194 800 -14 b 110 486 278 -14 68 194 m 346 486 b 549 56 308 222 368 56 b 874 486 729 56 836 222 b 669 917 910 750 850 917 b 346 486 489 917 382 750 "},"Ö":{"ha":1083,"x_min":0,"x_max":0,"o":"m 486 1132 b 588 1222 493 1185 538 1222 b 665 1132 639 1222 672 1185 b 563 1044 658 1079 614 1044 b 486 1132 513 1044 479 1079 m 757 1132 b 860 1222 764 1185 808 1222 b 936 1132 910 1222 943 1185 b 835 1044 929 1079 885 1044 b 757 1132 783 1044 750 1079 m 110 486 b 679 986 150 778 418 986 b 1110 486 940 986 1150 778 b 539 -14 1068 194 800 -14 b 110 486 278 -14 68 194 m 346 486 b 549 56 308 222 368 56 b 874 486 729 56 836 222 b 669 917 910 750 850 917 b 346 486 489 917 382 750 "},"Ò":{"ha":1083,"x_min":0,"x_max":0,"o":"m 514 1192 b 625 1278 432 1258 582 1361 l 732 1068 l 700 1042 m 110 486 b 679 986 150 778 418 986 b 1110 486 940 986 1150 778 b 539 -14 1068 194 800 -14 b 110 486 278 -14 68 194 m 346 486 b 549 56 308 222 368 56 b 874 486 729 56 836 222 b 669 917 910 750 850 917 b 346 486 489 917 382 750 "},"Õ":{"ha":1083,"x_min":0,"x_max":0,"o":"m 428 1083 b 619 1264 465 1143 556 1264 b 835 1208 675 1264 781 1208 b 944 1250 883 1208 918 1222 l 989 1222 b 806 1056 951 1164 869 1056 b 585 1111 740 1056 650 1111 b 472 1056 535 1111 499 1082 m 110 486 b 679 986 150 778 418 986 b 1110 486 940 986 1150 778 b 539 -14 1068 194 800 -14 b 110 486 278 -14 68 194 m 346 486 b 549 56 308 222 368 56 b 874 486 729 56 836 222 b 669 917 910 750 850 917 b 346 486 489 917 382 750 "},"Š":{"ha":743,"x_min":0,"x_max":0,"o":"m 419 1292 l 350 1292 l 489 1042 l 572 1042 l 781 1292 l 711 1292 l 551 1188 m 706 681 b 535 910 688 847 654 910 b 376 778 489 910 392 882 b 489 618 368 715 394 658 b 742 292 619 563 767 472 b 349 -14 713 83 535 -14 b 63 56 249 -14 133 14 l 85 313 l 133 313 b 332 63 128 125 228 63 b 515 215 417 63 501 115 b 372 403 528 299 471 358 b 140 708 240 463 117 539 b 515 986 165 886 325 986 b 775 924 600 986 704 965 l 754 681 "},"Ú":{"ha":1056,"x_min":0,"x_max":0,"o":"m 924 1192 b 838 1278 1025 1258 903 1361 l 672 1068 l 696 1042 m 940 819 b 825 931 951 896 933 917 l 831 972 l 1164 972 l 1158 931 b 1017 819 1058 917 1028 896 l 954 375 b 518 -14 919 125 744 -14 b 163 375 247 -14 129 135 l 225 819 b 158 931 236 896 211 917 l 164 972 l 553 972 l 547 931 b 447 819 489 917 458 896 l 388 389 b 572 69 356 167 426 69 b 881 389 760 69 853 194 "},"Û":{"ha":1056,"x_min":0,"x_max":0,"o":"m 557 1042 l 488 1042 l 696 1292 l 779 1292 l 918 1042 l 849 1042 l 717 1146 m 940 819 b 825 931 951 896 933 917 l 831 972 l 1164 972 l 1158 931 b 1017 819 1058 917 1028 896 l 954 375 b 518 -14 919 125 744 -14 b 163 375 247 -14 129 135 l 225 819 b 158 931 236 896 211 917 l 164 972 l 553 972 l 547 931 b 447 819 489 917 458 896 l 388 389 b 572 69 356 167 426 69 b 881 389 760 69 853 194 "},"Ü":{"ha":1056,"x_min":0,"x_max":0,"o":"m 493 1132 b 594 1222 500 1185 544 1222 b 672 1132 646 1222 679 1185 b 569 1044 665 1079 621 1044 b 493 1132 519 1044 486 1079 m 764 1132 b 867 1222 771 1185 815 1222 b 943 1132 917 1222 950 1185 b 842 1044 936 1079 892 1044 b 764 1132 790 1044 757 1079 m 940 819 b 825 931 951 896 933 917 l 831 972 l 1164 972 l 1158 931 b 1017 819 1058 917 1028 896 l 954 375 b 518 -14 919 125 744 -14 b 163 375 247 -14 129 135 l 225 819 b 158 931 236 896 211 917 l 164 972 l 553 972 l 547 931 b 447 819 489 917 458 896 l 388 389 b 572 69 356 167 426 69 b 881 389 760 69 853 194 "},"Ù":{"ha":1056,"x_min":0,"x_max":0,"o":"m 524 1192 b 635 1278 442 1258 592 1361 l 742 1068 l 710 1042 m 940 819 b 825 931 951 896 933 917 l 831 972 l 1164 972 l 1158 931 b 1017 819 1058 917 1028 896 l 954 375 b 518 -14 919 125 744 -14 b 163 375 247 -14 129 135 l 225 819 b 158 931 236 896 211 917 l 164 972 l 553 972 l 547 931 b 447 819 489 917 458 896 l 388 389 b 572 69 356 167 426 69 b 881 389 760 69 853 194 "},"Ý":{"ha":889,"x_min":0,"x_max":0,"o":"m 851 1192 b 765 1278 953 1258 831 1361 l 600 1068 l 624 1042 m 401 338 l 375 153 b 276 42 364 76 333 56 l 271 0 l 660 0 l 665 42 b 597 153 611 56 586 76 l 632 404 l 896 847 b 1033 931 929 903 963 917 l 1039 972 l 733 972 l 728 931 b 792 799 824 917 833 867 l 576 444 l 574 444 l 439 806 b 478 931 414 872 406 917 l 483 972 l 122 972 l 117 931 b 194 847 156 910 178 892 "},"Ÿ":{"ha":889,"x_min":0,"x_max":0,"o":"m 413 1132 b 514 1222 419 1185 464 1222 b 592 1132 565 1222 599 1185 b 489 1044 585 1079 540 1044 b 413 1132 439 1044 406 1079 m 683 1132 b 786 1222 690 1185 735 1222 b 863 1132 836 1222 869 1185 b 761 1044 856 1079 811 1044 b 683 1132 710 1044 676 1079 m 401 338 l 375 153 b 276 42 364 76 333 56 l 271 0 l 660 0 l 665 42 b 597 153 611 56 586 76 l 632 404 l 896 847 b 1033 931 929 903 963 917 l 1039 972 l 733 972 l 728 931 b 792 799 824 917 833 867 l 576 444 l 574 444 l 439 806 b 478 931 414 872 406 917 l 483 972 l 122 972 l 117 931 b 194 847 156 910 178 892 "},"Ž":{"ha":833,"x_min":0,"x_max":0,"o":"m 468 1292 l 399 1292 l 538 1042 l 621 1042 l 829 1292 l 760 1292 l 600 1188 m 901 889 l 914 972 l 215 972 l 175 736 l 224 736 b 422 910 253 849 343 910 l 669 910 l 51 69 l 42 0 l 778 0 l 824 236 l 775 236 b 571 63 746 124 654 63 l 300 63 "},"á":{"ha":818,"x_min":0,"x_max":0,"o":""},"â":{"ha":818,"x_min":0,"x_max":0,"o":""},"ä":{"ha":818,"x_min":0,"x_max":0,"o":""},"à":{"ha":818,"x_min":0,"x_max":0,"o":""},"å":{"ha":818,"x_min":0,"x_max":0,"o":""},"ã":{"ha":818,"x_min":0,"x_max":0,"o":""},"ç":{"ha":717,"x_min":0,"x_max":0,"o":"m 707 236 b 400 -12 665 131 560 0 l 394 -56 b 529 -197 388 -106 547 -75 b 253 -368 515 -285 356 -354 l 249 -306 b 379 -215 292 -292 371 -274 b 336 -69 389 -142 318 -160 l 349 -12 b 103 340 140 0 78 160 b 494 708 136 576 333 708 b 736 535 668 708 749 624 b 617 438 729 486 700 438 b 543 510 547 438 538 481 b 478 639 564 611 533 639 b 329 390 410 639 351 551 b 472 146 304 208 375 146 b 665 236 569 146 631 188 l 707 236 "},"é":{"ha":721,"x_min":0,"x_max":0,"o":""},"ê":{"ha":721,"x_min":0,"x_max":0,"o":""},"ë":{"ha":721,"x_min":0,"x_max":0,"o":""},"è":{"ha":721,"x_min":0,"x_max":0,"o":""},"í":{"ha":474,"x_min":0,"x_max":0,"o":""},"î":{"ha":474,"x_min":0,"x_max":0,"o":"m 207 764 l 138 764 l 346 1014 l 429 1014 l 568 764 l 499 764 l 367 868 m 215 542 b 188 597 221 585 200 597 b 111 486 163 597 146 572 l 63 507 b 292 708 97 618 150 708 b 438 544 414 708 450 639 l 383 153 b 411 97 378 110 399 97 b 488 208 436 97 453 122 l 536 188 b 307 -14 501 76 449 -14 b 161 153 185 -14 147 56 "},"ï":{"ha":474,"x_min":0,"x_max":0,"o":""},"ì":{"ha":474,"x_min":0,"x_max":0,"o":""},"ñ":{"ha":863,"x_min":0,"x_max":0,"o":""},"ó":{"ha":776,"x_min":0,"x_max":0,"o":""},"ô":{"ha":776,"x_min":0,"x_max":0,"o":""},"ö":{"ha":776,"x_min":0,"x_max":0,"o":""},"ò":{"ha":776,"x_min":0,"x_max":0,"o":""},"õ":{"ha":776,"x_min":0,"x_max":0,"o":""},"š":{"ha":667,"x_min":0,"x_max":0,"o":""},"ú":{"ha":863,"x_min":0,"x_max":0,"o":""},"û":{"ha":863,"x_min":0,"x_max":0,"o":""},"ü":{"ha":863,"x_min":0,"x_max":0,"o":""},"ù":{"ha":863,"x_min":0,"x_max":0,"o":""},"ý":{"ha":813,"x_min":0,"x_max":0,"o":"m 660 92 b 361 -14 579 25 475 -14 b 174 194 229 -14 151 42 l 222 542 b 194 597 228 585 207 597 b 118 486 169 597 153 572 l 69 507 b 299 708 104 618 157 708 b 444 542 421 708 458 639 l 397 208 b 500 97 389 146 424 97 b 593 583 604 97 738 178 b 806 607 547 713 783 779 b 160 -375 875 79 493 -375 b 142 -236 8 -375 60 -207 b 661 90 254 -276 538 -193 m 813 914 b 726 1000 914 981 792 1083 l 560 790 l 585 764 "},"ÿ":{"ha":814,"x_min":0,"x_max":0,"o":""},"ž":{"ha":681,"x_min":0,"x_max":0,"o":"m 169 158 b 550 35 475 313 496 11 b 556 128 569 43 565 97 b 689 125 529 210 689 222 b 444 -42 689 42 578 -42 b 126 88 238 -42 142 111 b 140 40 119 78 132 67 b 43 19 160 -26 54 -61 b 569 556 35 83 97 236 l 568 557 b 221 569 363 435 281 569 b 131 486 196 569 165 572 l 82 507 b 347 722 154 675 217 722 b 636 649 472 722 622 621 b 611 701 643 663 619 672 b 700 713 588 776 693 790 b 168 160 713 563 567 472 m 351 1014 l 282 1014 l 421 764 l 504 764 l 713 1014 l 643 1014 l 483 910 "},"":{"ha":444,"x_min":0,"x_max":0,"o":"m 132 88 b 249 189 140 143 193 189 b 335 88 304 189 343 143 b 219 -14 328 32 275 -14 b 132 88 164 -14 125 32 m 235 278 l 208 642 b 331 764 203 718 261 764 b 411 642 400 764 438 718 l 290 278 "},"":{"ha":667,"x_min":0,"x_max":0,"o":"m 465 1046 b 350 1106 529 1125 385 1189 l 244 854 l 286 833 m 688 1046 b 572 1106 751 1125 607 1189 l 467 854 l 508 833 "},"":{"ha":688,"x_min":0,"x_max":0,"o":"m 499 889 l 482 763 b 667 715 544 758 617 740 l 653 521 l 601 521 b 471 692 576 628 538 682 l 444 494 b 656 225 621 415 675 358 b 372 -11 638 94 521 4 l 354 -139 l 278 -139 l 296 -12 b 89 40 224 -8 138 11 l 103 243 l 157 243 b 306 56 178 85 257 58 l 338 283 b 308 299 329 289 318 293 b 132 551 167 364 114 422 b 406 763 147 660 235 749 l 422 889 m 431 157 b 407 233 435 179 431 206 l 385 76 b 431 157 408 93 426 121 m 349 610 b 374 536 344 578 356 554 l 393 679 b 349 610 372 665 354 643 "},"":{"ha":556,"x_min":0,"x_max":0,"o":"m 479 1251 b 607 1215 524 1249 571 1236 l 596 1072 l 571 1072 b 460 1214 567 1172 532 1214 b 356 1135 419 1214 365 1197 b 440 1035 349 1081 385 1058 b 588 863 519 1001 601 961 b 401 697 574 763 497 707 l 382 556 l 333 556 l 353 696 b 206 736 297 697 239 710 l 213 885 l 238 885 b 364 732 233 761 303 732 b 482 826 421 732 474 765 b 382 940 492 890 439 914 b 251 1110 301 976 238 1014 b 431 1251 263 1186 331 1243 l 450 1392 l 499 1392 "},"":{"ha":1015,"x_min":0,"x_max":0,"o":"m 279 217 b 358 351 289 285 324 322 l 561 94 b 411 56 518 71 467 56 b 279 217 329 56 267 124 m 571 608 b 483 475 564 561 531 503 b 428 617 453 508 419 563 b 515 707 435 664 465 707 b 571 608 565 707 578 658 m 646 0 l 890 0 l 896 42 b 788 101 838 56 806 82 l 726 169 b 821 306 758 207 790 250 b 972 389 854 363 871 376 l 976 424 l 676 424 l 672 389 b 760 306 771 376 788 363 b 696 210 743 274 724 243 l 513 440 b 711 613 667 492 703 553 b 518 764 725 703 628 764 b 253 588 406 764 269 706 b 326 389 243 521 261 460 b 103 188 229 361 117 286 b 360 -14 86 63 200 -14 b 593 60 425 -14 506 7 "},"":{"ha":513,"x_min":0,"x_max":0,"o":"m 497 983 b 411 1069 599 1050 476 1153 l 244 860 l 269 833 "},"⁽":{"ha":556,"x_min":0,"x_max":0,"o":"m 413 999 b 454 535 392 854 394 674 l 429 535 b 315 999 318 672 293 847 b 560 1467 336 1156 410 1329 l 585 1467 b 413 999 486 1329 433 1149 "},"⁾":{"ha":556,"x_min":0,"x_max":0,"o":"m 424 999 b 250 535 403 854 350 674 l 274 535 b 519 999 425 672 497 847 b 404 1467 540 1156 517 1329 l 381 1467 b 424 999 442 1329 444 1149 "},"‥":{"ha":764,"x_min":0,"x_max":0,"o":"m 132 88 b 249 189 140 143 193 189 b 335 88 304 189 343 143 b 219 -14 328 32 275 -14 b 132 88 164 -14 125 32 m 451 88 b 568 189 460 143 513 189 b 654 88 624 189 663 143 b 539 -14 647 32 594 -14 b 451 88 483 -14 444 32 "},"․":{"ha":444,"x_min":0,"x_max":0,"o":"m 132 88 b 249 189 140 143 193 189 b 335 88 304 189 343 143 b 219 -14 328 32 275 -14 b 132 88 164 -14 125 32 "},"":{"ha":833,"x_min":0,"x_max":0,"o":"m 107 375 b 524 764 140 611 288 764 b 829 375 760 764 863 611 b 414 -14 797 139 650 -14 b 107 375 178 -14 72 125 m 343 375 b 424 56 307 111 326 56 b 593 375 521 56 557 111 b 514 694 631 639 611 694 b 343 375 417 694 381 639 "},"":{"ha":597,"x_min":0,"x_max":0,"o":"m 438 153 b 561 42 426 76 451 56 l 556 0 l 56 0 l 61 42 b 215 153 174 56 204 76 l 269 542 b 144 639 281 618 269 639 l 150 681 l 510 764 l 524 764 "},"":{"ha":708,"x_min":0,"x_max":0,"o":"m 444 694 b 519 542 514 694 532 625 b 49 56 503 417 457 292 l 42 0 l 667 0 l 689 167 l 321 167 b 738 557 643 333 721 444 b 475 764 754 681 663 764 b 171 590 274 764 183 679 b 256 493 164 542 179 493 b 350 572 325 493 347 543 b 444 694 358 674 389 694 "},"":{"ha":757,"x_min":0,"x_max":0,"o":"m 329 -125 b 482 92 413 -125 463 -47 b 356 292 499 210 467 292 l 319 292 l 328 354 l 350 354 b 538 553 435 354 519 419 b 458 694 554 667 486 694 b 364 572 403 694 372 674 b 269 493 361 543 339 493 b 185 590 193 493 178 542 b 475 764 197 679 288 764 b 743 557 663 764 760 681 b 493 329 728 449 632 354 l 493 326 b 714 89 614 311 735 236 b 313 -194 690 -89 528 -194 b 71 -21 139 -194 58 -110 b 190 76 78 28 107 76 b 264 4 260 76 269 33 b 329 -125 243 -97 274 -125 "},"":{"ha":792,"x_min":0,"x_max":0,"o":"m 129 139 l 504 554 l 446 139 m 769 139 l 668 139 l 756 764 l 611 764 l 64 161 l 42 0 l 426 0 l 400 -181 l 622 -181 l 649 0 l 750 0 "},"":{"ha":743,"x_min":0,"x_max":0,"o":"m 264 750 l 757 750 l 735 583 l 307 583 l 274 410 b 701 104 681 451 717 211 b 299 -194 678 -62 521 -194 b 57 -21 125 -194 44 -110 b 176 76 64 28 93 76 b 250 4 246 76 256 33 b 315 -125 229 -97 260 -125 b 471 97 413 -125 454 -28 b 303 333 489 219 442 333 l 192 333 "},"":{"ha":785,"x_min":0,"x_max":0,"o":"m 532 278 b 403 56 510 119 468 56 b 354 453 299 56 306 274 b 457 489 392 479 431 489 b 532 278 528 489 551 417 m 769 292 b 540 582 790 444 715 582 b 363 521 503 582 432 574 b 711 875 393 625 458 806 l 704 931 b 104 353 401 875 146 649 b 392 -14 76 154 182 -14 b 769 292 558 -14 743 106 "},"":{"ha":694,"x_min":0,"x_max":0,"o":"m 760 667 l 771 750 l 167 750 l 124 486 l 172 486 b 290 583 196 557 211 583 l 638 583 l 110 -181 l 360 -181 "},"":{"ha":785,"x_min":0,"x_max":0,"o":"m 600 714 b 521 543 590 644 553 569 b 400 726 408 590 392 667 b 514 847 411 807 471 847 b 600 714 571 847 614 819 m 535 199 b 397 56 524 121 479 56 b 296 231 326 56 279 113 b 375 403 306 301 342 361 b 535 199 500 346 547 290 m 756 246 b 575 515 771 351 735 444 b 779 708 704 544 768 626 b 529 917 800 851 668 917 b 192 681 364 917 214 831 b 321 433 181 596 203 507 b 93 221 199 407 108 326 b 385 -14 69 56 206 -14 b 756 246 560 -14 732 76 "},"":{"ha":785,"x_min":0,"x_max":0,"o":"m 357 472 b 486 694 379 631 421 694 b 535 297 590 694 583 476 b 432 261 497 271 458 261 b 357 472 361 261 338 333 m 119 458 b 349 168 97 306 174 168 b 526 229 386 168 457 176 b 178 -125 496 125 431 -56 l 185 -181 b 785 397 488 -125 743 101 b 497 764 813 596 707 764 b 119 458 331 764 146 644 "},"":{"ha":556,"x_min":0,"x_max":0,"o":"m 383 832 b 456 725 456 832 461 768 b 290 532 442 626 354 553 l 281 560 b 363 700 378 601 417 700 b 308 767 329 700 303 725 b 383 832 314 801 349 832 "},"":{"ha":1250,"x_min":0,"x_max":0,"o":"m 1182 410 l 1171 333 l 171 333 l 182 410 "},"":{"ha":556,"x_min":0,"x_max":0,"o":"m 313 765 b 394 838 318 804 356 838 b 456 765 433 838 461 804 b 375 694 450 728 414 694 b 313 765 336 694 307 728 "},"":{"ha":615,"x_min":0,"x_max":0,"o":"m 514 569 b 243 575 529 672 325 547 b 372 758 147 607 199 799 b 579 542 446 742 599 674 b 400 375 571 479 519 413 b 321 278 360 363 318 331 l 258 278 b 321 513 233 325 175 481 b 514 569 393 528 507 515 m 164 88 b 281 189 172 143 225 189 b 367 88 336 189 375 143 b 251 -14 360 32 307 -14 b 164 88 196 -14 157 32 "},"":{"ha":507,"x_min":0,"x_max":0,"o":"m 492 819 b 544 765 481 754 504 757 l 542 744 b 417 694 492 708 467 694 b 351 761 358 694 346 729 l 350 761 b 225 694 297 713 275 694 b 153 794 176 694 144 738 b 268 889 160 846 201 879 l 374 908 l 385 978 b 344 1076 397 1044 394 1076 b 288 994 271 1076 268 1015 b 189 953 319 963 196 924 b 403 1129 169 1004 279 1129 b 525 1015 486 1129 538 1088 m 368 874 l 328 865 b 283 811 297 860 283 844 b 315 779 283 794 293 779 b 356 794 332 779 343 785 "},"":{"ha":579,"x_min":0,"x_max":0,"o":"m 436 1054 b 375 1033 417 1054 396 1050 l 349 840 b 400 736 335 744 374 736 b 513 910 458 736 500 799 b 436 1054 522 1018 486 1054 m 381 1071 l 381 1071 b 504 1129 415 1108 456 1129 b 647 910 611 1129 664 1035 b 407 694 628 779 513 694 b 300 736 378 694 333 708 l 229 701 l 194 701 l 268 1219 b 235 1282 274 1260 261 1272 l 239 1307 l 411 1343 l 418 1343 "},"":{"ha":556,"x_min":0,"x_max":0,"o":"m 435 696 b 614 744 511 699 578 725 l 636 865 l 613 865 b 422 731 586 799 525 731 b 283 974 319 731 261 815 b 492 1217 306 1133 389 1217 b 643 1082 594 1217 636 1147 l 667 1082 l 678 1201 b 513 1251 647 1219 589 1249 l 532 1392 l 483 1392 l 464 1250 b 175 974 314 1238 197 1136 b 386 697 151 810 239 708 l 367 556 l 415 556 "},"":{"ha":599,"x_min":0,"x_max":0,"o":"m 382 765 b 442 788 403 765 425 775 l 469 982 b 419 1088 482 1076 444 1088 b 308 910 361 1088 318 1024 b 382 765 296 803 332 765 m 503 1219 b 471 1282 508 1260 494 1272 l 475 1307 l 646 1343 l 653 1343 l 582 836 b 632 765 574 779 578 761 l 628 736 l 439 694 l 429 694 l 438 754 l 436 754 b 314 694 404 715 364 694 b 169 910 206 694 151 788 b 414 1129 188 1044 304 1129 b 486 1104 443 1129 469 1118 "},"":{"ha":489,"x_min":0,"x_max":0,"o":"m 410 1088 b 313 985 364 1088 331 1051 l 442 985 b 410 1088 474 1060 444 1088 m 353 694 b 168 908 215 694 153 794 b 421 1129 189 1050 317 1129 b 551 940 517 1129 594 1082 l 306 940 b 410 790 289 828 346 790 b 539 828 458 790 494 803 l 532 771 b 353 694 513 754 456 694 "},"":{"ha":354,"x_min":0,"x_max":0,"o":"m 351 801 b 392 736 344 754 360 743 l 388 708 l 154 708 l 158 736 b 218 801 194 743 211 754 l 247 1008 b 219 1068 253 1049 239 1064 l 222 1096 l 389 1132 l 397 1132 m 274 1271 b 361 1349 279 1314 319 1349 b 428 1271 403 1349 433 1314 b 340 1197 422 1229 382 1197 b 274 1271 299 1197 268 1229 "},"":{"ha":354,"x_min":0,"x_max":0,"o":"m 351 801 b 392 736 344 754 360 743 l 388 708 l 154 708 l 158 736 b 218 801 194 743 211 754 l 276 1224 b 250 1286 283 1267 269 1278 l 253 1311 l 419 1349 l 428 1349 "},"":{"ha":869,"x_min":0,"x_max":0,"o":"m 608 801 b 647 736 601 754 619 743 l 643 708 l 429 708 l 433 736 b 475 801 460 746 468 754 l 503 999 b 469 1049 507 1038 493 1049 b 381 1013 443 1049 414 1038 l 351 801 b 392 736 344 754 360 743 l 388 708 l 154 708 l 158 736 b 218 801 194 743 211 754 l 247 1008 b 219 1068 253 1049 239 1064 l 222 1096 l 393 1132 l 399 1132 l 385 1046 l 386 1046 b 543 1132 425 1101 482 1132 b 640 1042 592 1132 635 1106 l 642 1042 b 801 1132 679 1096 740 1132 b 897 1008 856 1132 910 1101 l 868 801 b 906 736 861 754 875 743 l 901 708 l 688 708 l 692 736 b 733 801 718 746 726 754 l 761 999 b 728 1049 765 1038 751 1049 b 638 1013 701 1049 669 1038 "},"ⁿ":{"ha":622,"x_min":0,"x_max":0,"o":"m 158 736 b 218 801 194 743 211 754 l 247 1008 b 219 1068 253 1049 239 1064 l 222 1096 l 393 1132 l 399 1132 l 385 1046 l 386 1046 b 551 1132 425 1101 490 1132 b 646 1008 607 1132 658 1101 l 617 801 b 658 736 610 754 624 743 l 654 708 l 438 708 l 442 736 b 485 801 467 746 478 754 l 513 999 b 469 1049 517 1038 493 1049 b 381 1013 443 1049 414 1038 l 351 801 b 392 736 344 754 360 743 l 388 708 l 154 708 "},"":{"ha":538,"x_min":0,"x_max":0,"o":"m 171 910 b 421 1129 190 1032 294 1129 b 603 910 543 1129 622 1032 b 351 694 585 792 475 694 b 171 910 225 694 150 792 m 311 910 b 361 736 293 788 308 736 b 460 910 414 736 442 788 b 411 1088 476 1035 464 1088 b 311 910 358 1088 328 1035 "},"":{"ha":458,"x_min":0,"x_max":0,"o":"m 379 1004 b 485 1015 403 1021 433 1032 b 504 1132 550 996 588 1132 b 385 1038 456 1132 422 1096 l 383 1038 l 399 1132 l 393 1132 l 222 1096 l 219 1068 b 247 1008 239 1064 253 1049 l 218 801 b 158 736 211 754 194 743 l 154 708 l 388 708 l 392 736 b 351 801 360 743 344 754 "},"":{"ha":422,"x_min":0,"x_max":0,"o":"m 443 994 b 357 1088 428 1060 403 1088 b 304 1039 336 1088 308 1072 b 350 982 299 1007 322 993 b 474 828 450 936 485 903 b 288 694 463 750 385 694 b 157 725 247 694 190 708 l 172 836 l 196 836 b 286 736 207 740 261 736 b 344 790 313 736 340 754 b 279 865 349 811 343 836 b 182 1007 203 900 172 936 b 358 1129 192 1072 250 1129 b 479 1103 397 1129 447 1115 l 471 994 "},"":{"ha":414,"x_min":0,"x_max":0,"o":"m 338 828 b 376 757 331 775 336 757 b 446 765 394 757 417 760 l 443 744 b 301 694 396 708 346 694 b 201 794 246 694 192 725 l 240 1072 l 206 1072 l 211 1113 l 249 1129 l 363 1243 l 396 1243 l 379 1118 l 479 1118 l 472 1072 l 372 1072 "},"ﬀ":{"ha":917,"x_min":0,"x_max":0,"o":"m 114 618 l 124 688 l 194 694 b 594 1069 258 910 492 1069 b 589 931 747 1069 665 889 b 417 694 418 1022 440 910 l 639 694 b 1039 1069 703 910 936 1069 b 1033 931 1192 1069 1110 889 b 861 694 863 1022 885 910 l 1000 694 l 989 618 l 850 618 l 772 63 b 421 -375 738 -181 531 -375 b 426 -236 268 -375 349 -194 b 550 63 594 -328 519 -153 l 628 618 l 406 618 l 328 63 b -24 -375 293 -181 86 -375 b -18 -236 -176 -375 -96 -194 b 106 63 150 -328 75 -153 l 183 618 "},"ﬃ":{"ha":1333,"x_min":0,"x_max":0,"o":"m 772 63 b 421 -375 738 -181 531 -375 b 426 -236 268 -375 349 -194 b 550 63 594 -328 519 -153 l 628 618 l 406 618 l 328 63 b -24 -375 293 -181 86 -375 b -18 -236 -176 -375 -96 -194 b 106 63 150 -328 75 -153 l 183 618 l 114 618 l 124 688 l 194 694 b 594 1069 258 910 492 1069 b 589 931 747 1069 665 889 b 417 694 418 1022 440 910 l 639 694 b 1039 1069 703 910 936 1069 b 1033 931 1192 1069 1110 889 b 861 694 863 1022 885 910 l 1028 694 l 1310 708 l 1321 708 l 1243 153 b 1271 97 1238 110 1258 97 b 1347 208 1296 97 1313 122 l 1396 188 b 1167 -14 1361 76 1308 -14 b 1021 153 1044 -14 1007 56 l 1075 542 b 1017 618 1083 597 1061 618 l 850 618 "},"ﬄ":{"ha":1333,"x_min":0,"x_max":0,"o":"m 639 694 b 1094 1069 703 910 919 1069 b 1289 1022 1163 1069 1236 1051 l 1361 1069 l 1372 1069 l 1243 153 b 1271 97 1238 110 1258 97 b 1347 208 1296 97 1313 122 l 1396 188 b 1167 -14 1361 76 1308 -14 b 1021 153 1044 -14 1007 56 l 1122 878 b 861 694 843 1065 883 904 l 1000 694 l 989 618 l 850 618 l 772 63 b 421 -375 738 -181 531 -375 b 426 -236 268 -375 349 -194 b 550 63 594 -328 519 -153 l 628 618 l 406 618 l 328 63 b -24 -375 293 -181 86 -375 b -18 -236 -176 -375 -96 -194 b 106 63 150 -328 75 -153 l 183 618 l 114 618 l 124 688 l 194 694 b 594 1069 258 910 492 1069 b 589 931 747 1069 665 889 b 417 694 418 1022 440 910 "},"₍":{"ha":556,"x_min":0,"x_max":0,"o":"m 274 13 b 315 -451 253 -132 256 -312 l 290 -451 b 176 13 179 -314 154 -139 b 421 481 199 169 271 343 l 446 481 b 274 13 347 343 294 163 "},"₎":{"ha":556,"x_min":0,"x_max":0,"o":"m 285 13 b 111 -451 264 -132 211 -312 l 135 -451 b 381 13 286 -314 358 -139 b 265 481 403 169 378 343 l 242 481 b 285 13 303 343 306 163 "},"":{"ha":653,"x_min":0,"x_max":0,"o":"m 297 833 l 228 833 l 436 1083 l 519 1083 l 658 833 l 589 833 l 457 938 "},"":{"ha":556,"x_min":0,"x_max":0,"o":"m 676 1014 l 668 951 l 154 951 l 163 1014 "},"":{"ha":513,"x_min":0,"x_max":0,"o":"m 290 983 b 401 1069 208 1050 358 1153 l 507 860 l 476 833 "},"":{"ha":819,"x_min":0,"x_max":0,"o":"m 578 757 l 463 757 l 135 125 b 6 42 107 69 75 56 l 0 0 l 306 0 l 311 42 b 238 167 214 56 203 96 l 269 229 l 492 229 l 508 167 b 450 42 526 97 521 56 l 444 0 l 819 0 l 825 42 b 760 125 786 63 774 79 m 414 519 l 472 292 l 299 292 l 411 519 "},"":{"ha":792,"x_min":0,"x_max":0,"o":"m 583 400 b 801 569 683 417 786 458 b 507 750 819 694 715 750 l 146 750 l 140 708 b 208 597 194 694 219 674 l 146 153 b 47 42 135 76 104 56 l 42 0 l 417 0 b 792 201 625 0 769 49 b 583 397 807 308 726 382 m 425 361 b 564 208 522 361 581 331 b 397 63 547 97 481 63 l 356 63 l 397 361 m 406 424 l 443 688 l 457 688 b 572 569 513 688 588 681 b 433 424 556 450 503 424 "},"":{"ha":778,"x_min":0,"x_max":0,"o":"m 479 56 b 329 375 396 56 293 111 b 569 694 367 639 486 694 b 767 472 694 694 756 583 l 815 472 l 831 681 b 565 764 781 715 704 764 b 93 375 371 764 135 667 b 456 -14 53 83 261 -14 b 746 69 594 -14 685 35 l 789 278 l 740 278 b 479 56 696 167 632 56 "},"":{"ha":917,"x_min":0,"x_max":0,"o":"m 397 63 b 690 375 594 63 665 197 b 471 688 721 590 676 688 l 443 688 l 356 63 m 42 0 l 47 42 b 146 153 104 56 135 76 l 208 597 b 140 708 219 674 194 694 l 146 750 l 493 750 b 926 375 792 750 964 639 b 389 0 893 131 688 0 "},"":{"ha":778,"x_min":0,"x_max":0,"o":"m 404 410 l 432 410 b 600 542 508 410 572 431 l 649 542 l 603 215 l 554 215 b 424 347 558 326 500 347 l 396 347 l 356 63 l 515 63 b 717 208 592 63 686 96 l 765 208 l 722 0 l 42 0 l 47 42 b 146 153 104 56 135 76 l 208 597 b 140 708 219 674 194 694 l 146 750 l 813 750 l 790 542 l 742 542 b 589 688 744 654 665 688 l 443 688 "},"":{"ha":743,"x_min":0,"x_max":0,"o":"m 368 153 b 436 42 357 76 382 56 l 431 0 l 42 0 l 47 42 b 146 153 104 56 135 76 l 208 597 b 140 708 219 674 194 694 l 146 750 l 813 750 l 790 542 l 742 542 b 589 688 744 654 665 688 l 443 688 l 403 396 l 431 396 b 599 528 507 396 571 417 l 647 528 l 601 201 l 553 201 b 421 333 556 313 497 333 l 393 333 "},"":{"ha":875,"x_min":0,"x_max":0,"o":"m 479 56 b 329 375 396 56 293 111 b 569 694 367 639 486 694 b 767 472 694 694 756 583 l 815 472 l 831 681 b 565 764 781 715 704 764 b 93 375 371 764 135 667 b 454 -14 53 83 261 -14 b 803 97 593 -14 742 56 l 817 194 b 915 306 828 271 831 292 l 922 347 l 533 347 l 526 306 b 594 194 594 292 606 271 l 578 76 b 479 56 533 58 507 56 "},"":{"ha":986,"x_min":0,"x_max":0,"o":"m 882 153 b 950 42 871 76 896 56 l 944 0 l 556 0 l 561 42 b 660 153 618 56 649 76 l 688 354 l 396 354 l 368 153 b 436 42 357 76 382 56 l 431 0 l 42 0 l 47 42 b 146 153 104 56 135 76 l 208 597 b 140 708 219 674 194 694 l 146 750 l 535 750 l 529 708 b 431 597 472 694 442 674 l 406 417 l 697 417 l 722 597 b 654 708 733 674 708 694 l 660 750 l 1049 750 l 1043 708 b 944 597 986 694 956 674 "},"":{"ha":472,"x_min":0,"x_max":0,"o":"m 368 153 b 436 42 357 76 382 56 l 431 0 l 42 0 l 47 42 b 146 153 104 56 135 76 l 208 597 b 140 708 219 674 194 694 l 146 750 l 535 750 l 529 708 b 431 597 472 694 442 674 "},"":{"ha":556,"x_min":0,"x_max":0,"o":"m 489 417 b 81 -14 457 194 324 -14 b 106 104 -92 -14 8 196 b 258 361 256 -37 235 194 l 292 597 b 224 708 303 674 278 694 l 229 750 l 618 750 l 613 708 b 514 597 556 694 525 674 "},"":{"ha":889,"x_min":0,"x_max":0,"o":"m 431 597 b 529 708 442 674 472 694 l 535 750 l 146 750 l 140 708 b 208 597 194 694 219 674 l 146 153 b 47 42 135 76 104 56 l 42 0 l 431 0 l 436 42 b 368 153 382 56 357 76 l 392 319 b 446 257 406 319 422 297 l 513 146 b 519 42 558 64 547 49 l 514 0 l 875 0 l 881 42 b 761 174 849 63 833 57 l 590 451 l 783 639 b 953 708 832 686 876 694 l 958 750 l 632 750 l 626 708 b 660 597 725 694 715 656 l 531 472 b 406 424 492 432 447 424 "},"":{"ha":750,"x_min":0,"x_max":0,"o":"m 208 597 b 140 708 219 674 194 694 l 146 750 l 535 750 l 529 708 b 431 597 472 694 442 674 l 356 63 l 515 63 b 717 208 592 63 686 96 l 765 208 l 722 0 l 42 0 l 47 42 b 146 153 104 56 135 76 "},"":{"ha":1111,"x_min":0,"x_max":0,"o":"m 903 750 l 1174 750 l 1168 708 b 1069 597 1111 694 1081 674 l 1007 153 b 1075 42 996 76 1021 56 l 1069 0 l 681 0 l 686 42 b 785 153 743 56 774 76 l 832 486 l 575 -7 l 464 -7 l 315 569 l 257 153 b 367 42 246 76 257 56 l 361 0 l 42 0 l 47 42 b 188 153 160 56 176 76 l 250 597 b 140 708 261 674 250 694 l 146 750 l 486 750 l 631 243 "},"":{"ha":931,"x_min":0,"x_max":0,"o":"m 792 597 b 682 708 803 674 792 694 l 688 750 l 1007 750 l 1001 708 b 868 597 917 694 879 674 l 785 0 l 653 0 l 315 569 l 257 153 b 367 42 246 76 257 56 l 361 0 l 42 0 l 47 42 b 181 153 132 56 169 76 l 243 597 b 140 708 254 674 222 694 l 146 750 l 465 750 l 749 292 "},"":{"ha":917,"x_min":0,"x_max":0,"o":"m 93 375 b 565 764 129 625 346 764 b 926 375 785 764 963 625 b 456 -14 892 125 675 -14 b 93 375 236 -14 58 125 m 329 375 b 465 56 293 111 369 56 b 690 375 561 56 654 111 b 556 694 728 639 651 694 b 329 375 460 694 367 639 "},"":{"ha":792,"x_min":0,"x_max":0,"o":"m 421 326 b 607 521 518 326 590 399 b 485 688 622 632 596 688 l 443 688 l 393 326 m 383 264 l 368 153 b 436 42 357 76 382 56 l 431 0 l 42 0 l 47 42 b 146 153 104 56 135 76 l 208 597 b 140 708 219 674 194 694 l 146 750 l 549 750 b 836 521 757 750 858 674 b 411 264 817 382 703 264 "},"":{"ha":917,"x_min":0,"x_max":0,"o":"m 93 375 b 565 764 129 625 346 764 b 926 375 785 764 963 625 b 551 -4 897 161 735 29 b 933 -271 629 -94 760 -242 l 929 -306 b 728 -347 889 -322 797 -347 b 385 -8 539 -347 458 -212 b 93 375 199 18 63 153 m 329 375 b 465 56 293 111 369 56 b 690 375 561 56 654 111 b 556 694 728 639 651 694 b 329 375 460 694 367 639 "},"":{"ha":847,"x_min":0,"x_max":0,"o":"m 839 535 b 633 347 828 458 751 385 l 731 167 b 853 42 757 121 800 63 l 847 0 l 569 0 b 499 97 536 28 513 56 l 425 319 l 392 319 l 368 153 b 436 42 357 76 382 56 l 431 0 l 42 0 l 47 42 b 146 153 104 56 135 76 l 208 597 b 140 708 219 674 194 694 l 146 750 l 549 750 b 839 535 757 750 860 688 m 428 382 b 610 535 525 382 592 413 b 485 688 625 646 596 688 l 443 688 l 400 382 "},"":{"ha":660,"x_min":0,"x_max":0,"o":"m 588 521 b 432 694 560 642 514 694 b 335 610 394 694 343 669 b 418 500 326 551 371 521 b 642 225 604 418 661 361 b 311 -14 622 82 482 -14 b 75 40 235 -14 131 7 l 89 243 l 143 243 b 306 56 167 69 261 56 b 417 157 353 56 407 89 b 294 299 422 197 410 247 b 118 551 153 364 100 422 b 435 764 135 669 238 764 b 653 715 506 764 596 744 l 639 521 "},"":{"ha":750,"x_min":0,"x_max":0,"o":"m 139 750 l 103 542 l 151 542 b 318 688 182 654 242 688 l 360 688 l 285 153 b 186 42 274 76 243 56 l 181 0 l 569 0 l 575 42 b 507 153 521 56 496 76 l 582 688 l 624 688 b 749 542 700 688 751 654 l 797 542 l 819 750 "},"":{"ha":972,"x_min":0,"x_max":0,"o":"m 826 597 b 710 708 838 674 819 694 l 715 750 l 1049 750 l 1043 708 b 903 597 944 694 914 674 l 865 333 b 476 -14 832 97 661 -14 b 157 333 247 -14 125 107 l 194 597 b 126 708 206 674 181 694 l 132 750 l 521 750 l 515 708 b 417 597 458 694 428 674 l 382 347 b 531 69 353 139 413 69 b 792 347 690 69 765 167 "},"":{"ha":819,"x_min":0,"x_max":0,"o":"m 346 -7 l 463 -7 l 789 625 b 918 708 817 681 849 694 l 924 750 l 618 750 l 613 708 b 686 583 710 694 721 654 l 513 231 l 510 231 l 415 583 b 474 708 397 653 403 694 l 479 750 l 104 750 l 99 708 b 164 625 138 688 150 671 "},"":{"ha":1222,"x_min":0,"x_max":0,"o":"m 640 538 l 479 231 l 476 231 l 415 583 b 474 708 401 654 403 694 l 479 750 l 104 750 l 99 708 b 164 625 138 688 153 672 l 311 -7 l 426 -7 l 661 451 l 749 -7 l 865 -7 l 1192 625 b 1321 708 1219 681 1251 694 l 1326 750 l 1021 750 l 1015 708 b 1089 583 1113 694 1125 654 l 915 231 l 913 231 l 860 583 b 932 708 849 657 861 694 l 938 750 l 563 750 l 557 708 b 622 625 596 688 613 672 "},"":{"ha":861,"x_min":0,"x_max":0,"o":"m 385 331 l 192 111 b 33 42 149 63 110 56 l 28 0 l 311 0 l 317 42 b 308 153 229 56 254 93 l 417 272 l 486 153 b 464 42 522 92 521 56 l 458 0 l 833 0 l 839 42 b 751 111 799 56 778 63 l 571 440 l 758 639 b 911 708 803 685 835 694 l 917 750 l 632 750 l 626 708 b 626 583 711 694 682 639 l 542 500 l 486 597 b 501 708 450 660 444 694 l 507 750 l 146 750 l 140 708 b 228 639 194 694 204 686 "},"":{"ha":778,"x_min":0,"x_max":0,"o":"m 329 226 l 319 153 b 221 42 308 76 278 56 l 215 0 l 604 0 l 610 42 b 542 153 556 56 531 76 l 561 293 l 754 625 b 890 708 786 681 821 694 l 896 750 l 590 750 l 585 708 b 650 576 682 694 690 644 l 506 333 l 503 333 l 408 583 b 446 708 382 650 375 694 l 451 750 l 90 750 l 85 708 b 164 625 124 688 144 669 "},"":{"ha":743,"x_min":0,"x_max":0,"o":"m 781 667 l 792 750 l 176 750 l 140 542 l 189 542 b 383 688 219 654 304 688 l 547 688 l 44 69 l 35 0 l 688 0 l 731 208 l 682 208 b 481 63 651 96 564 63 l 293 63 "},"₡":{"ha":889,"x_min":0,"x_max":0,"o":"m 674 3 b 857 69 751 21 818 47 l 900 278 l 851 278 b 535 56 807 167 701 56 b 346 486 382 56 308 222 b 656 917 382 750 503 917 b 910 694 822 917 897 806 l 958 694 l 974 903 b 808 968 942 924 882 951 l 829 1111 l 753 1111 l 735 982 b 665 986 713 985 689 986 b 575 979 633 986 604 983 l 593 1111 l 517 1111 l 496 960 b 110 486 289 896 142 718 b 363 11 76 254 174 75 l 340 -139 l 417 -139 l 436 -7 b 525 -14 464 -11 493 -14 b 596 -10 549 -14 572 -12 l 576 -139 l 653 -139 "},"":{"ha":1778,"x_min":0,"x_max":0,"o":"m 1206 -208 b 1274 -319 1196 -285 1221 -306 l 1268 -361 l 893 -361 l 899 -319 b 983 -208 957 -306 974 -285 l 1014 0 l 681 0 b 590 153 656 28 613 97 l 482 417 l 433 417 l 396 153 b 464 42 385 76 410 56 l 458 0 l 69 0 l 75 42 b 174 153 132 56 163 76 l 267 819 b 200 931 278 896 253 917 l 206 972 l 650 972 b 932 708 858 972 954 861 b 700 443 918 604 854 492 l 832 194 b 1019 49 882 97 954 61 l 1083 500 b 1029 604 1093 569 1068 590 l 1035 646 l 1328 708 l 1339 708 l 1321 611 l 1324 611 b 1529 708 1379 674 1446 708 b 1771 347 1710 708 1800 556 b 1365 -14 1739 125 1546 -14 b 1239 28 1314 -14 1271 0 m 1415 590 b 1313 553 1381 590 1344 576 l 1268 229 b 1354 56 1246 69 1313 56 b 1542 347 1451 56 1522 160 b 1415 590 1560 528 1499 590 m 497 479 b 701 694 636 479 683 572 b 586 910 717 806 697 910 l 503 910 l 442 479 "},"":{"ha":764,"x_min":0,"x_max":0,"o":"m 233 875 b 425 1056 271 935 361 1056 b 640 1000 481 1056 586 1000 b 750 1042 689 1000 724 1014 l 794 1014 b 611 847 757 956 675 847 b 390 903 546 847 456 903 b 278 847 340 903 304 874 "},"":{"ha":444,"x_min":0,"x_max":0,"o":"m 214 663 b 300 561 206 607 244 561 b 417 663 356 561 408 607 b 329 764 424 718 385 764 b 214 663 274 764 221 718 m 261 472 l 133 108 b 221 -14 107 32 151 -14 b 336 108 290 -14 342 32 l 317 472 "},"":{"ha":833,"x_min":0,"x_max":0,"o":"m 551 889 l 535 763 b 107 375 349 749 146 644 b 425 -12 69 104 244 1 l 407 -139 l 483 -139 l 501 -12 b 760 69 622 -6 703 38 l 803 278 l 754 278 b 511 56 713 171 651 64 l 601 693 b 781 472 714 683 769 578 l 829 472 l 844 681 b 611 763 799 713 729 756 l 628 889 m 343 375 b 524 685 372 579 450 660 l 436 65 b 343 375 371 90 315 169 "},"":{"ha":750,"x_min":0,"x_max":0,"o":"m 181 403 l 208 597 b 140 708 219 674 194 694 l 146 750 l 535 750 l 529 708 b 431 597 472 694 442 674 l 403 403 l 500 403 l 492 340 l 394 340 l 356 63 l 515 63 b 717 208 592 63 686 96 l 765 208 l 722 0 l 42 0 l 47 42 b 146 153 104 56 135 76 l 172 340 l 89 340 l 97 403 "},"":{"ha":660,"x_min":0,"x_max":0,"o":"m 588 521 b 432 694 560 642 514 694 b 335 610 394 694 343 669 b 418 500 326 551 371 521 b 642 225 604 418 661 361 b 311 -14 622 82 482 -14 b 75 40 235 -14 131 7 l 89 243 l 143 243 b 306 56 167 69 261 56 b 417 157 353 56 407 89 b 294 299 422 197 410 247 b 118 551 153 364 100 422 b 435 764 135 669 238 764 b 653 715 506 764 596 744 l 639 521 m 325 1069 l 256 1069 l 394 819 l 478 819 l 686 1069 l 617 1069 l 457 965 "},"":{"ha":743,"x_min":0,"x_max":0,"o":"m 781 667 l 792 750 l 176 750 l 140 542 l 189 542 b 383 688 219 654 304 688 l 547 688 l 44 69 l 35 0 l 688 0 l 731 208 l 682 208 b 481 63 651 96 564 63 l 293 63 m 385 1069 l 315 1069 l 454 819 l 538 819 l 746 1069 l 676 1069 l 517 965 "},"":{"ha":694,"x_min":0,"x_max":0,"o":"m 251 924 b 353 1014 258 976 303 1014 b 431 924 404 1014 438 976 b 328 836 424 871 379 836 b 251 924 278 836 244 871 m 522 924 b 625 1014 529 976 574 1014 b 701 924 675 1014 708 976 b 600 836 694 871 650 836 b 522 924 549 836 515 871 "},"":{"ha":625,"x_min":0,"x_max":0,"o":"m 433 861 b 650 1071 558 861 636 969 l 583 1071 b 450 983 558 1000 493 983 b 342 1071 407 983 347 1000 l 275 1071 b 433 861 261 969 308 861 "},"":{"ha":653,"x_min":0,"x_max":0,"o":"m 332 1083 l 263 1083 l 401 833 l 485 833 l 693 1083 l 624 1083 l 464 979 "},"":{"ha":436,"x_min":0,"x_max":0,"o":"m 254 940 b 363 1036 261 994 308 1036 b 446 940 417 1036 453 994 b 336 844 438 886 390 844 b 254 940 282 844 246 886 "},"":{"ha":708,"x_min":0,"x_max":0,"o":"m 718 965 l 707 889 l 249 889 l 260 965 "},"‒":{"ha":847,"x_min":0,"x_max":0,"o":"m 779 410 l 768 333 l 171 333 l 182 410 "},"":{"ha":556,"x_min":0,"x_max":0,"o":"m 538 28 l 529 -35 l 15 -35 l 24 28 "},"":{"ha":500,"x_min":0,"x_max":0,"o":"m 336 -271 b 203 -326 307 -303 244 -326 b 250 0 32 -326 40 -135 l 313 0 b 343 -222 181 -108 161 -293 "},"":{"ha":521,"x_min":0,"x_max":0,"o":"m 260 954 b 413 1089 271 1029 336 1089 b 528 954 488 1089 539 1029 b 375 821 517 878 450 821 b 260 954 299 821 249 878 m 318 954 b 382 879 313 913 340 879 b 469 954 425 879 464 913 b 404 1031 475 997 447 1031 b 318 954 363 1031 324 997 "},"":{"ha":517,"x_min":0,"x_max":0,"o":"m 236 0 l 228 -56 b 363 -197 221 -106 381 -75 b 86 -368 349 -285 189 -354 l 82 -306 b 213 -215 125 -292 204 -274 b 169 -69 222 -142 151 -160 l 185 0 "},"":{"ha":615,"x_min":0,"x_max":0,"o":"m 204 181 b 475 175 189 78 393 203 b 346 -8 571 143 519 -49 b 139 208 272 8 119 76 b 317 375 147 271 199 338 b 397 472 358 388 400 419 l 460 472 b 397 238 485 425 543 269 b 204 181 325 222 211 235 m 554 663 b 438 561 546 607 493 561 b 351 663 382 561 343 607 b 467 764 358 718 411 764 b 554 663 522 764 561 718 "},"⅛":{"ha":1250,"x_min":0,"x_max":0,"o":"m 338 518 b 424 451 331 472 342 460 l 421 431 l 129 431 l 132 451 b 238 518 217 460 231 472 l 285 860 b 197 910 292 906 276 910 l 200 931 l 394 981 l 403 981 m 899 986 l 424 -14 l 479 -14 l 953 986 m 1133 418 b 1068 307 1126 369 1103 326 b 972 426 994 338 965 376 b 1063 508 979 479 1019 508 b 1133 418 1110 508 1142 482 m 1099 118 b 993 21 1092 63 1054 21 b 910 138 933 21 900 63 b 983 247 917 183 942 219 b 1099 118 1067 213 1107 172 m 1200 142 b 1093 293 1208 206 1183 251 b 1217 414 1167 315 1210 365 b 1072 544 1229 500 1156 544 b 874 403 982 544 886 493 b 956 263 867 351 889 303 b 815 131 879 239 824 189 b 981 -14 801 32 879 -14 b 1200 142 1082 -14 1186 40 "},"⅜":{"ha":1250,"x_min":0,"x_max":0,"o":"m 899 986 l 424 -14 l 479 -14 l 953 986 m 1133 418 b 1068 307 1126 369 1103 326 b 972 426 994 338 965 376 b 1063 508 979 479 1019 508 b 1133 418 1110 508 1142 482 m 1099 118 b 993 21 1092 63 1054 21 b 910 138 933 21 900 63 b 983 247 917 183 942 219 b 1099 118 1067 213 1107 172 m 1200 142 b 1093 293 1208 206 1183 251 b 1217 414 1167 315 1210 365 b 1072 544 1229 500 1156 544 b 874 403 982 544 886 493 b 956 263 867 351 889 303 b 815 131 879 239 824 189 b 981 -14 801 32 879 -14 b 1200 142 1082 -14 1186 40 m 292 451 b 407 581 357 451 396 497 b 315 693 417 651 382 693 l 289 693 l 293 726 l 306 726 b 432 849 372 726 421 767 b 369 939 440 907 408 939 b 299 857 324 939 297 918 b 251 821 300 840 282 821 b 207 857 229 821 207 831 b 382 975 210 924 279 975 b 531 851 482 975 540 925 b 389 714 521 786 468 732 l 389 713 b 514 576 461 703 526 665 b 283 417 499 469 403 417 b 146 535 182 417 126 463 b 201 571 151 557 174 571 b 240 536 232 571 242 553 b 292 451 232 475 246 451 "},"⅝":{"ha":1250,"x_min":0,"x_max":0,"o":"m 899 986 l 424 -14 l 479 -14 l 953 986 m 1133 418 b 1068 307 1126 369 1103 326 b 972 426 994 338 965 376 b 1063 508 979 479 1019 508 b 1133 418 1110 508 1142 482 m 1099 118 b 993 21 1092 63 1054 21 b 910 138 933 21 900 63 b 983 247 917 183 942 219 b 1099 118 1067 213 1107 172 m 1200 142 b 1093 293 1208 206 1183 251 b 1217 414 1167 315 1210 365 b 1072 544 1229 500 1156 544 b 874 403 982 544 886 493 b 956 263 867 351 889 303 b 815 131 879 239 824 189 b 981 -14 801 32 879 -14 b 1200 142 1082 -14 1186 40 m 263 967 l 549 967 l 538 888 l 286 888 l 265 761 b 517 588 492 788 526 658 b 285 417 503 488 414 417 b 142 521 188 417 135 468 b 203 571 146 550 167 571 b 242 536 233 571 244 553 b 289 456 228 476 249 456 b 411 579 351 456 400 496 b 276 721 422 656 390 721 l 219 721 "},"⅞":{"ha":1250,"x_min":0,"x_max":0,"o":"m 843 986 l 368 -14 l 424 -14 l 897 986 m 1133 418 b 1068 307 1126 369 1103 326 b 972 426 994 338 965 376 b 1063 508 979 479 1019 508 b 1133 418 1110 508 1142 482 m 1099 118 b 993 21 1092 63 1054 21 b 910 138 933 21 900 63 b 983 247 917 183 942 219 b 1099 118 1067 213 1107 172 m 1200 142 b 1093 293 1208 206 1183 251 b 1217 414 1167 315 1210 365 b 1072 544 1229 500 1156 544 b 874 403 982 544 886 493 b 956 263 867 351 889 303 b 815 131 879 239 824 189 b 981 -14 801 32 879 -14 b 1200 142 1082 -14 1186 40 m 299 431 l 560 939 l 564 972 l 210 972 l 185 826 l 210 826 b 290 893 226 882 235 893 l 499 893 l 182 431 l 299 431 "},"⅓":{"ha":1250,"x_min":0,"x_max":0,"o":"m 979 21 b 1094 150 1044 21 1082 67 b 1001 263 1104 221 1068 263 l 975 263 l 979 296 l 992 296 b 1119 418 1058 296 1108 336 b 1056 508 1128 476 1094 508 b 986 426 1010 508 985 488 b 938 390 986 410 968 390 b 894 426 915 390 893 400 b 1069 544 896 493 967 544 b 1217 421 1169 544 1228 494 b 1075 283 1207 356 1154 301 l 1075 282 b 1200 146 1147 272 1213 235 b 969 -14 1185 39 1089 -14 b 832 104 868 -14 814 32 b 889 140 838 126 861 140 b 926 106 919 140 929 122 b 979 21 918 44 933 21 m 338 518 b 424 451 331 472 342 460 l 421 431 l 129 431 l 132 451 b 238 518 217 460 231 472 l 285 860 b 197 910 292 906 276 910 l 200 931 l 394 981 l 403 981 m 899 986 l 424 -14 l 479 -14 l 953 986 "},"⅔":{"ha":1250,"x_min":0,"x_max":0,"o":"m 979 21 b 1094 150 1044 21 1082 67 b 1001 263 1104 221 1068 263 l 975 263 l 979 296 l 992 296 b 1119 418 1058 296 1108 336 b 1056 508 1128 476 1094 508 b 986 426 1010 508 985 488 b 938 390 986 410 968 390 b 894 426 915 390 893 400 b 1069 544 896 493 967 544 b 1217 421 1169 544 1228 494 b 1075 283 1207 356 1154 301 l 1075 282 b 1200 146 1147 272 1213 235 b 969 -14 1185 39 1089 -14 b 832 104 868 -14 814 32 b 889 140 838 126 861 140 b 926 106 919 140 929 122 b 979 21 918 44 933 21 m 926 986 l 451 -14 l 507 -14 l 981 986 m 381 944 b 439 822 435 944 447 889 b 133 464 428 747 392 635 l 129 431 l 488 431 l 499 510 l 244 510 b 540 832 496 668 531 764 b 394 981 550 906 503 981 b 214 876 282 981 222 929 b 258 826 210 847 225 826 b 307 863 289 826 306 846 b 381 944 311 924 332 944 "},"⁰":{"ha":556,"x_min":0,"x_max":0,"o":"m 206 974 b 453 1253 225 1115 311 1253 b 622 974 594 1253 642 1115 b 375 694 603 832 517 694 b 206 974 233 694 185 828 m 314 974 b 379 729 293 828 300 729 b 514 974 458 729 493 828 b 449 1217 535 1119 528 1217 b 314 974 369 1217 335 1119 "},"⁴":{"ha":556,"x_min":0,"x_max":0,"o":"m 226 892 l 475 1158 l 438 892 m 611 892 l 538 892 l 589 1258 l 524 1258 l 196 906 l 185 825 l 428 825 l 411 708 l 511 708 l 528 825 l 601 825 "},"⁵":{"ha":556,"x_min":0,"x_max":0,"o":"m 326 1244 l 613 1244 l 601 1165 l 350 1165 l 329 1039 b 581 865 556 1065 590 936 b 349 694 567 765 478 694 b 206 799 251 694 199 746 b 267 849 210 828 231 849 b 306 814 297 849 310 831 b 353 733 292 754 313 733 b 475 857 415 733 464 774 b 342 999 486 933 456 999 l 285 999 "},"⁶":{"ha":556,"x_min":0,"x_max":0,"o":"m 483 869 b 381 729 471 775 432 729 b 326 967 308 729 294 847 b 415 1001 354 989 388 1001 b 483 869 471 1001 496 953 m 593 878 b 460 1047 607 969 556 1047 b 331 1003 424 1047 379 1039 b 565 1232 358 1090 414 1190 l 563 1261 b 211 914 382 1228 236 1092 b 375 694 194 796 250 694 b 593 878 475 694 578 767 "},"⁷":{"ha":556,"x_min":0,"x_max":0,"o":"m 367 708 l 628 1217 l 632 1250 l 278 1250 l 253 1104 l 278 1104 b 358 1171 294 1160 303 1171 l 567 1171 l 250 708 l 367 708 "},"⁸":{"ha":556,"x_min":0,"x_max":0,"o":"m 521 1126 b 456 1015 515 1078 490 1035 b 360 1135 382 1046 353 1085 b 451 1217 368 1188 408 1217 b 521 1126 499 1217 531 1190 m 488 826 b 381 729 481 771 442 729 b 299 846 321 729 289 771 b 371 956 306 892 329 928 b 488 826 456 921 496 881 m 589 850 b 482 1001 597 914 572 960 b 606 1122 556 1024 599 1074 b 460 1253 618 1208 543 1253 b 263 1111 369 1253 275 1201 b 344 971 256 1060 278 1011 b 203 839 267 947 211 897 b 369 694 189 740 268 694 b 589 850 471 694 574 749 "},"⁹":{"ha":556,"x_min":0,"x_max":0,"o":"m 342 1072 b 444 1211 356 1167 393 1211 b 499 975 517 1211 531 1094 b 411 939 472 953 439 939 b 342 1072 356 939 331 989 m 232 1064 b 365 894 219 972 269 894 b 496 939 401 894 447 903 b 260 710 467 851 413 751 l 263 681 b 615 1028 444 714 590 850 b 451 1247 631 1146 576 1247 b 232 1064 351 1247 247 1175 "},"₀":{"ha":556,"x_min":0,"x_max":0,"o":"m 67 -12 b 314 267 88 129 172 267 b 483 -12 456 267 504 129 b 236 -292 464 -154 378 -292 b 67 -12 94 -292 46 -158 m 175 -12 b 240 -257 154 -158 161 -257 b 375 -12 319 -257 354 -158 b 310 231 396 133 389 231 b 175 -12 231 231 196 133 "},"₁":{"ha":556,"x_min":0,"x_max":0,"o":"m 300 -190 b 386 -257 294 -236 304 -249 l 383 -278 l 92 -278 l 94 -257 b 200 -190 179 -249 194 -236 l 249 151 b 160 201 254 197 239 201 l 163 222 l 357 272 l 365 272 "},"₂":{"ha":556,"x_min":0,"x_max":0,"o":"m 310 236 b 368 114 364 236 378 181 b 64 -244 357 39 321 -74 l 58 -278 l 417 -278 l 428 -199 l 174 -199 b 469 124 425 -40 460 56 b 324 272 479 197 432 272 b 144 168 211 272 151 221 b 188 118 140 139 154 118 b 236 154 218 118 235 138 b 310 236 240 215 261 236 "},"₃":{"ha":556,"x_min":0,"x_max":0,"o":"m 218 -257 b 335 -128 283 -257 322 -211 b 242 -15 344 -57 308 -15 l 215 -15 l 219 18 l 232 18 b 360 140 299 18 347 58 b 296 231 368 199 335 231 b 226 149 250 231 225 210 b 178 113 226 132 208 113 b 135 149 156 113 133 122 b 308 267 136 215 206 267 b 457 143 408 267 467 217 b 315 6 447 78 394 24 l 315 4 b 440 -132 388 -6 453 -43 b 210 -292 425 -239 329 -292 b 72 -174 108 -292 54 -246 b 129 -137 78 -151 101 -137 b 167 -172 160 -137 169 -156 b 218 -257 158 -233 172 -257 "},"₄":{"ha":556,"x_min":0,"x_max":0,"o":"m 88 -94 l 336 172 l 299 -94 m 472 -94 l 399 -94 l 450 272 l 385 272 l 57 -81 l 46 -161 l 289 -161 l 272 -278 l 372 -278 l 389 -161 l 463 -161 "},"₅":{"ha":556,"x_min":0,"x_max":0,"o":"m 189 258 l 475 258 l 464 179 l 213 179 l 190 53 b 442 -121 418 79 451 -50 b 210 -292 428 -221 339 -292 b 68 -187 113 -292 60 -240 b 129 -137 71 -158 93 -137 b 167 -172 160 -137 171 -156 b 214 -253 153 -232 174 -253 b 336 -129 276 -253 325 -212 b 203 13 347 -53 317 13 l 146 13 "},"₆":{"ha":556,"x_min":0,"x_max":0,"o":"m 346 -117 b 242 -257 332 -211 293 -257 b 189 -19 169 -257 156 -139 b 276 15 215 3 249 15 b 346 -117 332 15 357 -33 m 456 -108 b 322 61 468 -17 418 61 b 192 17 286 61 240 53 b 426 246 219 104 275 204 l 424 275 b 72 -72 243 242 97 106 b 236 -292 56 -190 111 -292 b 456 -108 336 -292 439 -219 "},"₇":{"ha":556,"x_min":0,"x_max":0,"o":"m 228 -278 l 489 231 l 493 264 l 139 264 l 114 118 l 139 118 b 219 185 156 174 164 185 l 428 185 l 111 -278 l 228 -278 "},"₈":{"ha":556,"x_min":0,"x_max":0,"o":"m 383 140 b 317 29 376 92 351 49 b 222 149 244 60 214 99 b 313 231 229 201 269 231 b 383 140 360 231 392 204 m 349 -160 b 242 -257 342 -215 303 -257 b 160 -140 182 -257 150 -215 b 232 -31 167 -94 192 -58 b 349 -160 317 -65 357 -106 m 450 -136 b 343 15 458 -72 433 -26 b 467 136 417 38 460 88 b 321 267 479 222 404 267 b 124 125 231 267 136 215 b 206 -15 117 74 139 25 b 65 -147 129 -39 74 -89 b 231 -292 51 -246 129 -292 b 450 -136 332 -292 435 -237 "},"₉":{"ha":556,"x_min":0,"x_max":0,"o":"m 203 86 b 306 225 217 181 254 225 b 360 -11 378 225 392 108 b 272 -47 333 -33 300 -47 b 203 86 217 -47 192 3 m 93 78 b 226 -92 81 -14 131 -92 b 357 -47 263 -92 308 -83 b 122 -276 328 -135 274 -235 l 125 -306 b 476 42 306 -272 451 -136 b 313 261 493 160 438 261 b 93 78 213 261 110 189 "},"":{"ha":556,"x_min":0,"x_max":0,"o":"m 296 -290 b 475 -242 372 -287 439 -261 l 497 -121 l 474 -121 b 285 -256 449 -187 388 -256 b 144 -12 182 -256 122 -171 b 353 231 167 147 250 231 b 504 96 456 231 497 161 l 528 96 l 539 215 b 374 265 508 233 450 263 l 394 406 l 346 406 l 325 264 b 36 -12 175 251 60 150 b 247 -289 14 -176 100 -278 l 228 -431 l 276 -431 "},"":{"ha":556,"x_min":0,"x_max":0,"o":"m 340 265 b 469 229 385 263 432 250 l 457 86 l 432 86 b 322 228 428 186 394 228 b 218 149 282 228 226 211 b 301 49 210 94 246 72 b 449 -124 381 15 463 -25 b 263 -289 435 -224 358 -279 l 243 -431 l 194 -431 l 214 -290 b 67 -250 158 -289 101 -276 l 74 -101 l 99 -101 b 225 -254 94 -225 164 -254 b 343 -160 282 -254 335 -221 b 243 -46 353 -96 300 -72 b 113 124 164 -10 99 28 b 292 265 124 200 193 257 l 313 406 l 361 406 "},"":{"ha":556,"x_min":0,"x_max":0,"o":"m 174 -221 b 256 -149 179 -182 217 -149 b 317 -221 294 -149 322 -182 b 236 -292 311 -258 275 -292 b 174 -221 197 -292 168 -258 "},"":{"ha":556,"x_min":0,"x_max":0,"o":"m 244 -154 b 317 -261 317 -154 322 -218 b 153 -454 303 -360 217 -433 l 142 -426 b 225 -286 240 -385 279 -286 b 169 -219 192 -286 164 -261 b 244 -154 175 -185 210 -154 "},"":{"ha":819,"x_min":0,"x_max":0,"o":"m 325 983 b 436 1069 243 1050 393 1153 l 542 860 l 511 833 m 578 757 l 463 757 l 135 125 b 6 42 107 69 75 56 l 0 0 l 306 0 l 311 42 b 238 167 214 56 203 96 l 269 229 l 492 229 l 508 167 b 450 42 526 97 521 56 l 444 0 l 819 0 l 825 42 b 760 125 786 63 774 79 m 414 519 l 472 292 l 299 292 l 411 519 "},"":{"ha":819,"x_min":0,"x_max":0,"o":"m 749 983 b 663 1069 850 1050 728 1153 l 496 860 l 521 833 m 578 757 l 463 757 l 135 125 b 6 42 107 69 75 56 l 0 0 l 306 0 l 311 42 b 238 167 214 56 203 96 l 269 229 l 492 229 l 508 167 b 450 42 526 97 521 56 l 444 0 l 819 0 l 825 42 b 760 125 786 63 774 79 m 414 519 l 472 292 l 299 292 l 411 519 "},"":{"ha":819,"x_min":0,"x_max":0,"o":"m 368 833 l 299 833 l 507 1083 l 590 1083 l 729 833 l 660 833 l 528 938 m 578 757 l 463 757 l 135 125 b 6 42 107 69 75 56 l 0 0 l 306 0 l 311 42 b 238 167 214 56 203 96 l 269 229 l 492 229 l 508 167 b 450 42 526 97 521 56 l 444 0 l 819 0 l 825 42 b 760 125 786 63 774 79 m 414 519 l 472 292 l 299 292 l 411 519 "},"":{"ha":819,"x_min":0,"x_max":0,"o":"m 250 875 b 442 1056 288 935 378 1056 b 657 1000 497 1056 603 1000 b 767 1042 706 1000 740 1014 l 811 1014 b 628 847 774 956 692 847 b 407 903 563 847 472 903 b 294 847 357 903 321 874 m 578 757 l 463 757 l 135 125 b 6 42 107 69 75 56 l 0 0 l 306 0 l 311 42 b 238 167 214 56 203 96 l 269 229 l 492 229 l 508 167 b 450 42 526 97 521 56 l 444 0 l 819 0 l 825 42 b 760 125 786 63 774 79 m 414 519 l 472 292 l 299 292 l 411 519 "},"":{"ha":819,"x_min":0,"x_max":0,"o":"m 304 924 b 406 1014 311 976 356 1014 b 483 924 457 1014 490 976 b 381 836 476 871 432 836 b 304 924 331 836 297 871 m 575 924 b 678 1014 582 976 626 1014 b 754 924 728 1014 761 976 b 653 836 747 871 703 836 b 575 924 601 836 568 871 m 578 757 l 463 757 l 135 125 b 6 42 107 69 75 56 l 0 0 l 306 0 l 311 42 b 238 167 214 56 203 96 l 269 229 l 492 229 l 508 167 b 450 42 526 97 521 56 l 444 0 l 819 0 l 825 42 b 760 125 786 63 774 79 m 414 519 l 472 292 l 299 292 l 411 519 "},"":{"ha":819,"x_min":0,"x_max":0,"o":"m 400 864 b 456 743 392 810 415 765 l 135 125 b 6 42 107 69 75 56 l 0 0 l 306 0 l 311 42 b 238 167 214 56 203 96 l 265 222 l 493 222 l 508 167 b 450 42 526 97 521 56 l 444 0 l 819 0 l 825 42 b 760 125 786 63 774 79 l 581 746 b 668 864 625 768 661 811 b 553 999 679 939 628 999 b 400 864 476 999 411 939 m 414 519 l 474 299 l 303 299 l 411 519 m 458 864 b 544 940 464 907 503 940 b 610 864 588 940 615 907 b 522 789 604 822 565 789 b 458 864 481 789 453 822 "},"":{"ha":1042,"x_min":0,"x_max":0,"o":"m 763 688 l 853 688 b 1006 542 929 688 1008 654 l 1054 542 l 1076 750 l 600 750 l 147 125 b 6 42 108 69 76 56 l 0 0 l 292 0 l 297 42 b 258 167 203 56 210 96 l 339 278 l 483 278 l 465 153 b 367 42 454 76 424 56 l 361 0 l 986 0 l 1029 208 l 981 208 b 779 63 950 96 856 63 l 675 63 l 715 347 l 743 347 b 818 215 778 347 822 326 l 867 215 l 913 542 l 864 542 b 751 410 836 431 786 410 l 724 410 m 518 526 l 492 340 l 382 340 l 515 526 "},"":{"ha":778,"x_min":0,"x_max":0,"o":"m 479 56 b 329 375 396 56 293 111 b 569 694 367 639 486 694 b 767 472 694 694 756 583 l 815 472 l 831 681 b 565 764 781 715 704 764 b 93 375 371 764 135 667 b 414 -12 56 103 233 0 l 403 -69 b 446 -215 385 -160 456 -142 b 315 -306 438 -274 358 -292 l 319 -368 b 596 -197 422 -354 582 -285 b 461 -56 614 -75 454 -106 l 467 -14 b 746 69 599 -11 686 35 l 789 278 l 740 278 b 479 56 696 167 632 56 "},"":{"ha":778,"x_min":0,"x_max":0,"o":"m 404 410 l 432 410 b 600 542 508 410 572 431 l 649 542 l 603 215 l 554 215 b 424 347 558 326 500 347 l 396 347 l 356 63 l 515 63 b 717 208 592 63 686 96 l 765 208 l 722 0 l 42 0 l 47 42 b 146 153 104 56 135 76 l 208 597 b 140 708 219 674 194 694 l 146 750 l 813 750 l 790 542 l 742 542 b 589 688 744 654 665 688 l 443 688 m 354 983 b 465 1069 272 1050 422 1153 l 571 860 l 540 833 "},"":{"ha":778,"x_min":0,"x_max":0,"o":"m 404 410 l 432 410 b 600 542 508 410 572 431 l 649 542 l 603 215 l 554 215 b 424 347 558 326 500 347 l 396 347 l 356 63 l 515 63 b 717 208 592 63 686 96 l 765 208 l 722 0 l 42 0 l 47 42 b 146 153 104 56 135 76 l 208 597 b 140 708 219 674 194 694 l 146 750 l 813 750 l 790 542 l 742 542 b 589 688 744 654 665 688 l 443 688 m 772 983 b 686 1069 874 1050 751 1153 l 519 860 l 544 833 "},"":{"ha":778,"x_min":0,"x_max":0,"o":"m 404 410 l 432 410 b 600 542 508 410 572 431 l 649 542 l 603 215 l 554 215 b 424 347 558 326 500 347 l 396 347 l 356 63 l 515 63 b 717 208 592 63 686 96 l 765 208 l 722 0 l 42 0 l 47 42 b 146 153 104 56 135 76 l 208 597 b 140 708 219 674 194 694 l 146 750 l 813 750 l 790 542 l 742 542 b 589 688 744 654 665 688 l 443 688 m 404 833 l 335 833 l 543 1083 l 626 1083 l 765 833 l 696 833 l 564 938 "},"":{"ha":778,"x_min":0,"x_max":0,"o":"m 404 410 l 432 410 b 600 542 508 410 572 431 l 649 542 l 603 215 l 554 215 b 424 347 558 326 500 347 l 396 347 l 356 63 l 515 63 b 717 208 592 63 686 96 l 765 208 l 722 0 l 42 0 l 47 42 b 146 153 104 56 135 76 l 208 597 b 140 708 219 674 194 694 l 146 750 l 813 750 l 790 542 l 742 542 b 589 688 744 654 665 688 l 443 688 m 329 924 b 431 1014 336 976 381 1014 b 508 924 482 1014 515 976 b 406 836 501 871 457 836 b 329 924 356 836 322 871 m 600 924 b 703 1014 607 976 651 1014 b 779 924 753 1014 786 976 b 678 836 772 871 728 836 b 600 924 626 836 593 871 "},"":{"ha":472,"x_min":0,"x_max":0,"o":"m 386 153 b 454 42 375 76 400 56 l 449 0 l 60 0 l 65 42 b 164 153 122 56 153 76 l 226 597 b 158 708 238 674 213 694 l 164 750 l 553 750 l 547 708 b 449 597 490 694 460 674 m 188 983 b 299 1069 106 1050 256 1153 l 404 860 l 374 833 "},"":{"ha":472,"x_min":0,"x_max":0,"o":"m 368 153 b 436 42 357 76 382 56 l 431 0 l 42 0 l 47 42 b 146 153 104 56 135 76 l 208 597 b 140 708 219 674 194 694 l 146 750 l 535 750 l 529 708 b 431 597 472 694 442 674 m 575 983 b 489 1069 676 1050 554 1153 l 322 860 l 347 833 "},"":{"ha":472,"x_min":0,"x_max":0,"o":"m 367 153 b 435 42 356 76 381 56 l 429 0 l 40 0 l 46 42 b 144 153 103 56 133 76 l 207 597 b 139 708 218 674 193 694 l 144 750 l 533 750 l 528 708 b 429 597 471 694 440 674 m 207 833 l 138 833 l 346 1083 l 429 1083 l 568 833 l 499 833 l 367 938 "},"":{"ha":472,"x_min":0,"x_max":0,"o":"m 371 153 b 439 42 360 76 385 56 l 433 0 l 44 0 l 50 42 b 149 153 107 56 138 76 l 211 597 b 143 708 222 674 197 694 l 149 750 l 538 750 l 532 708 b 433 597 475 694 444 674 m 140 924 b 242 1014 147 976 192 1014 b 319 924 293 1014 326 976 b 217 836 313 871 268 836 b 140 924 167 836 133 871 m 411 924 b 514 1014 418 976 463 1014 b 590 924 564 1014 597 976 b 489 836 583 871 539 836 b 411 924 438 836 404 871 "},"":{"ha":917,"x_min":0,"x_max":0,"o":"m 42 0 l 47 42 b 146 153 104 56 135 76 l 174 347 l 90 347 l 99 410 l 182 410 l 208 597 b 140 708 219 674 194 694 l 146 750 l 493 750 b 926 375 792 750 964 639 b 389 0 893 131 688 0 m 397 63 b 690 375 594 63 665 197 b 471 688 721 590 676 688 l 443 688 l 404 410 l 529 410 l 521 347 l 396 347 l 356 63 "},"":{"ha":931,"x_min":0,"x_max":0,"o":"m 792 597 b 682 708 803 674 792 694 l 688 750 l 1007 750 l 1001 708 b 868 597 917 694 879 674 l 785 0 l 653 0 l 315 569 l 257 153 b 367 42 246 76 257 56 l 361 0 l 42 0 l 47 42 b 181 153 132 56 169 76 l 243 597 b 140 708 254 674 222 694 l 146 750 l 465 750 l 749 292 m 329 875 b 521 1056 367 935 457 1056 b 736 1000 576 1056 682 1000 b 846 1042 785 1000 819 1014 l 890 1014 b 707 847 853 956 771 847 b 486 903 642 847 551 903 b 374 847 436 903 400 874 "},"":{"ha":917,"x_min":0,"x_max":0,"o":"m 93 375 b 565 764 129 625 346 764 b 926 375 785 764 963 625 b 456 -14 892 125 675 -14 b 93 375 236 -14 58 125 m 329 375 b 465 56 293 111 369 56 b 690 375 561 56 654 111 b 556 694 728 639 651 694 b 329 375 460 694 367 639 m 388 983 b 499 1069 306 1050 456 1153 l 604 860 l 574 833 "},"":{"ha":917,"x_min":0,"x_max":0,"o":"m 93 375 b 565 764 129 625 346 764 b 926 375 785 764 963 625 b 456 -14 892 125 675 -14 b 93 375 236 -14 58 125 m 329 375 b 465 56 293 111 369 56 b 690 375 561 56 654 111 b 556 694 728 639 651 694 b 329 375 460 694 367 639 m 808 983 b 722 1069 910 1050 788 1153 l 556 860 l 581 833 "},"":{"ha":917,"x_min":0,"x_max":0,"o":"m 93 375 b 565 764 129 625 346 764 b 926 375 785 764 963 625 b 456 -14 892 125 675 -14 b 93 375 236 -14 58 125 m 329 375 b 465 56 293 111 369 56 b 690 375 561 56 654 111 b 556 694 728 639 651 694 b 329 375 460 694 367 639 m 428 833 l 358 833 l 567 1083 l 650 1083 l 789 833 l 719 833 l 588 938 "},"":{"ha":917,"x_min":0,"x_max":0,"o":"m 93 375 b 565 764 129 625 346 764 b 926 375 785 764 963 625 b 456 -14 892 125 675 -14 b 93 375 236 -14 58 125 m 329 375 b 465 56 293 111 369 56 b 690 375 561 56 654 111 b 556 694 728 639 651 694 b 329 375 460 694 367 639 m 314 875 b 506 1056 351 935 442 1056 b 721 1000 561 1056 667 1000 b 831 1042 769 1000 804 1014 l 875 1014 b 692 847 838 956 756 847 b 471 903 626 847 536 903 b 358 847 421 903 385 874 "},"":{"ha":917,"x_min":0,"x_max":0,"o":"m 93 375 b 565 764 129 625 346 764 b 926 375 785 764 963 625 b 456 -14 892 125 675 -14 b 93 375 236 -14 58 125 m 329 375 b 465 56 293 111 369 56 b 690 375 561 56 654 111 b 556 694 728 639 651 694 b 329 375 460 694 367 639 m 367 924 b 468 1014 374 976 418 1014 b 546 924 519 1014 553 976 b 443 836 539 871 494 836 b 367 924 393 836 360 871 m 638 924 b 740 1014 644 976 689 1014 b 817 924 790 1014 824 976 b 715 836 810 871 765 836 b 638 924 664 836 631 871 "},"":{"ha":1214,"x_min":0,"x_max":0,"o":"m 840 410 l 868 410 b 1036 542 944 410 1008 431 l 1085 542 l 1039 215 l 990 215 b 860 347 994 326 936 347 l 832 347 l 792 63 l 951 63 b 1153 208 1028 63 1122 96 l 1201 208 l 1158 0 l 569 0 b 456 -14 536 -8 496 -14 b 93 375 236 -14 58 125 b 565 764 129 625 346 764 b 676 750 606 764 646 758 l 1249 750 l 1226 542 l 1178 542 b 1025 688 1181 654 1101 688 l 879 688 m 329 375 b 465 56 293 111 369 56 b 611 375 561 56 575 111 b 556 694 649 639 651 694 b 329 375 460 694 367 639 "},"":{"ha":917,"x_min":0,"x_max":0,"o":"m 172 93 b 93 375 110 160 76 254 b 565 764 129 625 346 764 b 819 682 664 764 753 736 l 901 757 l 942 704 l 865 635 b 926 375 917 571 942 483 b 456 -14 892 125 675 -14 b 222 51 367 -14 285 8 l 142 -21 l 99 26 m 329 375 b 321 228 321 315 319 268 l 694 568 b 556 694 676 668 621 694 b 329 375 460 694 367 639 m 690 375 b 700 485 697 417 699 453 l 333 151 b 465 56 356 76 407 56 b 690 375 561 56 654 111 "},"":{"ha":972,"x_min":0,"x_max":0,"o":"m 826 597 b 710 708 838 674 819 694 l 715 750 l 1049 750 l 1043 708 b 903 597 944 694 914 674 l 865 333 b 476 -14 832 97 661 -14 b 157 333 247 -14 125 107 l 194 597 b 126 708 206 674 181 694 l 132 750 l 521 750 l 515 708 b 417 597 458 694 428 674 l 382 347 b 531 69 353 139 413 69 b 792 347 690 69 765 167 m 439 983 b 550 1069 357 1050 507 1153 l 656 860 l 625 833 "},"":{"ha":972,"x_min":0,"x_max":0,"o":"m 826 597 b 710 708 838 674 819 694 l 715 750 l 1049 750 l 1043 708 b 903 597 944 694 914 674 l 865 333 b 476 -14 832 97 661 -14 b 157 333 247 -14 125 107 l 194 597 b 126 708 206 674 181 694 l 132 750 l 521 750 l 515 708 b 417 597 458 694 428 674 l 382 347 b 531 69 353 139 413 69 b 792 347 690 69 765 167 m 861 983 b 775 1069 963 1050 840 1153 l 608 860 l 633 833 "},"":{"ha":972,"x_min":0,"x_max":0,"o":"m 826 597 b 710 708 838 674 819 694 l 715 750 l 1049 750 l 1043 708 b 903 597 944 694 914 674 l 865 333 b 476 -14 832 97 661 -14 b 157 333 247 -14 125 107 l 194 597 b 126 708 206 674 181 694 l 132 750 l 521 750 l 515 708 b 417 597 458 694 428 674 l 382 347 b 531 69 353 139 413 69 b 792 347 690 69 765 167 m 489 833 l 419 833 l 628 1083 l 711 1083 l 850 833 l 781 833 l 649 938 "},"":{"ha":972,"x_min":0,"x_max":0,"o":"m 826 597 b 710 708 838 674 819 694 l 715 750 l 1049 750 l 1043 708 b 903 597 944 694 914 674 l 865 333 b 476 -14 832 97 661 -14 b 157 333 247 -14 125 107 l 194 597 b 126 708 206 674 181 694 l 132 750 l 521 750 l 515 708 b 417 597 458 694 428 674 l 382 347 b 531 69 353 139 413 69 b 792 347 690 69 765 167 m 422 924 b 524 1014 429 976 474 1014 b 601 924 575 1014 608 976 b 499 836 594 871 550 836 b 422 924 449 836 415 871 m 693 924 b 796 1014 700 976 744 1014 b 872 924 846 1014 879 976 b 771 836 865 871 821 836 b 693 924 719 836 686 871 "},"":{"ha":778,"x_min":0,"x_max":0,"o":"m 329 226 l 319 153 b 221 42 308 76 278 56 l 215 0 l 604 0 l 610 42 b 542 153 556 56 531 76 l 561 293 l 754 625 b 890 708 786 681 821 694 l 896 750 l 590 750 l 585 708 b 650 576 682 694 690 644 l 506 333 l 503 333 l 408 583 b 446 708 382 650 375 694 l 451 750 l 90 750 l 85 708 b 164 625 124 688 144 669 m 761 983 b 675 1069 863 1050 740 1153 l 508 860 l 533 833 "},"":{"ha":792,"x_min":0,"x_max":0,"o":"m 406 222 b 586 375 503 222 569 253 b 463 528 603 486 574 528 l 421 528 l 378 222 m 208 597 b 140 708 219 674 194 694 l 146 750 l 535 750 l 529 708 b 431 597 472 694 442 674 l 429 590 l 526 590 b 815 375 735 590 838 528 b 397 160 796 236 689 160 l 369 160 l 368 153 b 436 42 357 76 382 56 l 431 0 l 42 0 l 47 42 b 146 153 104 56 135 76 "},"":{"ha":778,"x_min":0,"x_max":0,"o":"m 329 226 l 319 153 b 221 42 308 76 278 56 l 215 0 l 604 0 l 610 42 b 542 153 556 56 531 76 l 561 293 l 754 625 b 890 708 786 681 821 694 l 896 750 l 590 750 l 585 708 b 650 576 682 694 690 644 l 506 333 l 503 333 l 408 583 b 446 708 382 650 375 694 l 451 750 l 90 750 l 85 708 b 164 625 124 688 144 669 m 325 924 b 426 1014 332 976 376 1014 b 504 924 478 1014 511 976 b 401 836 497 871 453 836 b 325 924 351 836 318 871 m 596 924 b 699 1014 603 976 647 1014 b 775 924 749 1014 782 976 b 674 836 768 871 724 836 b 596 924 622 836 589 871 "},"\r":{"ha":319,"x_min":0,"x_max":0,"o":""},"€":{"ha":1042,"x_min":0,"x_max":0,"o":"m 249 604 b 776 986 325 832 525 986 b 1085 903 915 986 1033 938 l 1069 694 l 1021 694 b 767 917 1008 806 933 917 b 481 604 638 917 532 799 l 682 604 l 671 528 l 463 528 l 457 486 b 451 438 454 469 451 453 l 658 438 l 647 361 l 447 361 b 646 56 447 171 518 56 b 963 278 813 56 918 167 l 1011 278 l 968 69 b 636 -14 907 35 775 -14 b 215 361 388 -14 231 136 l 119 361 l 131 438 l 215 438 b 221 486 215 453 218 469 b 228 528 222 500 225 514 l 143 528 l 154 604 "},"­":{"ha":778,"x_min":0,"x_max":0,"o":"m 710 410 l 699 333 l 171 333 l 182 410 "},"":{"ha":625,"x_min":0,"x_max":0,"o":"m 424 792 b 640 1001 549 792 626 900 l 574 1001 b 440 914 549 931 483 914 b 332 1001 397 914 338 931 l 265 1001 b 424 792 251 900 299 792 "},"":{"ha":472,"x_min":0,"x_max":0,"o":"m 213 -50 b 318 -203 315 -50 326 -142 b 83 -478 299 -343 172 -447 l 61 -433 b 181 -247 200 -372 257 -247 b 104 -146 131 -247 94 -211 b 213 -50 111 -96 163 -50 "},"":{"ha":472,"x_min":0,"x_max":0,"o":"m 213 -50 b 318 -203 315 -50 326 -142 b 83 -478 299 -343 172 -447 l 61 -433 b 181 -247 200 -372 257 -247 b 104 -146 131 -247 94 -211 b 213 -50 111 -96 163 -50 "},"":{"ha":806,"x_min":0,"x_max":0,"o":"m 242 854 b 343 944 249 907 293 944 b 421 854 394 944 428 907 b 318 767 414 801 369 767 b 242 854 268 767 235 801 m 624 854 b 726 944 631 907 675 944 b 803 854 776 944 810 907 b 701 767 796 801 751 767 b 624 854 650 767 617 801 m 694 1046 b 579 1106 758 1125 614 1189 l 474 854 l 515 833 "},"":{"ha":806,"x_min":0,"x_max":0,"o":"m 803 854 b 726 944 810 907 776 944 b 624 854 675 944 631 907 b 701 767 617 801 650 767 b 803 854 751 767 796 801 m 421 854 b 343 944 428 907 394 944 b 242 854 293 944 249 907 b 318 767 235 801 268 767 b 421 854 369 767 414 801 m 403 1046 b 535 1106 361 1125 525 1189 l 571 854 l 524 833 "},"":{"ha":667,"x_min":0,"x_max":0,"o":"m 486 976 b 618 1036 444 1056 608 1119 l 654 785 l 607 764 m 264 976 b 396 1036 222 1056 386 1119 l 432 785 l 385 764 "},"":{"ha":653,"x_min":0,"x_max":0,"o":"m 288 764 l 218 764 l 426 1014 l 510 1014 l 649 764 l 579 764 l 447 868 "},"ˉ":{"ha":708,"x_min":0,"x_max":0,"o":"m 708 896 l 697 819 l 239 819 l 250 896 "},"":{"ha":513,"x_min":0,"x_max":0,"o":"m 526 1192 b 440 1278 628 1258 506 1361 l 275 1068 l 299 1042 "},"":{"ha":625,"x_min":0,"x_max":0,"o":"m 463 1069 b 679 1279 588 1069 665 1178 l 613 1279 b 479 1192 588 1208 522 1192 b 371 1279 436 1192 376 1208 l 304 1279 b 463 1069 290 1178 338 1069 "},"":{"ha":653,"x_min":0,"x_max":0,"o":"m 361 1292 l 292 1292 l 431 1042 l 514 1042 l 722 1292 l 653 1292 l 493 1188 "},"":{"ha":694,"x_min":0,"x_max":0,"o":"m 281 1132 b 382 1222 288 1185 332 1222 b 460 1132 433 1222 467 1185 b 357 1044 453 1079 408 1044 b 281 1132 307 1044 274 1079 m 551 1132 b 654 1222 558 1185 603 1222 b 731 1132 704 1222 738 1185 b 629 1044 724 1079 679 1044 b 551 1132 578 1044 544 1079 "},"":{"ha":806,"x_min":0,"x_max":0,"o":"m 281 1132 b 382 1222 288 1185 332 1222 b 460 1132 433 1222 467 1185 b 357 1044 453 1079 408 1044 b 281 1132 307 1044 274 1079 m 663 1132 b 765 1222 669 1185 714 1222 b 842 1132 815 1222 849 1185 b 740 1044 835 1079 790 1044 b 663 1132 689 1044 656 1079 m 733 1324 b 618 1383 797 1403 653 1467 l 513 1132 l 554 1111 "},"":{"ha":806,"x_min":0,"x_max":0,"o":"m 842 1132 b 765 1222 849 1185 815 1222 b 663 1132 714 1222 669 1185 b 740 1044 656 1079 689 1044 b 842 1132 790 1044 835 1079 m 460 1132 b 382 1222 467 1185 433 1222 b 281 1132 332 1222 288 1185 b 357 1044 274 1079 307 1044 b 460 1132 408 1044 453 1079 m 442 1324 b 574 1383 400 1403 564 1467 l 610 1132 l 563 1111 "},"":{"ha":667,"x_min":0,"x_max":0,"o":"m 494 1254 b 379 1314 558 1333 414 1397 l 274 1063 l 315 1042 m 717 1254 b 601 1314 781 1333 636 1397 l 496 1063 l 538 1042 "},"":{"ha":513,"x_min":0,"x_max":0,"o":"m 319 1192 b 431 1278 238 1258 388 1361 l 538 1068 l 506 1042 "},"":{"ha":667,"x_min":0,"x_max":0,"o":"m 525 1254 b 657 1314 483 1333 647 1397 l 693 1063 l 646 1042 m 303 1254 b 435 1314 261 1333 425 1397 l 471 1063 l 424 1042 "},"":{"ha":653,"x_min":0,"x_max":0,"o":"m 326 1042 l 257 1042 l 465 1292 l 549 1292 l 688 1042 l 618 1042 l 486 1146 "},"":{"ha":708,"x_min":0,"x_max":0,"o":"m 747 1174 l 738 1097 l 279 1097 l 289 1174 "},"Ă":{"ha":972,"x_min":0,"x_max":0,"o":"m 635 1069 b 851 1279 760 1069 838 1178 l 785 1279 b 651 1192 760 1208 694 1192 b 543 1279 608 1192 549 1208 l 476 1279 b 635 1069 463 1178 510 1069 m 686 979 l 568 979 l 156 125 b 6 42 128 68 90 56 l 0 0 l 333 0 l 339 42 b 261 188 229 56 222 104 l 329 326 l 604 326 l 633 167 b 561 42 644 94 632 56 l 556 0 l 972 0 l 978 42 b 885 125 911 63 900 79 m 521 736 l 589 389 l 358 389 l 518 736 "},"Ā":{"ha":972,"x_min":0,"x_max":0,"o":"m 881 1174 l 871 1097 l 413 1097 l 422 1174 m 686 979 l 568 979 l 156 125 b 6 42 128 68 90 56 l 0 0 l 333 0 l 339 42 b 261 188 229 56 222 104 l 329 326 l 604 326 l 633 167 b 561 42 644 94 632 56 l 556 0 l 972 0 l 978 42 b 885 125 911 63 900 79 m 521 736 l 589 389 l 358 389 l 518 736 "},"Ą":{"ha":972,"x_min":0,"x_max":0,"o":"m 686 979 l 568 979 l 156 125 b 6 42 128 68 90 56 l 0 0 l 333 0 l 339 42 b 261 188 229 56 222 104 l 324 319 l 607 319 l 633 167 b 561 42 644 94 632 56 l 556 0 l 764 0 b 717 -326 554 -135 546 -326 b 850 -271 758 -326 821 -303 l 857 -222 b 826 0 675 -293 694 -108 l 972 0 l 978 42 b 885 125 911 63 900 79 m 521 736 l 590 396 l 360 396 l 518 736 "},"Ǽ":{"ha":1222,"x_min":0,"x_max":0,"o":"m 1075 1192 b 989 1278 1176 1258 1054 1361 l 824 1068 l 847 1042 m 175 125 b 6 42 136 68 92 56 l 0 0 l 333 0 l 339 42 b 294 188 232 56 236 104 l 478 458 l 633 458 l 590 153 b 492 42 579 76 549 56 l 486 0 l 1167 0 l 1213 236 l 1164 236 b 960 63 1135 124 1036 63 l 800 63 l 856 458 l 883 458 b 1013 313 960 458 1015 424 l 1061 313 l 1111 667 l 1063 667 b 892 521 1035 556 968 521 l 864 521 l 919 910 l 1065 910 b 1214 736 1142 910 1215 849 l 1263 736 l 1289 972 l 761 972 m 672 736 l 642 521 l 521 521 l 669 736 "},"Ć":{"ha":889,"x_min":0,"x_max":0,"o":"m 883 1192 b 797 1278 985 1258 863 1361 l 632 1068 l 656 1042 m 535 56 b 346 486 382 56 308 222 b 656 917 382 750 503 917 b 910 694 822 917 897 806 l 958 694 l 974 903 b 665 986 922 938 804 986 b 110 486 374 986 150 778 b 525 -14 68 194 233 -14 b 857 69 664 -14 796 35 l 900 278 l 851 278 b 535 56 807 167 701 56 "},"Č":{"ha":889,"x_min":0,"x_max":0,"o":"m 561 1292 l 492 1292 l 631 1042 l 714 1042 l 922 1292 l 853 1292 l 693 1188 m 535 56 b 346 486 382 56 308 222 b 656 917 382 750 503 917 b 910 694 822 917 897 806 l 958 694 l 974 903 b 665 986 922 938 804 986 b 110 486 374 986 150 778 b 525 -14 68 194 233 -14 b 857 69 664 -14 796 35 l 900 278 l 851 278 b 535 56 807 167 701 56 "},"Ĉ":{"ha":889,"x_min":0,"x_max":0,"o":"m 515 1042 l 446 1042 l 654 1292 l 738 1292 l 876 1042 l 807 1042 l 675 1146 m 535 56 b 346 486 382 56 308 222 b 656 917 382 750 503 917 b 910 694 822 917 897 806 l 958 694 l 974 903 b 665 986 922 938 804 986 b 110 486 374 986 150 778 b 525 -14 68 194 233 -14 b 857 69 664 -14 796 35 l 900 278 l 851 278 b 535 56 807 167 701 56 "},"Ċ":{"ha":889,"x_min":0,"x_max":0,"o":"m 608 1149 b 717 1244 615 1203 663 1244 b 800 1149 771 1244 807 1203 b 690 1053 792 1094 744 1053 b 608 1149 636 1053 600 1094 m 535 56 b 346 486 382 56 308 222 b 656 917 382 750 503 917 b 910 694 822 917 897 806 l 958 694 l 974 903 b 665 986 922 938 804 986 b 110 486 374 986 150 778 b 525 -14 68 194 233 -14 b 857 69 664 -14 796 35 l 900 278 l 851 278 b 535 56 807 167 701 56 "},"Ď":{"ha":1028,"x_min":0,"x_max":0,"o":"m 529 1292 l 460 1292 l 599 1042 l 682 1042 l 890 1292 l 821 1292 l 661 1188 m 481 63 b 818 486 678 63 786 267 b 586 910 854 743 792 910 l 475 910 l 356 63 m 42 0 l 47 42 b 146 153 104 56 135 76 l 239 819 b 172 931 250 896 225 917 l 178 972 l 608 972 b 1054 486 907 972 1097 792 b 472 0 1014 200 771 0 "},"Đ":{"ha":1028,"x_min":0,"x_max":0,"o":"m 197 521 l 239 819 b 172 931 250 896 225 917 l 178 972 l 608 972 b 1054 486 907 972 1097 792 b 472 0 1014 200 771 0 l 42 0 l 47 42 b 146 153 104 56 135 76 l 189 458 l 64 458 l 72 521 m 481 63 b 818 486 678 63 786 267 b 586 910 854 743 792 910 l 475 910 l 419 521 l 544 521 l 536 458 l 411 458 l 356 63 "},"Ĕ":{"ha":833,"x_min":0,"x_max":0,"o":"m 607 1069 b 824 1279 732 1069 810 1178 l 757 1279 b 624 1192 732 1208 667 1192 b 515 1279 581 1192 521 1208 l 449 1279 b 607 1069 435 1178 482 1069 m 419 521 l 503 521 b 674 667 579 521 646 556 l 722 667 l 672 313 l 624 313 b 494 458 626 424 571 458 l 411 458 l 356 63 l 571 63 b 775 236 647 63 746 124 l 824 236 l 778 0 l 42 0 l 47 42 b 146 153 104 56 135 76 l 239 819 b 172 931 250 896 225 917 l 178 972 l 900 972 l 874 736 l 825 736 b 676 910 826 849 753 910 l 475 910 "},"Ě":{"ha":833,"x_min":0,"x_max":0,"o":"m 494 1292 l 425 1292 l 564 1042 l 647 1042 l 856 1292 l 786 1292 l 626 1188 m 419 521 l 503 521 b 674 667 579 521 646 556 l 722 667 l 672 313 l 624 313 b 494 458 626 424 571 458 l 411 458 l 356 63 l 571 63 b 775 236 647 63 746 124 l 824 236 l 778 0 l 42 0 l 47 42 b 146 153 104 56 135 76 l 239 819 b 172 931 250 896 225 917 l 178 972 l 900 972 l 874 736 l 825 736 b 676 910 826 849 753 910 l 475 910 "},"Ė":{"ha":833,"x_min":0,"x_max":0,"o":"m 515 1149 b 624 1244 522 1203 569 1244 b 707 1149 678 1244 714 1203 b 597 1053 699 1094 651 1053 b 515 1149 543 1053 507 1094 m 419 521 l 503 521 b 674 667 579 521 646 556 l 722 667 l 672 313 l 624 313 b 494 458 626 424 571 458 l 411 458 l 356 63 l 571 63 b 775 236 647 63 746 124 l 824 236 l 778 0 l 42 0 l 47 42 b 146 153 104 56 135 76 l 239 819 b 172 931 250 896 225 917 l 178 972 l 900 972 l 874 736 l 825 736 b 676 910 826 849 753 910 l 475 910 "},"Ē":{"ha":833,"x_min":0,"x_max":0,"o":"m 844 1174 l 835 1097 l 376 1097 l 386 1174 m 419 521 l 503 521 b 674 667 579 521 646 556 l 722 667 l 672 313 l 624 313 b 494 458 626 424 571 458 l 411 458 l 356 63 l 571 63 b 775 236 647 63 746 124 l 824 236 l 778 0 l 42 0 l 47 42 b 146 153 104 56 135 76 l 239 819 b 172 931 250 896 225 917 l 178 972 l 900 972 l 874 736 l 825 736 b 676 910 826 849 753 910 l 475 910 "},"Ę":{"ha":833,"x_min":0,"x_max":0,"o":"m 801 -271 b 668 -326 772 -303 710 -326 b 715 0 497 -326 506 -135 l 42 0 l 47 42 b 146 153 104 56 135 76 l 239 819 b 172 931 250 896 225 917 l 178 972 l 900 972 l 874 736 l 825 736 b 676 910 826 849 753 910 l 475 910 l 419 521 l 503 521 b 674 667 579 521 646 556 l 722 667 l 672 313 l 624 313 b 494 458 626 424 571 458 l 411 458 l 356 63 l 571 63 b 775 236 647 63 746 124 l 824 236 l 778 0 b 808 -222 646 -108 626 -293 "},"Ğ":{"ha":972,"x_min":0,"x_max":0,"o":"m 674 1069 b 890 1279 799 1069 876 1178 l 824 1279 b 690 1192 799 1208 733 1192 b 582 1279 647 1192 588 1208 l 515 1279 b 674 1069 501 1178 549 1069 m 678 83 b 535 56 633 65 586 56 b 346 486 382 56 308 222 b 656 917 382 750 503 917 b 910 694 822 917 897 806 l 958 694 l 974 903 b 665 986 922 938 804 986 b 110 486 374 986 150 778 b 525 -14 68 194 233 -14 b 901 97 664 -14 840 56 l 929 292 b 1028 403 940 368 943 389 l 1033 444 l 644 444 l 639 403 b 707 292 707 389 718 368 "},"Ĝ":{"ha":972,"x_min":0,"x_max":0,"o":"m 521 1042 l 451 1042 l 660 1292 l 743 1292 l 882 1042 l 813 1042 l 681 1146 m 678 83 b 535 56 633 65 586 56 b 346 486 382 56 308 222 b 656 917 382 750 503 917 b 910 694 822 917 897 806 l 958 694 l 974 903 b 665 986 922 938 804 986 b 110 486 374 986 150 778 b 525 -14 68 194 233 -14 b 901 97 664 -14 840 56 l 929 292 b 1028 403 940 368 943 389 l 1033 444 l 644 444 l 639 403 b 707 292 707 389 718 368 "},"Ģ":{"ha":972,"x_min":0,"x_max":0,"o":"m 678 83 b 535 56 633 65 586 56 b 346 486 382 56 308 222 b 656 917 382 750 503 917 b 910 694 822 917 897 806 l 958 694 l 974 903 b 665 986 922 938 804 986 b 110 486 374 986 150 778 b 525 -14 68 194 233 -14 b 901 97 664 -14 840 56 l 929 292 b 1028 403 940 368 943 389 l 1033 444 l 644 444 l 639 403 b 707 292 707 389 718 368 m 503 -50 b 608 -203 606 -50 617 -142 b 374 -478 589 -343 463 -447 l 351 -433 b 471 -247 490 -372 547 -247 b 394 -146 421 -247 385 -211 b 503 -50 401 -96 453 -50 "},"Ġ":{"ha":972,"x_min":0,"x_max":0,"o":"m 607 1149 b 715 1244 614 1203 661 1244 b 799 1149 769 1244 806 1203 b 689 1053 790 1094 743 1053 b 607 1149 635 1053 599 1094 m 678 83 b 535 56 633 65 586 56 b 346 486 382 56 308 222 b 656 917 382 750 503 917 b 910 694 822 917 897 806 l 958 694 l 974 903 b 665 986 922 938 804 986 b 110 486 374 986 150 778 b 525 -14 68 194 233 -14 b 901 97 664 -14 840 56 l 929 292 b 1028 403 940 368 943 389 l 1033 444 l 644 444 l 639 403 b 707 292 707 389 718 368 "},"Ħ":{"ha":1083,"x_min":0,"x_max":0,"o":"m 224 708 l 239 819 b 172 931 250 896 225 917 l 178 972 l 567 972 l 561 931 b 461 819 503 917 472 896 l 446 708 l 835 708 l 850 819 b 783 931 861 896 836 917 l 789 972 l 1178 972 l 1172 931 b 1072 819 1114 917 1083 896 l 1057 708 l 1140 708 l 1132 646 l 1049 646 l 979 153 b 1047 42 968 76 993 56 l 1042 0 l 653 0 l 658 42 b 757 153 715 56 746 76 l 801 465 l 413 465 l 368 153 b 436 42 357 76 382 56 l 431 0 l 42 0 l 47 42 b 146 153 104 56 135 76 l 215 646 l 132 646 l 140 708 m 810 528 l 826 646 l 438 646 l 421 528 "},"Ĥ":{"ha":1083,"x_min":0,"x_max":0,"o":"m 547 1042 l 478 1042 l 686 1292 l 769 1292 l 908 1042 l 839 1042 l 707 1146 m 979 153 b 1047 42 968 76 993 56 l 1042 0 l 653 0 l 658 42 b 757 153 715 56 746 76 l 801 465 l 413 465 l 368 153 b 436 42 357 76 382 56 l 431 0 l 42 0 l 47 42 b 146 153 104 56 135 76 l 239 819 b 172 931 250 896 225 917 l 178 972 l 567 972 l 561 931 b 461 819 503 917 472 896 l 421 528 l 810 528 l 850 819 b 783 931 861 896 836 917 l 789 972 l 1178 972 l 1172 931 b 1072 819 1114 917 1083 896 "},"Ĭ":{"ha":472,"x_min":0,"x_max":0,"o":"m 388 1069 b 604 1279 513 1069 590 1178 l 538 1279 b 404 1192 513 1208 447 1192 b 296 1279 361 1192 301 1208 l 229 1279 b 388 1069 215 1178 263 1069 m 368 153 b 436 42 357 76 382 56 l 431 0 l 42 0 l 47 42 b 146 153 104 56 135 76 l 239 819 b 172 931 250 896 225 917 l 178 972 l 567 972 l 561 931 b 461 819 503 917 472 896 "},"İ":{"ha":472,"x_min":0,"x_max":0,"o":"m 299 1149 b 407 1244 306 1203 353 1244 b 490 1149 461 1244 497 1203 b 381 1053 482 1094 435 1053 b 299 1149 326 1053 290 1094 m 368 153 b 436 42 357 76 382 56 l 431 0 l 42 0 l 47 42 b 146 153 104 56 135 76 l 239 819 b 172 931 250 896 225 917 l 178 972 l 567 972 l 561 931 b 461 819 503 917 472 896 "},"Ī":{"ha":472,"x_min":0,"x_max":0,"o":"m 629 1174 l 619 1097 l 161 1097 l 171 1174 m 368 153 b 436 42 357 76 382 56 l 431 0 l 42 0 l 47 42 b 146 153 104 56 135 76 l 239 819 b 172 931 250 896 225 917 l 178 972 l 567 972 l 561 931 b 461 819 503 917 472 896 "},"Į":{"ha":472,"x_min":0,"x_max":0,"o":"m 308 -271 b 175 -326 279 -303 217 -326 b 222 0 4 -326 13 -135 l 42 0 l 47 42 b 146 153 104 56 135 76 l 239 819 b 172 931 250 896 225 917 l 178 972 l 567 972 l 561 931 b 461 819 503 917 472 896 l 368 153 b 436 42 357 76 382 56 l 431 0 l 285 0 b 315 -222 153 -108 133 -293 "},"Ĩ":{"ha":472,"x_min":0,"x_max":0,"o":"m 117 1083 b 308 1264 154 1143 244 1264 b 524 1208 364 1264 469 1208 b 633 1250 572 1208 607 1222 l 678 1222 b 494 1056 640 1164 558 1056 b 274 1111 429 1056 339 1111 b 161 1056 224 1111 188 1082 m 368 153 b 436 42 357 76 382 56 l 431 0 l 42 0 l 47 42 b 146 153 104 56 135 76 l 239 819 b 172 931 250 896 225 917 l 178 972 l 567 972 l 561 931 b 461 819 503 917 472 896 "},"Ĳ":{"ha":1028,"x_min":0,"x_max":0,"o":"m 368 153 b 436 42 357 76 382 56 l 431 0 l 42 0 l 47 42 b 146 153 104 56 135 76 l 239 819 b 172 931 250 896 225 917 l 178 972 l 567 972 l 561 931 b 461 819 503 917 472 896 m 961 417 b 553 -14 929 194 796 -14 b 578 104 379 -14 481 196 b 731 361 728 -37 707 194 l 794 819 b 728 931 806 896 781 917 l 733 972 l 1122 972 l 1117 931 b 1017 819 1058 917 1028 896 "},"Ĵ":{"ha":556,"x_min":0,"x_max":0,"o":"m 319 1042 l 250 1042 l 458 1292 l 542 1292 l 681 1042 l 611 1042 l 479 1146 m 489 417 b 81 -14 457 194 324 -14 b 106 104 -92 -14 8 196 b 258 361 256 -37 235 194 l 322 819 b 256 931 333 896 308 917 l 261 972 l 650 972 l 644 931 b 544 819 586 917 556 896 "},"Ķ":{"ha":1019,"x_min":0,"x_max":0,"o":"m 472 -40 b 578 -193 575 -40 586 -132 b 343 -468 558 -333 432 -437 l 321 -424 b 440 -237 460 -362 517 -237 b 364 -136 390 -237 354 -201 b 472 -40 371 -86 422 -40 m 728 785 b 706 931 782 840 822 917 l 711 972 l 1086 972 l 1081 931 b 860 833 982 917 918 893 l 621 569 l 865 181 b 1011 42 904 121 968 69 l 1006 0 l 561 0 l 567 42 b 579 174 632 56 617 110 l 451 396 b 407 431 432 429 421 431 l 368 153 b 436 42 357 76 382 56 l 431 0 l 42 0 l 47 42 b 146 153 104 56 135 76 l 239 819 b 172 931 250 896 225 917 l 178 972 l 567 972 l 561 931 b 461 819 503 917 472 896 l 419 514 b 540 583 475 514 499 542 "},"Ĺ":{"ha":806,"x_min":0,"x_max":0,"o":"m 610 1192 b 524 1278 711 1258 589 1361 l 358 1068 l 382 1042 m 571 63 b 775 236 647 63 746 124 l 824 236 l 778 0 l 42 0 l 47 42 b 146 153 104 56 135 76 l 239 819 b 172 931 250 896 225 917 l 178 972 l 567 972 l 561 931 b 461 819 503 917 472 896 l 356 63 "},"Ľ":{"ha":806,"x_min":0,"x_max":0,"o":"m 747 1007 b 853 854 850 1007 861 915 b 618 579 833 714 707 610 l 596 624 b 715 810 735 685 792 810 b 639 911 665 810 629 846 b 747 1007 646 961 697 1007 m 571 63 b 775 236 647 63 746 124 l 824 236 l 778 0 l 42 0 l 47 42 b 146 153 104 56 135 76 l 239 819 b 172 931 250 896 225 917 l 178 972 l 567 972 l 561 931 b 461 819 503 917 472 896 l 356 63 "},"Ļ":{"ha":806,"x_min":0,"x_max":0,"o":"m 408 -39 b 514 -192 511 -39 522 -131 b 279 -467 494 -332 368 -436 l 257 -422 b 376 -236 396 -361 453 -236 b 300 -135 326 -236 290 -200 b 408 -39 307 -85 358 -39 m 571 63 b 775 236 647 63 746 124 l 824 236 l 778 0 l 42 0 l 47 42 b 146 153 104 56 135 76 l 239 819 b 172 931 250 896 225 917 l 178 972 l 567 972 l 561 931 b 461 819 503 917 472 896 l 356 63 "},"Ŀ":{"ha":806,"x_min":0,"x_max":0,"o":"m 526 504 b 629 594 535 557 579 594 b 704 504 679 594 713 557 b 604 417 697 451 654 417 b 526 504 554 417 519 451 m 571 63 b 775 236 647 63 746 124 l 824 236 l 778 0 l 42 0 l 47 42 b 146 153 104 56 135 76 l 239 819 b 172 931 250 896 225 917 l 178 972 l 567 972 l 561 931 b 461 819 503 917 472 896 l 356 63 "},"Ń":{"ha":1014,"x_min":0,"x_max":0,"o":"m 883 1192 b 797 1278 985 1258 863 1361 l 632 1068 l 656 1042 m 906 819 b 797 931 917 896 906 917 l 803 972 l 1122 972 l 1117 931 b 982 819 1031 917 993 896 l 868 0 l 736 0 l 347 792 l 257 153 b 367 42 246 76 257 56 l 361 0 l 42 0 l 47 42 b 181 153 132 56 169 76 l 274 819 b 172 931 285 896 253 917 l 178 972 l 525 972 l 838 333 "},"Ň":{"ha":1014,"x_min":0,"x_max":0,"o":"m 565 1292 l 496 1292 l 635 1042 l 718 1042 l 926 1292 l 857 1292 l 697 1188 m 906 819 b 797 931 917 896 906 917 l 803 972 l 1122 972 l 1117 931 b 982 819 1031 917 993 896 l 868 0 l 736 0 l 347 792 l 257 153 b 367 42 246 76 257 56 l 361 0 l 42 0 l 47 42 b 181 153 132 56 169 76 l 274 819 b 172 931 285 896 253 917 l 178 972 l 525 972 l 838 333 "},"Ņ":{"ha":1014,"x_min":0,"x_max":0,"o":"m 475 -50 b 581 -203 578 -50 589 -142 b 346 -478 561 -343 435 -447 l 324 -433 b 443 -247 463 -372 519 -247 b 367 -146 393 -247 357 -211 b 475 -50 374 -96 425 -50 m 906 819 b 797 931 917 896 906 917 l 803 972 l 1122 972 l 1117 931 b 982 819 1031 917 993 896 l 868 0 l 736 0 l 347 792 l 257 153 b 367 42 246 76 257 56 l 361 0 l 42 0 l 47 42 b 181 153 132 56 169 76 l 274 819 b 172 931 285 896 253 917 l 178 972 l 525 972 l 838 333 "},"Ŏ":{"ha":1083,"x_min":0,"x_max":0,"o":"m 711 1069 b 928 1279 836 1069 914 1178 l 861 1279 b 728 1192 836 1208 771 1192 b 619 1279 685 1192 625 1208 l 553 1279 b 711 1069 539 1178 586 1069 m 110 486 b 679 986 150 778 418 986 b 1110 486 940 986 1150 778 b 539 -14 1068 194 800 -14 b 110 486 278 -14 68 194 m 346 486 b 549 56 308 222 368 56 b 874 486 729 56 836 222 b 669 917 910 750 850 917 b 346 486 489 917 382 750 "},"Ő":{"ha":1083,"x_min":0,"x_max":0,"o":"m 764 1254 b 649 1314 828 1333 683 1397 l 543 1063 l 585 1042 m 986 1254 b 871 1314 1050 1333 906 1397 l 765 1063 l 807 1042 m 110 486 b 679 986 150 778 418 986 b 1110 486 940 986 1150 778 b 539 -14 1068 194 800 -14 b 110 486 278 -14 68 194 m 346 486 b 549 56 308 222 368 56 b 874 486 729 56 836 222 b 669 917 910 750 850 917 b 346 486 489 917 382 750 "},"Ō":{"ha":1083,"x_min":0,"x_max":0,"o":"m 944 1174 l 935 1097 l 476 1097 l 486 1174 m 110 486 b 679 986 150 778 418 986 b 1110 486 940 986 1150 778 b 539 -14 1068 194 800 -14 b 110 486 278 -14 68 194 m 346 486 b 549 56 308 222 368 56 b 874 486 729 56 836 222 b 669 917 910 750 850 917 b 346 486 489 917 382 750 "},"Ǿ":{"ha":1083,"x_min":0,"x_max":0,"o":"m 911 1192 b 825 1278 1013 1258 890 1361 l 660 1068 l 683 1042 m 110 486 b 679 986 150 778 418 986 b 983 869 797 986 906 943 l 1074 950 l 1113 897 l 1028 819 b 1110 486 1094 733 1128 618 b 539 -14 1068 194 800 -14 b 238 99 422 -14 317 26 l 147 15 l 106 69 l 193 149 b 110 486 124 235 90 351 m 346 486 b 338 281 335 408 332 340 l 867 761 b 669 917 838 860 774 917 b 346 486 489 917 382 750 m 874 486 b 881 685 883 560 886 626 l 353 203 b 549 56 382 108 446 56 b 874 486 729 56 836 222 "},"Ŕ":{"ha":931,"x_min":0,"x_max":0,"o":"m 790 1192 b 704 1278 892 1258 769 1361 l 539 1068 l 563 1042 m 904 708 b 672 443 890 604 826 492 l 804 194 b 922 42 839 136 871 69 l 917 0 l 653 0 b 563 153 628 28 585 97 l 454 417 l 406 417 l 368 153 b 436 42 357 76 382 56 l 431 0 l 42 0 l 47 42 b 146 153 104 56 135 76 l 239 819 b 172 931 250 896 225 917 l 178 972 l 622 972 b 904 708 831 972 926 861 m 469 479 b 674 694 608 479 656 572 b 558 910 689 806 669 910 l 475 910 l 414 479 "},"Ř":{"ha":931,"x_min":0,"x_max":0,"o":"m 472 1292 l 403 1292 l 542 1042 l 625 1042 l 833 1292 l 764 1292 l 604 1188 m 904 708 b 672 443 890 604 826 492 l 804 194 b 922 42 839 136 871 69 l 917 0 l 653 0 b 563 153 628 28 585 97 l 454 417 l 406 417 l 368 153 b 436 42 357 76 382 56 l 431 0 l 42 0 l 47 42 b 146 153 104 56 135 76 l 239 819 b 172 931 250 896 225 917 l 178 972 l 622 972 b 904 708 831 972 926 861 m 469 479 b 674 694 608 479 656 572 b 558 910 689 806 669 910 l 475 910 l 414 479 "},"Ŗ":{"ha":931,"x_min":0,"x_max":0,"o":"m 474 -42 b 579 -194 576 -42 588 -133 b 344 -469 560 -335 433 -439 l 322 -425 b 442 -239 461 -364 518 -239 b 365 -137 392 -239 356 -203 b 474 -42 372 -87 424 -42 m 904 708 b 672 443 890 604 826 492 l 804 194 b 922 42 839 136 871 69 l 917 0 l 653 0 b 563 153 628 28 585 97 l 454 417 l 406 417 l 368 153 b 436 42 357 76 382 56 l 431 0 l 42 0 l 47 42 b 146 153 104 56 135 76 l 239 819 b 172 931 250 896 225 917 l 178 972 l 622 972 b 904 708 831 972 926 861 m 469 479 b 674 694 608 479 656 572 b 558 910 689 806 669 910 l 475 910 l 414 479 "},"Ś":{"ha":743,"x_min":0,"x_max":0,"o":"m 738 1192 b 651 1278 839 1258 717 1361 l 486 1068 l 510 1042 m 706 681 b 535 910 688 847 654 910 b 376 778 489 910 392 882 b 489 618 368 715 394 658 b 742 292 619 563 767 472 b 349 -14 713 83 535 -14 b 63 56 249 -14 133 14 l 85 313 l 133 313 b 332 63 128 125 228 63 b 515 215 417 63 501 115 b 372 403 528 299 471 358 b 140 708 240 463 117 539 b 515 986 165 886 325 986 b 775 924 600 986 704 965 l 754 681 "},"Ş":{"ha":743,"x_min":0,"x_max":0,"o":"m 706 681 b 535 910 688 847 654 910 b 376 778 489 910 392 882 b 489 618 368 715 394 658 b 742 292 619 563 767 472 b 372 -12 714 92 550 -6 l 367 -56 b 501 -197 360 -106 519 -75 b 225 -368 488 -285 328 -354 l 221 -306 b 351 -215 264 -292 343 -274 b 308 -69 361 -142 290 -160 l 319 -12 b 63 56 228 -8 126 18 l 85 313 l 133 313 b 332 63 128 125 228 63 b 515 215 417 63 501 115 b 372 403 528 299 471 358 b 140 708 240 463 117 539 b 515 986 165 886 325 986 b 775 924 600 986 704 965 l 754 681 "},"Ŝ":{"ha":743,"x_min":0,"x_max":0,"o":"m 378 1042 l 308 1042 l 517 1292 l 600 1292 l 739 1042 l 669 1042 l 538 1146 m 706 681 b 535 910 688 847 654 910 b 376 778 489 910 392 882 b 489 618 368 715 394 658 b 742 292 619 563 767 472 b 349 -14 713 83 535 -14 b 63 56 249 -14 133 14 l 85 313 l 133 313 b 332 63 128 125 228 63 b 515 215 417 63 501 115 b 372 403 528 299 471 358 b 140 708 240 463 117 539 b 515 986 165 886 325 986 b 775 924 600 986 704 965 l 754 681 "},"Ș":{"ha":743,"x_min":0,"x_max":0,"o":"m 347 -50 b 453 -203 450 -50 461 -142 b 218 -478 433 -343 307 -447 l 196 -433 b 315 -247 335 -372 392 -247 b 239 -146 265 -247 229 -211 b 347 -50 246 -96 297 -50 m 706 681 b 535 910 688 847 654 910 b 376 778 489 910 392 882 b 489 618 368 715 394 658 b 742 292 619 563 767 472 b 349 -14 713 83 535 -14 b 63 56 249 -14 133 14 l 85 313 l 133 313 b 332 63 128 125 228 63 b 515 215 417 63 501 115 b 372 403 528 299 471 358 b 140 708 240 463 117 539 b 515 986 165 886 325 986 b 775 924 600 986 704 965 l 754 681 "},"Ŧ":{"ha":833,"x_min":0,"x_max":0,"o":"m 600 521 l 656 910 l 711 910 b 860 736 788 910 861 849 l 908 736 l 935 972 l 171 972 l 131 736 l 179 736 b 378 910 208 849 301 910 l 433 910 l 378 521 l 253 521 l 244 458 l 369 458 l 326 153 b 228 42 315 76 285 56 l 222 0 l 611 0 l 617 42 b 549 153 563 56 538 76 l 592 458 l 717 458 l 725 521 "},"Ť":{"ha":833,"x_min":0,"x_max":0,"o":"m 450 1292 l 381 1292 l 519 1042 l 603 1042 l 811 1292 l 742 1292 l 582 1188 m 171 972 l 131 736 l 179 736 b 378 910 208 849 301 910 l 433 910 l 326 153 b 228 42 315 76 285 56 l 222 0 l 611 0 l 617 42 b 549 153 563 56 538 76 l 656 910 l 711 910 b 860 736 788 910 861 849 l 908 736 l 935 972 "},"Ţ":{"ha":833,"x_min":0,"x_max":0,"o":"m 392 -50 b 497 -203 494 -50 506 -142 b 263 -478 478 -343 351 -447 l 240 -433 b 360 -247 379 -372 436 -247 b 283 -146 310 -247 274 -211 b 392 -50 290 -96 342 -50 m 171 972 l 131 736 l 179 736 b 378 910 208 849 301 910 l 433 910 l 326 153 b 228 42 315 76 285 56 l 222 0 l 611 0 l 617 42 b 549 153 563 56 538 76 l 656 910 l 711 910 b 860 736 788 910 861 849 l 908 736 l 935 972 "},"Ț":{"ha":833,"x_min":0,"x_max":0,"o":"m 393 -46 b 499 -199 496 -46 507 -137 b 264 -474 479 -339 353 -443 l 242 -429 b 361 -243 381 -368 438 -243 b 285 -142 311 -243 275 -207 b 393 -46 292 -92 343 -46 m 171 972 l 131 736 l 179 736 b 378 910 208 849 301 910 l 433 910 l 326 153 b 228 42 315 76 285 56 l 222 0 l 611 0 l 617 42 b 549 153 563 56 538 76 l 656 910 l 711 910 b 860 736 788 910 861 849 l 908 736 l 935 972 "},"Ŭ":{"ha":1056,"x_min":0,"x_max":0,"o":"m 686 1069 b 903 1279 811 1069 889 1178 l 836 1279 b 703 1192 811 1208 746 1192 b 594 1279 660 1192 600 1208 l 528 1279 b 686 1069 514 1178 561 1069 m 940 819 b 825 931 951 896 933 917 l 831 972 l 1164 972 l 1158 931 b 1017 819 1058 917 1028 896 l 954 375 b 518 -14 919 125 744 -14 b 163 375 247 -14 129 135 l 225 819 b 158 931 236 896 211 917 l 164 972 l 553 972 l 547 931 b 447 819 489 917 458 896 l 388 389 b 572 69 356 167 426 69 b 881 389 760 69 853 194 "},"Ű":{"ha":1056,"x_min":0,"x_max":0,"o":"m 769 1254 b 654 1314 833 1333 689 1397 l 549 1063 l 590 1042 m 992 1254 b 876 1314 1056 1333 911 1397 l 771 1063 l 813 1042 m 940 819 b 825 931 951 896 933 917 l 831 972 l 1164 972 l 1158 931 b 1017 819 1058 917 1028 896 l 954 375 b 518 -14 919 125 744 -14 b 163 375 247 -14 129 135 l 225 819 b 158 931 236 896 211 917 l 164 972 l 553 972 l 547 931 b 447 819 489 917 458 896 l 388 389 b 572 69 356 167 426 69 b 881 389 760 69 853 194 "},"Ū":{"ha":1056,"x_min":0,"x_max":0,"o":"m 947 1174 l 938 1097 l 479 1097 l 489 1174 m 940 819 b 825 931 951 896 933 917 l 831 972 l 1164 972 l 1158 931 b 1017 819 1058 917 1028 896 l 954 375 b 518 -14 919 125 744 -14 b 163 375 247 -14 129 135 l 225 819 b 158 931 236 896 211 917 l 164 972 l 553 972 l 547 931 b 447 819 489 917 458 896 l 388 389 b 572 69 356 167 426 69 b 881 389 760 69 853 194 "},"Ų":{"ha":1056,"x_min":0,"x_max":0,"o":"m 600 -271 b 467 -326 571 -303 508 -326 b 493 -14 301 -326 304 -147 b 163 375 240 -4 131 142 l 225 819 b 158 931 236 896 211 917 l 164 972 l 553 972 l 547 931 b 447 819 489 917 458 896 l 388 389 b 572 69 356 167 426 69 b 881 389 760 69 853 194 l 940 819 b 825 931 951 896 933 917 l 831 972 l 1164 972 l 1158 931 b 1017 819 1058 917 1028 896 l 954 375 b 561 -12 922 140 767 4 b 607 -222 442 -121 431 -290 "},"Ů":{"ha":1056,"x_min":0,"x_max":0,"o":"m 588 1163 b 740 1297 599 1238 664 1297 b 856 1163 815 1297 867 1238 b 703 1029 844 1086 778 1029 b 588 1163 626 1029 576 1086 m 646 1163 b 711 1088 640 1121 669 1088 b 797 1163 754 1088 792 1121 b 732 1239 803 1206 775 1239 b 646 1163 690 1239 651 1206 m 940 819 b 825 931 951 896 933 917 l 831 972 l 1164 972 l 1158 931 b 1017 819 1058 917 1028 896 l 954 375 b 518 -14 919 125 744 -14 b 163 375 247 -14 129 135 l 225 819 b 158 931 236 896 211 917 l 164 972 l 553 972 l 547 931 b 447 819 489 917 458 896 l 388 389 b 572 69 356 167 426 69 b 881 389 760 69 853 194 "},"Ũ":{"ha":1056,"x_min":0,"x_max":0,"o":"m 447 1083 b 639 1264 485 1143 575 1264 b 854 1208 694 1264 800 1208 b 964 1250 903 1208 938 1222 l 1008 1222 b 825 1056 971 1164 889 1056 b 604 1111 760 1056 669 1111 b 492 1056 554 1111 518 1082 m 940 819 b 825 931 951 896 933 917 l 831 972 l 1164 972 l 1158 931 b 1017 819 1058 917 1028 896 l 954 375 b 518 -14 919 125 744 -14 b 163 375 247 -14 129 135 l 225 819 b 158 931 236 896 211 917 l 164 972 l 553 972 l 547 931 b 447 819 489 917 458 896 l 388 389 b 572 69 356 167 426 69 b 881 389 760 69 853 194 "},"Ẃ":{"ha":1403,"x_min":0,"x_max":0,"o":"m 1100 1192 b 1014 1278 1201 1258 1079 1361 l 849 1068 l 872 1042 m 760 625 l 564 236 l 561 236 l 456 806 b 533 931 446 878 460 917 l 539 972 l 136 972 l 131 931 b 219 847 196 910 207 893 l 389 -7 l 507 -7 l 779 518 l 882 -7 l 1007 -7 l 1379 847 b 1533 931 1408 904 1446 917 l 1539 972 l 1206 972 l 1200 931 b 1279 785 1307 917 1315 869 l 1043 236 l 1040 236 l 956 806 b 1033 931 946 878 960 917 l 1039 972 l 636 972 l 631 931 b 719 847 696 910 711 894 "},"Ŵ":{"ha":1403,"x_min":0,"x_max":0,"o":"m 713 1042 l 643 1042 l 851 1292 l 935 1292 l 1074 1042 l 1004 1042 l 872 1146 m 760 625 l 564 236 l 561 236 l 456 806 b 533 931 446 878 460 917 l 539 972 l 136 972 l 131 931 b 219 847 196 910 207 893 l 389 -7 l 507 -7 l 779 518 l 882 -7 l 1007 -7 l 1379 847 b 1533 931 1408 904 1446 917 l 1539 972 l 1206 972 l 1200 931 b 1279 785 1307 917 1315 869 l 1043 236 l 1040 236 l 956 806 b 1033 931 946 878 960 917 l 1039 972 l 636 972 l 631 931 b 719 847 696 910 711 894 "},"Ẅ":{"ha":1403,"x_min":0,"x_max":0,"o":"m 649 1132 b 750 1222 656 1185 700 1222 b 828 1132 801 1222 835 1185 b 725 1044 821 1079 776 1044 b 649 1132 675 1044 642 1079 m 919 1132 b 1022 1222 926 1185 971 1222 b 1099 1132 1072 1222 1106 1185 b 997 1044 1092 1079 1047 1044 b 919 1132 946 1044 913 1079 m 760 625 l 564 236 l 561 236 l 456 806 b 533 931 446 878 460 917 l 539 972 l 136 972 l 131 931 b 219 847 196 910 207 893 l 389 -7 l 507 -7 l 779 518 l 882 -7 l 1007 -7 l 1379 847 b 1533 931 1408 904 1446 917 l 1539 972 l 1206 972 l 1200 931 b 1279 785 1307 917 1315 869 l 1043 236 l 1040 236 l 956 806 b 1033 931 946 878 960 917 l 1039 972 l 636 972 l 631 931 b 719 847 696 910 711 894 "},"Ẁ":{"ha":1403,"x_min":0,"x_max":0,"o":"m 678 1192 b 789 1278 596 1258 746 1361 l 896 1068 l 864 1042 m 760 625 l 564 236 l 561 236 l 456 806 b 533 931 446 878 460 917 l 539 972 l 136 972 l 131 931 b 219 847 196 910 207 893 l 389 -7 l 507 -7 l 779 518 l 882 -7 l 1007 -7 l 1379 847 b 1533 931 1408 904 1446 917 l 1539 972 l 1206 972 l 1200 931 b 1279 785 1307 917 1315 869 l 1043 236 l 1040 236 l 956 806 b 1033 931 946 878 960 917 l 1039 972 l 636 972 l 631 931 b 719 847 696 910 711 894 "},"Ŷ":{"ha":889,"x_min":0,"x_max":0,"o":"m 481 1042 l 411 1042 l 619 1292 l 703 1292 l 842 1042 l 772 1042 l 640 1146 m 401 338 l 375 153 b 276 42 364 76 333 56 l 271 0 l 660 0 l 665 42 b 597 153 611 56 586 76 l 632 404 l 896 847 b 1033 931 929 903 963 917 l 1039 972 l 733 972 l 728 931 b 792 799 824 917 833 867 l 576 444 l 574 444 l 439 806 b 478 931 414 872 406 917 l 483 972 l 122 972 l 117 931 b 194 847 156 910 178 892 "},"Ỳ":{"ha":889,"x_min":0,"x_max":0,"o":"m 439 1192 b 550 1278 357 1258 507 1361 l 657 1068 l 625 1042 m 401 338 l 375 153 b 276 42 364 76 333 56 l 271 0 l 660 0 l 665 42 b 597 153 611 56 586 76 l 632 404 l 896 847 b 1033 931 929 903 963 917 l 1039 972 l 733 972 l 728 931 b 792 799 824 917 833 867 l 576 444 l 574 444 l 439 806 b 478 931 414 872 406 917 l 483 972 l 122 972 l 117 931 b 194 847 156 910 178 892 "},"Ź":{"ha":833,"x_min":0,"x_max":0,"o":"m 793 1192 b 707 1278 894 1258 772 1361 l 542 1068 l 565 1042 m 901 889 l 914 972 l 215 972 l 175 736 l 224 736 b 422 910 253 849 343 910 l 669 910 l 51 69 l 42 0 l 778 0 l 824 236 l 775 236 b 571 63 746 124 654 63 l 300 63 "},"Ż":{"ha":833,"x_min":0,"x_max":0,"o":"m 507 1149 b 615 1244 514 1203 561 1244 b 699 1149 669 1244 706 1203 b 589 1053 690 1094 643 1053 b 507 1149 535 1053 499 1094 m 901 889 l 914 972 l 215 972 l 175 736 l 224 736 b 422 910 253 849 343 910 l 669 910 l 51 69 l 42 0 l 778 0 l 824 236 l 775 236 b 571 63 746 124 654 63 l 300 63 "},"":{"ha":819,"x_min":0,"x_max":0,"o":"m 514 861 b 731 1071 639 861 717 969 l 664 1071 b 531 983 639 1000 574 983 b 422 1071 488 983 428 1000 l 356 1071 b 514 861 342 969 389 861 m 578 757 l 463 757 l 135 125 b 6 42 107 69 75 56 l 0 0 l 306 0 l 311 42 b 238 167 214 56 203 96 l 269 229 l 492 229 l 508 167 b 450 42 526 97 521 56 l 444 0 l 819 0 l 825 42 b 760 125 786 63 774 79 m 414 519 l 472 292 l 299 292 l 411 519 "},"":{"ha":819,"x_min":0,"x_max":0,"o":"m 765 965 l 754 889 l 296 889 l 307 965 m 578 757 l 463 757 l 135 125 b 6 42 107 69 75 56 l 0 0 l 306 0 l 311 42 b 238 167 214 56 203 96 l 269 229 l 492 229 l 508 167 b 450 42 526 97 521 56 l 444 0 l 819 0 l 825 42 b 760 125 786 63 774 79 m 414 519 l 472 292 l 299 292 l 411 519 "},"":{"ha":1042,"x_min":0,"x_max":0,"o":"m 763 688 l 853 688 b 1006 542 929 688 1008 654 l 1054 542 l 1076 750 l 600 750 l 147 125 b 6 42 108 69 76 56 l 0 0 l 292 0 l 297 42 b 258 167 203 56 210 96 l 339 278 l 483 278 l 465 153 b 367 42 454 76 424 56 l 361 0 l 986 0 l 1029 208 l 981 208 b 779 63 950 96 856 63 l 675 63 l 715 347 l 743 347 b 818 215 778 347 822 326 l 867 215 l 913 542 l 864 542 b 751 410 836 431 786 410 l 724 410 m 518 526 l 492 340 l 382 340 l 515 526 m 919 983 b 833 1069 1021 1050 899 1153 l 667 860 l 692 833 "},"":{"ha":778,"x_min":0,"x_max":0,"o":"m 479 56 b 329 375 396 56 293 111 b 569 694 367 639 486 694 b 767 472 694 694 756 583 l 815 472 l 831 681 b 565 764 781 715 704 764 b 93 375 371 764 135 667 b 456 -14 53 83 261 -14 b 746 69 594 -14 685 35 l 789 278 l 740 278 b 479 56 696 167 632 56 m 778 983 b 692 1069 879 1050 757 1153 l 525 860 l 550 833 "},"":{"ha":778,"x_min":0,"x_max":0,"o":"m 479 56 b 329 375 396 56 293 111 b 569 694 367 639 486 694 b 767 472 694 694 756 583 l 815 472 l 831 681 b 565 764 781 715 704 764 b 93 375 371 764 135 667 b 456 -14 53 83 261 -14 b 746 69 594 -14 685 35 l 789 278 l 740 278 b 479 56 696 167 632 56 m 460 1083 l 390 1083 l 529 833 l 613 833 l 821 1083 l 751 1083 l 592 979 "},"":{"ha":778,"x_min":0,"x_max":0,"o":"m 479 56 b 329 375 396 56 293 111 b 569 694 367 639 486 694 b 767 472 694 694 756 583 l 815 472 l 831 681 b 565 764 781 715 704 764 b 93 375 371 764 135 667 b 456 -14 53 83 261 -14 b 746 69 594 -14 685 35 l 789 278 l 740 278 b 479 56 696 167 632 56 m 411 833 l 342 833 l 550 1083 l 633 1083 l 772 833 l 703 833 l 571 938 "},"":{"ha":778,"x_min":0,"x_max":0,"o":"m 479 56 b 329 375 396 56 293 111 b 569 694 367 639 486 694 b 767 472 694 694 756 583 l 815 472 l 831 681 b 565 764 781 715 704 764 b 93 375 371 764 135 667 b 456 -14 53 83 261 -14 b 746 69 594 -14 685 35 l 789 278 l 740 278 b 479 56 696 167 632 56 m 492 940 b 600 1036 499 994 546 1036 b 683 940 654 1036 690 994 b 574 844 675 886 628 844 b 492 940 519 844 483 886 "},"":{"ha":917,"x_min":0,"x_max":0,"o":"m 397 63 b 690 375 594 63 665 197 b 471 688 721 590 676 688 l 443 688 l 356 63 m 42 0 l 47 42 b 146 153 104 56 135 76 l 208 597 b 140 708 219 674 194 694 l 146 750 l 493 750 b 926 375 792 750 964 639 b 389 0 893 131 688 0 m 451 1083 l 382 1083 l 521 833 l 604 833 l 813 1083 l 743 1083 l 583 979 "},"":{"ha":778,"x_min":0,"x_max":0,"o":"m 404 410 l 432 410 b 600 542 508 410 572 431 l 649 542 l 603 215 l 554 215 b 424 347 558 326 500 347 l 396 347 l 356 63 l 515 63 b 717 208 592 63 686 96 l 765 208 l 722 0 l 42 0 l 47 42 b 146 153 104 56 135 76 l 208 597 b 140 708 219 674 194 694 l 146 750 l 813 750 l 790 542 l 742 542 b 589 688 744 654 665 688 l 443 688 m 556 861 b 772 1071 681 861 758 969 l 706 1071 b 572 983 681 1000 615 983 b 464 1071 529 983 469 1000 l 397 1071 b 556 861 383 969 431 861 "},"":{"ha":778,"x_min":0,"x_max":0,"o":"m 404 410 l 432 410 b 600 542 508 410 572 431 l 649 542 l 603 215 l 554 215 b 424 347 558 326 500 347 l 396 347 l 356 63 l 515 63 b 717 208 592 63 686 96 l 765 208 l 722 0 l 42 0 l 47 42 b 146 153 104 56 135 76 l 208 597 b 140 708 219 674 194 694 l 146 750 l 813 750 l 790 542 l 742 542 b 589 688 744 654 665 688 l 443 688 m 453 1083 l 383 1083 l 522 833 l 606 833 l 814 1083 l 744 1083 l 585 979 "},"":{"ha":778,"x_min":0,"x_max":0,"o":"m 404 410 l 432 410 b 600 542 508 410 572 431 l 649 542 l 603 215 l 554 215 b 424 347 558 326 500 347 l 396 347 l 356 63 l 515 63 b 717 208 592 63 686 96 l 765 208 l 722 0 l 42 0 l 47 42 b 146 153 104 56 135 76 l 208 597 b 140 708 219 674 194 694 l 146 750 l 813 750 l 790 542 l 742 542 b 589 688 744 654 665 688 l 443 688 m 478 940 b 586 1036 485 994 532 1036 b 669 940 640 1036 676 994 b 560 844 661 886 614 844 b 478 940 506 844 469 886 "},"":{"ha":778,"x_min":0,"x_max":0,"o":"m 404 410 l 432 410 b 600 542 508 410 572 431 l 649 542 l 603 215 l 554 215 b 424 347 558 326 500 347 l 396 347 l 356 63 l 515 63 b 717 208 592 63 686 96 l 765 208 l 722 0 l 42 0 l 47 42 b 146 153 104 56 135 76 l 208 597 b 140 708 219 674 194 694 l 146 750 l 813 750 l 790 542 l 742 542 b 589 688 744 654 665 688 l 443 688 m 786 965 l 775 889 l 317 889 l 328 965 "},"":{"ha":875,"x_min":0,"x_max":0,"o":"m 479 56 b 329 375 396 56 293 111 b 569 694 367 639 486 694 b 767 472 694 694 756 583 l 815 472 l 831 681 b 565 764 781 715 704 764 b 93 375 371 764 135 667 b 454 -14 53 83 261 -14 b 803 97 593 -14 742 56 l 817 194 b 915 306 828 271 831 292 l 922 347 l 533 347 l 526 306 b 594 194 594 292 606 271 l 578 76 b 479 56 533 58 507 56 m 567 861 b 783 1071 692 861 769 969 l 717 1071 b 583 983 692 1000 626 983 b 475 1071 540 983 481 1000 l 408 1071 b 567 861 394 969 442 861 "},"":{"ha":875,"x_min":0,"x_max":0,"o":"m 479 56 b 329 375 396 56 293 111 b 569 694 367 639 486 694 b 767 472 694 694 756 583 l 815 472 l 831 681 b 565 764 781 715 704 764 b 93 375 371 764 135 667 b 454 -14 53 83 261 -14 b 803 97 593 -14 742 56 l 817 194 b 915 306 828 271 831 292 l 922 347 l 533 347 l 526 306 b 594 194 594 292 606 271 l 578 76 b 479 56 533 58 507 56 m 418 833 l 349 833 l 557 1083 l 640 1083 l 779 833 l 710 833 l 578 938 "},"":{"ha":875,"x_min":0,"x_max":0,"o":"m 479 56 b 329 375 396 56 293 111 b 569 694 367 639 486 694 b 767 472 694 694 756 583 l 815 472 l 831 681 b 565 764 781 715 704 764 b 93 375 371 764 135 667 b 454 -14 53 83 261 -14 b 803 97 593 -14 742 56 l 817 194 b 915 306 828 271 831 292 l 922 347 l 533 347 l 526 306 b 594 194 594 292 606 271 l 578 76 b 479 56 533 58 507 56 m 429 -50 b 535 -203 532 -50 543 -142 b 300 -478 515 -343 389 -447 l 278 -433 b 397 -247 417 -372 474 -247 b 321 -146 347 -247 311 -211 b 429 -50 328 -96 379 -50 "},"":{"ha":875,"x_min":0,"x_max":0,"o":"m 479 56 b 329 375 396 56 293 111 b 569 694 367 639 486 694 b 767 472 694 694 756 583 l 815 472 l 831 681 b 565 764 781 715 704 764 b 93 375 371 764 135 667 b 454 -14 53 83 261 -14 b 803 97 593 -14 742 56 l 817 194 b 915 306 828 271 831 292 l 922 347 l 533 347 l 526 306 b 594 194 594 292 606 271 l 578 76 b 479 56 533 58 507 56 m 493 940 b 601 1036 500 994 547 1036 b 685 940 656 1036 692 994 b 575 844 676 886 629 844 b 493 940 521 844 485 886 "},"":{"ha":986,"x_min":0,"x_max":0,"o":"m 882 153 b 950 42 871 76 896 56 l 944 0 l 556 0 l 561 42 b 660 153 618 56 649 76 l 688 354 l 396 354 l 368 153 b 436 42 357 76 382 56 l 431 0 l 42 0 l 47 42 b 146 153 104 56 135 76 l 208 597 b 140 708 219 674 194 694 l 146 750 l 535 750 l 529 708 b 431 597 472 694 442 674 l 406 417 l 697 417 l 722 597 b 654 708 733 674 708 694 l 660 750 l 1049 750 l 1043 708 b 944 597 986 694 956 674 m 469 833 l 400 833 l 608 1083 l 692 1083 l 831 833 l 761 833 l 629 938 "},"":{"ha":472,"x_min":0,"x_max":0,"o":"m 368 153 b 436 42 357 76 382 56 l 431 0 l 42 0 l 47 42 b 146 153 104 56 135 76 l 208 597 b 140 708 219 674 194 694 l 146 750 l 535 750 l 529 708 b 431 597 472 694 442 674 m 354 861 b 571 1071 479 861 557 969 l 504 1071 b 371 983 479 1000 414 983 b 263 1071 328 983 268 1000 l 196 1071 b 354 861 182 969 229 861 "},"":{"ha":472,"x_min":0,"x_max":0,"o":"m 368 153 b 436 42 357 76 382 56 l 431 0 l 42 0 l 47 42 b 146 153 104 56 135 76 l 208 597 b 140 708 219 674 194 694 l 146 750 l 535 750 l 529 708 b 431 597 472 694 442 674 m 269 940 b 378 1036 276 994 324 1036 b 461 940 432 1036 468 994 b 351 844 453 886 406 844 b 269 940 297 844 261 886 "},"":{"ha":472,"x_min":0,"x_max":0,"o":"m 369 153 b 438 42 358 76 383 56 l 432 0 l 43 0 l 49 42 b 147 153 106 56 136 76 l 210 597 b 142 708 221 674 196 694 l 147 750 l 536 750 l 531 708 b 432 597 474 694 443 674 m 600 965 l 589 889 l 131 889 l 142 965 "},"":{"ha":472,"x_min":0,"x_max":0,"o":"m 369 153 b 438 42 358 76 383 56 l 432 0 l 43 0 l 49 42 b 147 153 106 56 136 76 l 210 597 b 142 708 221 674 196 694 l 147 750 l 536 750 l 531 708 b 432 597 474 694 443 674 m 88 875 b 279 1056 125 935 215 1056 b 494 1000 335 1056 440 1000 b 604 1042 543 1000 578 1014 l 649 1014 b 465 847 611 956 529 847 b 244 903 400 847 310 903 b 132 847 194 903 158 874 "},"":{"ha":556,"x_min":0,"x_max":0,"o":"m 489 417 b 81 -14 457 194 324 -14 b 106 104 -92 -14 8 196 b 258 361 256 -37 235 194 l 292 597 b 224 708 303 674 278 694 l 229 750 l 618 750 l 613 708 b 514 597 556 694 525 674 m 290 833 l 221 833 l 429 1083 l 513 1083 l 651 833 l 582 833 l 450 938 "},"":{"ha":889,"x_min":0,"x_max":0,"o":"m 431 597 b 529 708 442 674 472 694 l 535 750 l 146 750 l 140 708 b 208 597 194 694 219 674 l 146 153 b 47 42 135 76 104 56 l 42 0 l 431 0 l 436 42 b 368 153 382 56 357 76 l 392 319 b 446 257 406 319 422 297 l 513 146 b 519 42 558 64 547 49 l 514 0 l 875 0 l 881 42 b 761 174 849 63 833 57 l 590 451 l 783 639 b 953 708 832 686 876 694 l 958 750 l 632 750 l 626 708 b 660 597 725 694 715 656 l 531 472 b 406 424 492 432 447 424 m 443 -50 b 549 -203 546 -50 557 -142 b 314 -478 529 -343 403 -447 l 292 -433 b 411 -247 431 -372 488 -247 b 335 -146 361 -247 325 -211 b 443 -50 342 -96 393 -50 "},"":{"ha":750,"x_min":0,"x_max":0,"o":"m 208 597 b 140 708 219 674 194 694 l 146 750 l 535 750 l 529 708 b 431 597 472 694 442 674 l 356 63 l 515 63 b 717 208 592 63 686 96 l 765 208 l 722 0 l 42 0 l 47 42 b 146 153 104 56 135 76 m 588 983 b 501 1069 689 1050 567 1153 l 335 860 l 360 833 "},"":{"ha":750,"x_min":0,"x_max":0,"o":"m 208 597 b 140 708 219 674 194 694 l 146 750 l 535 750 l 529 708 b 431 597 472 694 442 674 l 356 63 l 515 63 b 717 208 592 63 686 96 l 765 208 l 722 0 l 42 0 l 47 42 b 146 153 104 56 135 76 m 726 783 b 832 631 829 783 840 692 b 597 356 813 490 686 386 l 575 400 b 694 586 714 461 771 586 b 618 688 644 586 608 622 b 726 783 625 738 676 783 "},"":{"ha":750,"x_min":0,"x_max":0,"o":"m 208 597 b 140 708 219 674 194 694 l 146 750 l 535 750 l 529 708 b 431 597 472 694 442 674 l 356 63 l 515 63 b 717 208 592 63 686 96 l 765 208 l 722 0 l 42 0 l 47 42 b 146 153 104 56 135 76 m 397 -50 b 503 -203 500 -50 511 -142 b 268 -478 483 -343 357 -447 l 246 -433 b 365 -247 385 -372 442 -247 b 289 -146 315 -247 279 -211 b 397 -50 296 -96 347 -50 "},"":{"ha":750,"x_min":0,"x_max":0,"o":"m 208 597 b 140 708 219 674 194 694 l 146 750 l 535 750 l 529 708 b 431 597 472 694 442 674 l 356 63 l 515 63 b 717 208 592 63 686 96 l 765 208 l 722 0 l 42 0 l 47 42 b 146 153 104 56 135 76 m 528 401 b 636 497 535 456 582 497 b 719 401 690 497 726 456 b 610 306 711 347 664 306 b 528 401 556 306 519 347 "},"":{"ha":931,"x_min":0,"x_max":0,"o":"m 792 597 b 682 708 803 674 792 694 l 688 750 l 1007 750 l 1001 708 b 868 597 917 694 879 674 l 785 0 l 653 0 l 315 569 l 257 153 b 367 42 246 76 257 56 l 361 0 l 42 0 l 47 42 b 181 153 132 56 169 76 l 243 597 b 140 708 254 674 222 694 l 146 750 l 465 750 l 749 292 m 828 983 b 742 1069 929 1050 807 1153 l 575 860 l 600 833 "},"":{"ha":931,"x_min":0,"x_max":0,"o":"m 792 597 b 682 708 803 674 792 694 l 688 750 l 1007 750 l 1001 708 b 868 597 917 694 879 674 l 785 0 l 653 0 l 315 569 l 257 153 b 367 42 246 76 257 56 l 361 0 l 42 0 l 47 42 b 181 153 132 56 169 76 l 243 597 b 140 708 254 674 222 694 l 146 750 l 465 750 l 749 292 m 490 1083 l 421 1083 l 560 833 l 643 833 l 851 1083 l 782 1083 l 622 979 "},"":{"ha":931,"x_min":0,"x_max":0,"o":"m 792 597 b 682 708 803 674 792 694 l 688 750 l 1007 750 l 1001 708 b 868 597 917 694 879 674 l 785 0 l 653 0 l 315 569 l 257 153 b 367 42 246 76 257 56 l 361 0 l 42 0 l 47 42 b 181 153 132 56 169 76 l 243 597 b 140 708 254 674 222 694 l 146 750 l 465 750 l 749 292 m 446 -50 b 551 -203 549 -50 560 -142 b 317 -478 532 -343 406 -447 l 294 -433 b 414 -247 433 -372 490 -247 b 338 -146 364 -247 328 -211 b 446 -50 344 -96 396 -50 "},"":{"ha":917,"x_min":0,"x_max":0,"o":"m 93 375 b 565 764 129 625 346 764 b 926 375 785 764 963 625 b 456 -14 892 125 675 -14 b 93 375 236 -14 58 125 m 329 375 b 465 56 293 111 369 56 b 690 375 561 56 654 111 b 556 694 728 639 651 694 b 329 375 460 694 367 639 m 581 861 b 797 1071 706 861 783 969 l 731 1071 b 597 983 706 1000 640 983 b 489 1071 554 983 494 1000 l 422 1071 b 581 861 408 969 456 861 "},"":{"ha":917,"x_min":0,"x_max":0,"o":"m 93 375 b 565 764 129 625 346 764 b 926 375 785 764 963 625 b 456 -14 892 125 675 -14 b 93 375 236 -14 58 125 m 329 375 b 465 56 293 111 369 56 b 690 375 561 56 654 111 b 556 694 728 639 651 694 b 329 375 460 694 367 639 m 653 1046 b 538 1106 717 1125 572 1189 l 432 854 l 474 833 m 875 1046 b 760 1106 939 1125 794 1189 l 654 854 l 696 833 "},"":{"ha":917,"x_min":0,"x_max":0,"o":"m 93 375 b 565 764 129 625 346 764 b 926 375 785 764 963 625 b 456 -14 892 125 675 -14 b 93 375 236 -14 58 125 m 329 375 b 465 56 293 111 369 56 b 690 375 561 56 654 111 b 556 694 728 639 651 694 b 329 375 460 694 367 639 m 814 965 l 803 889 l 344 889 l 356 965 "},"":{"ha":917,"x_min":0,"x_max":0,"o":"m 806 983 b 719 1069 907 1050 785 1153 l 553 860 l 578 833 m 172 93 b 93 375 110 160 76 254 b 565 764 129 625 346 764 b 819 682 664 764 753 736 l 901 757 l 942 704 l 865 635 b 926 375 917 571 942 483 b 456 -14 892 125 675 -14 b 222 51 367 -14 285 8 l 142 -21 l 99 26 m 329 375 b 321 228 321 315 319 268 l 694 568 b 556 694 676 668 621 694 b 329 375 460 694 367 639 m 690 375 b 700 485 697 417 699 453 l 333 151 b 465 56 356 76 407 56 b 690 375 561 56 654 111 "},"":{"ha":847,"x_min":0,"x_max":0,"o":"m 740 983 b 654 1069 842 1050 719 1153 l 488 860 l 513 833 m 839 535 b 633 347 828 458 751 385 l 731 167 b 853 42 757 121 800 63 l 847 0 l 569 0 b 499 97 536 28 513 56 l 425 319 l 392 319 l 368 153 b 436 42 357 76 382 56 l 431 0 l 42 0 l 47 42 b 146 153 104 56 135 76 l 208 597 b 140 708 219 674 194 694 l 146 750 l 549 750 b 839 535 757 750 860 688 m 428 382 b 610 535 525 382 592 413 b 485 688 625 646 596 688 l 443 688 l 400 382 "},"":{"ha":847,"x_min":0,"x_max":0,"o":"m 413 1083 l 343 1083 l 482 833 l 565 833 l 774 1083 l 704 1083 l 544 979 m 839 535 b 633 347 828 458 751 385 l 731 167 b 853 42 757 121 800 63 l 847 0 l 569 0 b 499 97 536 28 513 56 l 425 319 l 392 319 l 368 153 b 436 42 357 76 382 56 l 431 0 l 42 0 l 47 42 b 146 153 104 56 135 76 l 208 597 b 140 708 219 674 194 694 l 146 750 l 549 750 b 839 535 757 750 860 688 m 428 382 b 610 535 525 382 592 413 b 485 688 625 646 596 688 l 443 688 l 400 382 "},"":{"ha":847,"x_min":0,"x_max":0,"o":"m 447 -50 b 553 -203 550 -50 561 -142 b 318 -478 533 -343 407 -447 l 296 -433 b 415 -247 435 -372 492 -247 b 339 -146 365 -247 329 -211 b 447 -50 346 -96 397 -50 m 839 535 b 633 347 828 458 751 385 l 731 167 b 853 42 757 121 800 63 l 847 0 l 569 0 b 499 97 536 28 513 56 l 425 319 l 392 319 l 368 153 b 436 42 357 76 382 56 l 431 0 l 42 0 l 47 42 b 146 153 104 56 135 76 l 208 597 b 140 708 219 674 194 694 l 146 750 l 549 750 b 839 535 757 750 860 688 m 428 382 b 610 535 525 382 592 413 b 485 688 625 646 596 688 l 443 688 l 400 382 "},"":{"ha":660,"x_min":0,"x_max":0,"o":"m 588 521 b 432 694 560 642 514 694 b 335 610 394 694 343 669 b 418 500 326 551 371 521 b 642 225 604 418 661 361 b 311 -14 622 82 482 -14 b 75 40 235 -14 131 7 l 89 243 l 143 243 b 306 56 167 69 261 56 b 417 157 353 56 407 89 b 294 299 422 197 410 247 b 118 551 153 364 100 422 b 435 764 135 669 238 764 b 653 715 506 764 596 744 l 639 521 m 653 983 b 567 1069 754 1050 632 1153 l 400 860 l 425 833 "},"":{"ha":660,"x_min":0,"x_max":0,"o":"m 588 521 b 432 694 560 642 514 694 b 335 610 394 694 343 669 b 418 500 326 551 371 521 b 642 225 604 418 661 361 b 311 -14 622 82 482 -14 b 75 40 235 -14 131 7 l 89 243 l 143 243 b 306 56 167 69 261 56 b 417 157 353 56 407 89 b 294 299 422 197 410 247 b 118 551 153 364 100 422 b 435 764 135 669 238 764 b 653 715 506 764 596 744 l 639 521 m 288 833 l 218 833 l 426 1083 l 510 1083 l 649 833 l 579 833 l 447 938 "},"":{"ha":660,"x_min":0,"x_max":0,"o":"m 588 521 b 432 694 560 642 514 694 b 335 610 394 694 343 669 b 418 500 326 551 371 521 b 642 225 604 418 661 361 b 311 -14 622 82 482 -14 b 75 40 235 -14 131 7 l 89 243 l 143 243 b 306 56 167 69 261 56 b 417 157 353 56 407 89 b 294 299 422 197 410 247 b 118 551 153 364 100 422 b 435 764 135 669 238 764 b 653 715 506 764 596 744 l 639 521 m 297 -50 b 403 -203 400 -50 411 -142 b 168 -478 383 -343 257 -447 l 146 -433 b 265 -247 285 -372 342 -247 b 189 -146 215 -247 179 -211 b 297 -50 196 -96 247 -50 "},"":{"ha":750,"x_min":0,"x_max":0,"o":"m 139 750 l 103 542 l 151 542 b 318 688 182 654 242 688 l 360 688 l 285 153 b 186 42 274 76 243 56 l 181 0 l 569 0 l 575 42 b 507 153 521 56 496 76 l 582 688 l 624 688 b 749 542 700 688 751 654 l 797 542 l 819 750 m 379 1083 l 310 1083 l 449 833 l 532 833 l 740 1083 l 671 1083 l 511 979 "},"":{"ha":750,"x_min":0,"x_max":0,"o":"m 139 750 l 103 542 l 151 542 b 318 688 182 654 242 688 l 360 688 l 285 153 b 186 42 274 76 243 56 l 181 0 l 569 0 l 575 42 b 507 153 521 56 496 76 l 582 688 l 624 688 b 749 542 700 688 751 654 l 797 542 l 819 750 m 350 -50 b 456 -203 453 -50 464 -142 b 221 -478 436 -343 310 -447 l 199 -433 b 318 -247 338 -372 394 -247 b 242 -146 268 -247 232 -211 b 350 -50 249 -96 300 -50 "},"":{"ha":972,"x_min":0,"x_max":0,"o":"m 826 597 b 710 708 838 674 819 694 l 715 750 l 1049 750 l 1043 708 b 903 597 944 694 914 674 l 865 333 b 476 -14 832 97 661 -14 b 157 333 247 -14 125 107 l 194 597 b 126 708 206 674 181 694 l 132 750 l 521 750 l 515 708 b 417 597 458 694 428 674 l 382 347 b 531 69 353 139 413 69 b 792 347 690 69 765 167 m 633 861 b 850 1071 758 861 836 969 l 783 1071 b 650 983 758 1000 693 983 b 542 1071 607 983 547 1000 l 475 1071 b 633 861 461 969 508 861 "},"":{"ha":972,"x_min":0,"x_max":0,"o":"m 826 597 b 710 708 838 674 819 694 l 715 750 l 1049 750 l 1043 708 b 903 597 944 694 914 674 l 865 333 b 476 -14 832 97 661 -14 b 157 333 247 -14 125 107 l 194 597 b 126 708 206 674 181 694 l 132 750 l 521 750 l 515 708 b 417 597 458 694 428 674 l 382 347 b 531 69 353 139 413 69 b 792 347 690 69 765 167 m 703 1046 b 588 1106 767 1125 622 1189 l 482 854 l 524 833 m 925 1046 b 810 1106 989 1125 844 1189 l 704 854 l 746 833 "},"":{"ha":972,"x_min":0,"x_max":0,"o":"m 826 597 b 710 708 838 674 819 694 l 715 750 l 1049 750 l 1043 708 b 903 597 944 694 914 674 l 865 333 b 476 -14 832 97 661 -14 b 157 333 247 -14 125 107 l 194 597 b 126 708 206 674 181 694 l 132 750 l 521 750 l 515 708 b 417 597 458 694 428 674 l 382 347 b 531 69 353 139 413 69 b 792 347 690 69 765 167 m 878 965 l 867 889 l 408 889 l 419 965 "},"":{"ha":972,"x_min":0,"x_max":0,"o":"m 826 597 b 710 708 838 674 819 694 l 715 750 l 1049 750 l 1043 708 b 903 597 944 694 914 674 l 865 333 b 476 -14 832 97 661 -14 b 157 333 247 -14 125 107 l 194 597 b 126 708 206 674 181 694 l 132 750 l 521 750 l 515 708 b 417 597 458 694 428 674 l 382 347 b 531 69 353 139 413 69 b 792 347 690 69 765 167 m 513 954 b 665 1089 524 1029 589 1089 b 781 954 740 1089 792 1029 b 628 821 769 878 703 821 b 513 954 551 821 501 878 m 571 954 b 635 879 565 913 593 879 b 722 954 678 879 717 913 b 657 1031 728 997 700 1031 b 571 954 615 1031 576 997 "},"":{"ha":972,"x_min":0,"x_max":0,"o":"m 826 597 b 710 708 838 674 819 694 l 715 750 l 1049 750 l 1043 708 b 903 597 944 694 914 674 l 865 333 b 476 -14 832 97 661 -14 b 157 333 247 -14 125 107 l 194 597 b 126 708 206 674 181 694 l 132 750 l 521 750 l 515 708 b 417 597 458 694 428 674 l 382 347 b 531 69 353 139 413 69 b 792 347 690 69 765 167 m 369 875 b 561 1056 407 935 497 1056 b 776 1000 617 1056 722 1000 b 886 1042 825 1000 860 1014 l 931 1014 b 747 847 893 956 811 847 b 526 903 682 847 592 903 b 414 847 476 903 440 874 "},"":{"ha":1222,"x_min":0,"x_max":0,"o":"m 640 538 l 479 231 l 476 231 l 415 583 b 474 708 401 654 403 694 l 479 750 l 104 750 l 99 708 b 164 625 138 688 153 672 l 311 -7 l 426 -7 l 661 451 l 749 -7 l 865 -7 l 1192 625 b 1321 708 1219 681 1251 694 l 1326 750 l 1021 750 l 1015 708 b 1089 583 1113 694 1125 654 l 915 231 l 913 231 l 860 583 b 932 708 849 657 861 694 l 938 750 l 563 750 l 557 708 b 622 625 596 688 613 672 m 981 983 b 894 1069 1082 1050 960 1153 l 728 860 l 753 833 "},"":{"ha":1222,"x_min":0,"x_max":0,"o":"m 640 538 l 479 231 l 476 231 l 415 583 b 474 708 401 654 403 694 l 479 750 l 104 750 l 99 708 b 164 625 138 688 153 672 l 311 -7 l 426 -7 l 661 451 l 749 -7 l 865 -7 l 1192 625 b 1321 708 1219 681 1251 694 l 1326 750 l 1021 750 l 1015 708 b 1089 583 1113 694 1125 654 l 915 231 l 913 231 l 860 583 b 932 708 849 657 861 694 l 938 750 l 563 750 l 557 708 b 622 625 596 688 613 672 m 613 833 l 543 833 l 751 1083 l 835 1083 l 974 833 l 904 833 l 772 938 "},"":{"ha":1222,"x_min":0,"x_max":0,"o":"m 640 538 l 479 231 l 476 231 l 415 583 b 474 708 401 654 403 694 l 479 750 l 104 750 l 99 708 b 164 625 138 688 153 672 l 311 -7 l 426 -7 l 661 451 l 749 -7 l 865 -7 l 1192 625 b 1321 708 1219 681 1251 694 l 1326 750 l 1021 750 l 1015 708 b 1089 583 1113 694 1125 654 l 915 231 l 913 231 l 860 583 b 932 708 849 657 861 694 l 938 750 l 563 750 l 557 708 b 622 625 596 688 613 672 m 549 924 b 650 1014 556 976 600 1014 b 728 924 701 1014 735 976 b 625 836 721 871 676 836 b 549 924 575 836 542 871 m 819 924 b 922 1014 826 976 871 1014 b 999 924 972 1014 1006 976 b 897 836 992 871 947 836 b 819 924 846 836 813 871 "},"":{"ha":1222,"x_min":0,"x_max":0,"o":"m 640 538 l 479 231 l 476 231 l 415 583 b 474 708 401 654 403 694 l 479 750 l 104 750 l 99 708 b 164 625 138 688 153 672 l 311 -7 l 426 -7 l 661 451 l 749 -7 l 865 -7 l 1192 625 b 1321 708 1219 681 1251 694 l 1326 750 l 1021 750 l 1015 708 b 1089 583 1113 694 1125 654 l 915 231 l 913 231 l 860 583 b 932 708 849 657 861 694 l 938 750 l 563 750 l 557 708 b 622 625 596 688 613 672 m 568 983 b 679 1069 486 1050 636 1153 l 785 860 l 754 833 "},"":{"ha":778,"x_min":0,"x_max":0,"o":"m 329 226 l 319 153 b 221 42 308 76 278 56 l 215 0 l 604 0 l 610 42 b 542 153 556 56 531 76 l 561 293 l 754 625 b 890 708 786 681 821 694 l 896 750 l 590 750 l 585 708 b 650 576 682 694 690 644 l 506 333 l 503 333 l 408 583 b 446 708 382 650 375 694 l 451 750 l 90 750 l 85 708 b 164 625 124 688 144 669 m 388 833 l 318 833 l 526 1083 l 610 1083 l 749 833 l 679 833 l 547 938 "},"":{"ha":778,"x_min":0,"x_max":0,"o":"m 329 226 l 319 153 b 221 42 308 76 278 56 l 215 0 l 604 0 l 610 42 b 542 153 556 56 531 76 l 561 293 l 754 625 b 890 708 786 681 821 694 l 896 750 l 590 750 l 585 708 b 650 576 682 694 690 644 l 506 333 l 503 333 l 408 583 b 446 708 382 650 375 694 l 451 750 l 90 750 l 85 708 b 164 625 124 688 144 669 m 335 983 b 446 1069 253 1050 403 1153 l 551 860 l 521 833 "},"":{"ha":743,"x_min":0,"x_max":0,"o":"m 781 667 l 792 750 l 176 750 l 140 542 l 189 542 b 383 688 219 654 304 688 l 547 688 l 44 69 l 35 0 l 688 0 l 731 208 l 682 208 b 481 63 651 96 564 63 l 293 63 m 697 983 b 611 1069 799 1050 676 1153 l 444 860 l 469 833 "},"":{"ha":743,"x_min":0,"x_max":0,"o":"m 781 667 l 792 750 l 176 750 l 140 542 l 189 542 b 383 688 219 654 304 688 l 547 688 l 44 69 l 35 0 l 688 0 l 731 208 l 682 208 b 481 63 651 96 564 63 l 293 63 m 422 940 b 531 1036 429 994 476 1036 b 614 940 585 1036 621 994 b 504 844 606 886 558 844 b 422 940 450 844 414 886 "},"ă":{"ha":818,"x_min":0,"x_max":0,"o":""},"ā":{"ha":818,"x_min":0,"x_max":0,"o":""},"ą":{"ha":818,"x_min":0,"x_max":0,"o":"m 731 -222 b 686 -11 554 -290 567 -121 b 881 188 804 1 849 86 l 832 208 b 756 97 797 122 781 97 b 728 153 743 97 722 110 l 807 701 l 751 701 l 676 661 b 514 708 622 700 554 708 b 106 347 340 708 147 594 b 307 -14 71 139 154 -14 b 504 150 404 -14 465 63 l 507 150 b 619 -11 492 64 522 0 b 590 -326 428 -146 424 -326 b 724 -271 632 -326 694 -303 m 390 104 b 333 347 335 104 306 167 b 500 653 364 553 421 653 b 549 444 571 653 567 576 l 539 375 b 390 104 515 208 446 104 "},"ǽ":{"ha":1035,"x_min":0,"x_max":0,"o":"m 893 914 b 807 1000 994 981 872 1083 l 640 790 l 665 764 m 329 125 b 443 160 350 125 390 125 b 425 285 429 194 422 236 l 350 271 b 275 181 301 261 275 238 b 329 125 275 153 292 125 m 714 -14 b 472 97 596 -14 518 29 b 178 -14 333 -6 251 -14 b 49 153 96 -14 35 58 b 251 313 61 239 139 294 l 426 340 l 446 458 b 379 625 464 569 463 625 b 283 486 254 625 250 521 b 114 417 333 432 129 369 b 474 708 86 504 265 708 b 639 656 546 708 603 690 b 854 708 715 697 790 708 b 657 310 1135 708 1144 335 b 807 146 663 192 726 146 b 1000 236 904 146 965 188 l 1042 236 b 714 -14 999 125 888 -14 m 813 639 b 661 367 740 639 674 539 b 813 639 838 385 903 639 "},"ć":{"ha":717,"x_min":0,"x_max":0,"o":""},"č":{"ha":717,"x_min":0,"x_max":0,"o":""},"ĉ":{"ha":717,"x_min":0,"x_max":0,"o":""},"ċ":{"ha":717,"x_min":0,"x_max":0,"o":""},"ď":{"ha":863,"x_min":0,"x_max":0,"o":"m 390 104 b 539 375 446 104 515 208 l 576 639 b 333 347 449 681 369 586 b 390 104 306 167 335 104 m 608 861 b 553 965 618 931 593 951 l 558 1007 l 846 1069 l 860 1069 l 731 153 b 758 97 725 110 746 97 b 835 208 783 97 800 122 l 883 188 b 654 -14 849 76 796 -14 b 508 150 532 -14 492 56 l 506 150 b 307 -14 467 63 404 -14 b 106 347 154 -14 71 139 b 585 694 154 639 397 750 m 1061 1089 b 1167 936 1164 1089 1175 997 b 932 661 1147 796 1021 692 l 910 706 b 1029 892 1049 767 1106 892 b 953 993 979 892 943 928 b 1061 1089 960 1043 1011 1089 "},"đ":{"ha":831,"x_min":0,"x_max":0,"o":"m 390 104 b 539 375 446 104 515 208 l 576 639 b 333 347 449 681 369 586 b 390 104 306 167 335 104 m 654 -14 b 508 150 532 -14 492 56 l 506 150 b 307 -14 467 63 404 -14 b 106 347 154 -14 71 139 b 585 694 154 639 397 750 l 593 757 l 524 757 l 532 819 l 603 819 l 608 861 b 553 965 618 931 593 951 l 558 1007 l 846 1069 l 860 1069 l 825 819 l 907 819 l 899 757 l 815 757 l 731 153 b 758 97 725 110 746 97 b 835 208 783 97 800 122 l 883 188 b 654 -14 849 76 796 -14 "},"ĕ":{"ha":721,"x_min":0,"x_max":0,"o":""},"ě":{"ha":721,"x_min":0,"x_max":0,"o":""},"ė":{"ha":721,"x_min":0,"x_max":0,"o":""},"ē":{"ha":721,"x_min":0,"x_max":0,"o":""},"ę":{"ha":721,"x_min":0,"x_max":0,"o":"m 456 -271 b 322 -326 426 -303 364 -326 b 350 -12 157 -326 160 -147 b 104 340 142 -1 78 160 b 496 708 138 576 335 708 b 325 307 867 708 803 250 b 474 146 331 189 393 146 b 667 236 571 146 632 188 l 708 236 b 419 -11 668 135 569 10 b 463 -222 299 -119 286 -290 m 479 639 b 328 363 407 639 340 535 b 479 639 551 350 617 639 "},"ğ":{"ha":749,"x_min":0,"x_max":0,"o":""},"ĝ":{"ha":749,"x_min":0,"x_max":0,"o":""},"ģ":{"ha":749,"x_min":0,"x_max":0,"o":"m 318 451 b 390 271 310 321 342 271 b 493 457 460 271 483 339 b 428 639 503 576 481 639 b 318 451 368 639 326 581 m 243 -76 b 222 -208 229 -125 222 -153 b 361 -306 222 -285 292 -306 b 542 -181 444 -306 542 -274 b 431 -104 542 -132 490 -112 m 246 229 b 103 454 160 257 89 347 b 444 708 125 604 271 708 b 614 674 528 708 567 690 l 818 694 l 806 611 l 667 611 l 667 608 b 708 458 694 579 717 521 b 374 201 686 299 547 201 b 292 215 346 201 313 208 b 257 167 278 203 257 186 b 326 132 257 146 274 138 l 506 111 b 736 -83 674 92 736 14 b 306 -375 736 -254 500 -375 b 28 -236 133 -375 28 -326 b 201 -62 28 -153 103 -107 b 90 63 169 -50 90 -28 b 246 229 90 139 163 188 m 556 1186 b 661 1033 658 1186 669 1094 b 426 758 642 893 515 789 l 404 803 b 524 989 543 864 600 989 b 447 1090 474 989 438 1025 b 556 1186 454 1140 506 1186 "},"ġ":{"ha":749,"x_min":0,"x_max":0,"o":""},"ħ":{"ha":806,"x_min":0,"x_max":0,"o":"m 189 757 l 119 757 l 128 819 l 199 819 l 204 861 b 149 965 214 931 215 965 l 154 1007 l 444 1069 l 456 1069 l 419 819 l 503 819 l 494 757 l 410 757 l 375 514 l 378 514 b 633 708 435 635 532 708 b 764 500 726 708 786 653 l 715 153 b 743 97 710 110 731 97 b 819 208 768 97 785 122 l 868 188 b 639 -14 833 76 781 -14 b 493 153 517 -14 479 56 l 540 486 b 507 569 549 549 542 569 b 347 299 450 569 365 431 l 306 0 l 83 0 "},"ĥ":{"ha":806,"x_min":0,"x_max":0,"o":""},"ĭ":{"ha":474,"x_min":0,"x_max":0,"o":""},"ī":{"ha":474,"x_min":0,"x_max":0,"o":""},"į":{"ha":474,"x_min":0,"x_max":0,"o":"m 365 -271 b 232 -326 336 -303 274 -326 b 264 -10 65 -326 69 -144 b 161 153 176 4 149 68 l 215 542 b 188 597 221 585 200 597 b 111 486 163 597 146 572 l 63 507 b 292 708 97 618 150 708 b 438 544 414 708 450 639 l 383 153 b 411 97 378 110 399 97 b 488 208 436 97 453 122 l 536 188 b 326 -12 503 81 454 -6 b 372 -222 208 -122 197 -290 m 256 940 b 401 1069 265 1011 331 1069 b 513 940 472 1069 522 1011 b 365 813 501 869 436 813 b 256 940 294 813 244 869 "},"ĩ":{"ha":474,"x_min":0,"x_max":0,"o":""},"ĳ":{"ha":860,"x_min":0,"x_max":0,"o":"m 215 542 b 188 597 221 585 200 597 b 111 486 163 597 146 572 l 63 507 b 292 708 97 618 150 708 b 438 544 414 708 450 639 l 383 153 b 411 97 378 110 399 97 b 488 208 436 97 453 122 l 536 188 b 307 -14 501 76 449 -14 b 161 153 185 -14 147 56 m 256 940 b 401 1069 265 1011 331 1069 b 513 940 472 1069 522 1011 b 365 813 501 869 436 813 b 256 940 294 813 244 869 m 646 542 b 618 597 651 585 631 597 b 542 486 593 597 576 572 l 493 507 b 722 708 528 618 581 708 b 868 549 844 708 882 643 l 800 63 b 449 -375 765 -181 558 -375 b 454 -236 296 -375 376 -194 b 578 63 622 -328 547 -153 m 685 940 b 831 1069 694 1011 760 1069 b 942 940 901 1069 951 1011 b 794 813 931 869 865 813 b 685 940 724 813 674 869 "},"ĵ":{"ha":433,"x_min":0,"x_max":0,"o":"m 222 542 b 194 597 228 585 207 597 b 118 486 169 597 153 572 l 69 507 b 299 708 104 618 157 708 b 444 549 421 708 458 643 l 376 63 b 25 -375 342 -181 135 -375 b 31 -236 -128 -375 -47 -194 b 154 63 199 -328 124 -153 m 218 764 l 149 764 l 357 1014 l 440 1014 l 579 764 l 510 764 l 378 868 "},"":{"ha":433,"x_min":0,"x_max":0,"o":"m 222 542 b 194 597 228 585 207 597 b 118 486 169 597 153 572 l 69 507 b 299 708 104 618 157 708 b 444 549 421 708 458 643 l 376 63 b 25 -375 342 -181 135 -375 b 31 -236 -128 -375 -47 -194 b 154 63 199 -328 124 -153 "},"ķ":{"ha":819,"x_min":0,"x_max":0,"o":"m 361 397 b 613 625 536 435 625 524 b 764 625 597 736 772 736 b 575 408 760 569 710 471 l 674 176 b 747 111 693 129 717 111 b 833 208 772 111 803 129 l 882 188 b 639 -14 838 71 781 -14 b 460 115 542 -14 492 28 l 374 354 b 354 351 367 353 361 353 l 306 0 l 83 0 l 204 861 b 149 965 214 931 215 965 l 154 1007 l 444 1069 l 456 1069 m 404 -50 b 510 -203 507 -50 518 -142 b 275 -478 490 -343 364 -447 l 253 -433 b 372 -247 392 -372 449 -247 b 296 -146 322 -247 286 -211 b 404 -50 303 -96 354 -50 "},"ĸ":{"ha":819,"x_min":0,"x_max":0,"o":"m 361 397 b 613 625 536 435 625 524 b 764 625 597 736 772 736 b 575 408 760 569 710 471 l 674 176 b 747 111 693 129 717 111 b 833 208 772 111 803 129 l 882 188 b 639 -14 838 71 781 -14 b 460 115 542 -14 492 28 l 374 354 b 354 351 367 353 361 353 l 306 0 l 83 0 l 153 500 b 97 604 163 569 164 604 l 103 646 l 393 708 l 404 708 "},"ĺ":{"ha":419,"x_min":0,"x_max":0,"o":"m 322 153 b 350 97 317 110 338 97 b 426 208 375 97 392 122 l 475 188 b 246 -14 440 76 388 -14 b 100 153 124 -14 86 56 l 200 861 b 144 965 210 931 211 965 l 150 1007 l 440 1069 l 451 1069 m 533 1275 b 447 1361 635 1342 513 1444 l 281 1151 l 306 1125 "},"ľ":{"ha":422,"x_min":0,"x_max":0,"o":"m 322 153 b 350 97 317 110 338 97 b 426 208 375 97 392 122 l 475 188 b 246 -14 440 76 388 -14 b 100 153 124 -14 86 56 l 200 861 b 144 965 210 931 211 965 l 150 1007 l 440 1069 l 451 1069 m 640 1089 b 746 936 743 1089 754 997 b 511 661 726 796 600 692 l 489 706 b 608 892 628 767 685 892 b 532 993 558 892 522 928 b 640 1089 539 1043 590 1089 "},"ļ":{"ha":415,"x_min":0,"x_max":0,"o":"m 325 153 b 353 97 319 110 340 97 b 429 208 378 97 394 122 l 478 188 b 249 -14 443 76 390 -14 b 103 153 126 -14 89 56 l 203 861 b 147 965 213 931 214 965 l 153 1007 l 443 1069 l 454 1069 m 199 -50 b 304 -203 301 -50 313 -142 b 69 -478 285 -343 158 -447 l 47 -433 b 167 -247 186 -372 243 -247 b 90 -146 117 -247 81 -211 b 199 -50 97 -96 149 -50 "},"ŀ":{"ha":506,"x_min":0,"x_max":0,"o":"m 322 153 b 350 97 317 110 338 97 b 426 208 375 97 392 122 l 475 188 b 246 -14 440 76 388 -14 b 100 153 124 -14 86 56 l 200 861 b 144 965 210 931 211 965 l 150 1007 l 440 1069 l 451 1069 m 449 497 b 551 588 457 550 501 588 b 626 497 601 588 635 550 b 526 410 619 444 576 410 b 449 497 476 410 442 444 "},"ń":{"ha":863,"x_min":0,"x_max":0,"o":""},"ŉ":{"ha":863,"x_min":0,"x_max":0,"o":"m 432 514 l 435 514 b 690 708 492 635 589 708 b 821 500 783 708 843 653 l 772 153 b 800 97 767 110 788 97 b 876 208 825 97 842 122 l 925 188 b 696 -14 890 76 838 -14 b 550 153 574 -14 536 56 l 597 486 b 564 569 606 549 599 569 b 404 299 507 569 422 431 l 363 0 l 140 0 l 215 542 b 188 597 221 585 200 597 b 111 486 163 597 146 572 l 63 507 b 292 708 97 618 150 708 b 438 544 414 708 454 639 m 396 1186 b 501 1033 499 1186 510 1094 b 267 758 482 893 356 789 l 244 803 b 364 989 383 864 440 989 b 288 1090 314 989 278 1025 b 396 1186 294 1140 346 1186 "},"ň":{"ha":863,"x_min":0,"x_max":0,"o":""},"ņ":{"ha":863,"x_min":0,"x_max":0,"o":"m 432 514 l 435 514 b 690 708 492 635 589 708 b 821 500 783 708 843 653 l 772 153 b 800 97 767 110 788 97 b 876 208 825 97 842 122 l 925 188 b 696 -14 890 76 838 -14 b 550 153 574 -14 536 56 l 597 486 b 564 569 606 549 599 569 b 404 299 507 569 422 431 l 363 0 l 140 0 l 215 542 b 188 597 221 585 200 597 b 111 486 163 597 146 572 l 63 507 b 292 708 97 618 150 708 b 438 544 414 708 454 639 m 458 -50 b 564 -203 561 -50 572 -142 b 329 -478 544 -343 418 -447 l 307 -433 b 426 -247 446 -372 503 -247 b 350 -146 376 -247 340 -211 b 458 -50 357 -96 408 -50 "},"ŏ":{"ha":776,"x_min":0,"x_max":0,"o":""},"ő":{"ha":776,"x_min":0,"x_max":0,"o":""},"ō":{"ha":776,"x_min":0,"x_max":0,"o":""},"ǿ":{"ha":776,"x_min":0,"x_max":0,"o":"m 731 914 b 644 1000 832 981 710 1083 l 478 790 l 503 764 m 729 589 b 769 347 769 525 783 440 b 378 -14 736 147 585 -14 b 183 53 296 -14 229 10 l 115 -14 l 69 35 l 140 104 b 103 347 100 168 88 253 b 492 708 133 547 283 708 b 686 639 574 708 639 682 l 757 708 l 801 660 m 339 347 b 332 292 336 328 333 308 l 547 503 b 476 639 549 599 528 639 b 339 347 403 639 368 556 m 533 347 b 540 403 536 367 539 386 l 324 190 b 394 56 322 96 343 56 b 533 347 468 56 504 139 "},"ŕ":{"ha":664,"x_min":0,"x_max":0,"o":""},"ř":{"ha":664,"x_min":0,"x_max":0,"o":""},"ŗ":{"ha":664,"x_min":0,"x_max":0,"o":"m 619 514 b 626 708 736 496 763 708 b 435 514 539 708 492 635 l 432 514 l 438 544 b 292 708 454 639 414 708 b 63 507 150 708 97 618 l 111 486 b 188 597 146 572 163 597 b 215 542 200 597 221 585 l 140 0 l 363 0 l 404 299 b 619 514 422 431 469 538 m 228 -50 b 333 -203 331 -50 342 -142 b 99 -478 314 -343 188 -447 l 76 -433 b 196 -247 215 -372 272 -247 b 119 -146 146 -247 110 -211 b 228 -50 126 -96 178 -50 "},"ś":{"ha":667,"x_min":0,"x_max":0,"o":""},"ş":{"ha":667,"x_min":0,"x_max":0,"o":"m 317 56 b 413 146 361 56 404 83 b 306 271 417 179 411 222 b 144 507 175 331 128 389 b 436 708 160 618 256 708 b 678 535 610 708 692 626 b 572 465 674 511 656 465 b 499 538 503 465 492 508 b 433 639 519 633 454 639 b 346 563 399 639 354 618 b 424 465 339 507 379 485 b 631 208 593 389 647 333 b 350 -12 613 85 496 -1 l 344 -56 b 479 -197 338 -106 497 -75 b 203 -368 465 -285 306 -354 l 199 -306 b 329 -215 242 -292 321 -274 b 286 -69 339 -142 268 -160 l 299 -12 b 79 160 140 -6 65 72 b 185 229 83 183 101 229 b 258 157 254 229 265 186 b 317 56 238 61 296 56 "},"ŝ":{"ha":667,"x_min":0,"x_max":0,"o":""},"ș":{"ha":667,"x_min":0,"x_max":0,"o":"m 317 56 b 413 146 361 56 404 83 b 306 271 417 179 411 222 b 144 507 175 331 128 389 b 436 708 160 618 256 708 b 678 535 610 708 692 626 b 572 465 674 511 656 465 b 499 538 503 465 492 508 b 433 639 519 633 454 639 b 346 563 399 639 354 618 b 424 465 339 507 379 485 b 631 208 593 389 647 333 b 321 -14 611 76 481 -14 b 79 160 147 -14 65 68 b 185 229 83 183 101 229 b 258 157 254 229 265 186 b 317 56 238 61 296 56 m 303 -50 b 408 -203 406 -50 417 -142 b 174 -478 389 -343 263 -447 l 151 -433 b 271 -247 290 -372 347 -247 b 194 -146 221 -247 185 -211 b 303 -50 201 -96 253 -50 "},"ŧ":{"ha":486,"x_min":0,"x_max":0,"o":"m 326 153 b 354 97 321 110 342 97 b 444 208 379 97 410 122 l 493 188 b 250 -14 458 76 392 -14 b 104 153 128 -14 90 56 l 140 410 l 85 410 l 93 472 l 149 472 l 169 618 l 114 618 l 124 688 l 182 708 l 376 903 l 432 903 l 403 694 l 542 694 l 531 618 l 392 618 l 371 472 l 468 472 l 460 410 l 363 410 "},"ť":{"ha":528,"x_min":0,"x_max":0,"o":"m 326 153 b 354 97 321 110 342 97 b 444 208 379 97 410 122 l 493 188 b 250 -14 458 76 392 -14 b 104 153 128 -14 90 56 l 169 618 l 114 618 l 124 688 l 182 708 l 376 903 l 432 903 l 403 694 l 542 694 l 531 618 l 392 618 m 622 1172 b 728 1019 725 1172 736 1081 b 493 744 708 879 582 775 l 471 789 b 590 975 610 850 667 975 b 514 1076 540 975 504 1011 b 622 1172 521 1126 572 1172 "},"ţ":{"ha":486,"x_min":0,"x_max":0,"o":"m 326 153 b 354 97 321 110 342 97 b 444 208 379 97 410 122 l 493 188 b 250 -14 458 76 392 -14 b 104 153 128 -14 90 56 l 169 618 l 114 618 l 124 688 l 182 708 l 376 903 l 432 903 l 403 694 l 542 694 l 531 618 l 392 618 m 228 -50 b 333 -203 331 -50 342 -142 b 99 -478 314 -343 188 -447 l 76 -433 b 196 -247 215 -372 272 -247 b 119 -146 146 -247 110 -211 b 228 -50 126 -96 178 -50 "},"ț":{"ha":486,"x_min":0,"x_max":0,"o":"m 326 153 b 354 97 321 110 342 97 b 444 208 379 97 410 122 l 493 188 b 250 -14 458 76 392 -14 b 104 153 128 -14 90 56 l 169 618 l 114 618 l 124 688 l 182 708 l 376 903 l 432 903 l 403 694 l 542 694 l 531 618 l 392 618 m 228 -53 b 333 -206 331 -53 342 -144 b 99 -481 314 -346 188 -450 l 76 -436 b 196 -250 215 -375 272 -250 b 119 -149 146 -250 110 -214 b 228 -53 126 -99 178 -53 "},"ŭ":{"ha":863,"x_min":0,"x_max":0,"o":""},"ű":{"ha":863,"x_min":0,"x_max":0,"o":""},"ū":{"ha":863,"x_min":0,"x_max":0,"o":""},"ų":{"ha":863,"x_min":0,"x_max":0,"o":"m 767 -271 b 633 -326 738 -303 675 -326 b 663 -11 467 -326 471 -146 b 550 150 567 0 535 64 l 556 181 l 553 181 b 297 -14 496 60 399 -14 b 167 194 204 -14 144 42 l 215 542 b 188 597 221 585 200 597 b 111 486 163 597 146 572 l 63 507 b 292 708 97 618 150 708 b 438 542 414 708 451 639 l 390 208 b 424 125 382 146 389 125 b 583 396 481 125 565 264 l 625 694 l 847 694 l 772 153 b 800 97 767 110 788 97 b 876 208 825 97 842 122 l 925 188 b 729 -11 893 85 847 1 b 774 -222 610 -121 597 -290 "},"ů":{"ha":863,"x_min":0,"x_max":0,"o":""},"ũ":{"ha":863,"x_min":0,"x_max":0,"o":""},"ẃ":{"ha":1199,"x_min":0,"x_max":0,"o":""},"ŵ":{"ha":1199,"x_min":0,"x_max":0,"o":""},"ẅ":{"ha":1199,"x_min":0,"x_max":0,"o":""},"ẁ":{"ha":1199,"x_min":0,"x_max":0,"o":""},"ŷ":{"ha":814,"x_min":0,"x_max":0,"o":""},"ỳ":{"ha":814,"x_min":0,"x_max":0,"o":""},"ź":{"ha":688,"x_min":0,"x_max":0,"o":""},"ż":{"ha":688,"x_min":0,"x_max":0,"o":""},"Ŋ":{"ha":1014,"x_min":0,"x_max":0,"o":"m 771 -139 b 492 -257 758 -235 676 -353 b 468 -375 372 -194 294 -375 b 868 0 742 -375 836 -222 l 982 819 b 1117 931 993 896 1031 917 l 1122 972 l 803 972 l 797 931 b 906 819 906 917 917 896 l 838 333 l 525 972 l 178 972 l 172 931 b 274 819 253 917 285 896 l 181 153 b 47 42 169 76 132 56 l 42 0 l 361 0 l 367 42 b 257 153 257 56 246 76 l 347 792 l 781 -76 "},"ŋ":{"ha":806,"x_min":0,"x_max":0,"o":"m 568 486 b 535 569 576 549 569 569 b 375 299 478 569 393 431 l 333 0 l 111 0 l 186 542 b 158 597 192 585 171 597 b 82 486 133 597 117 572 l 33 507 b 263 708 68 618 121 708 b 408 544 385 708 425 639 l 403 514 l 406 514 b 661 708 463 635 560 708 b 792 500 754 708 813 653 l 731 63 b 379 -375 697 -181 489 -375 b 385 -236 226 -375 307 -194 b 508 63 553 -328 478 -153 "},"ſ":{"ha":431,"x_min":0,"x_max":0,"o":"m 328 63 b -24 -375 293 -181 86 -375 b -18 -236 -176 -375 -96 -194 b 106 63 150 -328 75 -153 l 194 694 b 594 1069 226 917 492 1069 b 589 931 747 1069 665 889 b 417 694 418 1022 447 908 "},"₣":{"ha":799,"x_min":0,"x_max":0,"o":"m 161 264 l 239 819 b 172 931 250 896 225 917 l 178 972 l 900 972 l 874 736 l 825 736 b 676 910 826 849 753 910 l 475 910 l 417 500 l 500 500 b 671 646 576 500 643 535 l 719 646 l 669 292 l 621 292 b 492 438 624 403 568 438 l 408 438 l 383 264 l 508 264 l 500 201 l 375 201 l 368 153 b 436 42 357 76 382 56 l 431 0 l 42 0 l 47 42 b 146 153 104 56 135 76 l 153 201 l 69 201 l 78 264 "},"₤":{"ha":885,"x_min":0,"x_max":0,"o":"m 264 569 b 268 656 265 597 267 626 b 650 986 278 882 460 986 b 886 813 824 986 901 901 b 763 715 878 764 846 715 b 692 788 693 715 686 758 b 617 910 717 889 685 910 b 486 778 571 910 506 882 b 467 569 476 724 474 650 l 635 569 l 626 507 l 460 507 b 438 403 454 472 447 438 l 611 403 l 603 340 l 419 340 b 250 101 388 253 336 168 l 250 99 b 618 111 468 208 532 144 b 793 194 682 86 747 94 l 842 194 b 510 -51 818 136 728 -90 b 83 0 444 -40 267 76 l 64 63 b 246 340 178 125 225 224 l 144 340 l 153 403 l 254 403 b 263 507 258 436 261 471 l 168 507 l 176 569 "},"₧":{"ha":1028,"x_min":0,"x_max":0,"o":"m 254 729 l 267 819 b 200 931 278 896 253 917 l 206 972 l 664 972 b 947 729 863 972 958 871 l 1060 729 l 1051 667 l 938 667 b 514 403 901 538 776 403 l 431 403 l 396 153 b 464 42 385 76 410 56 l 458 0 l 69 0 l 75 42 b 174 153 132 56 163 76 l 246 667 l 163 667 l 171 729 m 496 465 b 710 667 624 465 688 556 l 468 667 l 440 465 m 476 729 l 718 729 b 600 910 725 826 699 910 l 503 910 "},"‼":{"ha":778,"x_min":0,"x_max":0,"o":"m 132 88 b 249 189 140 143 193 189 b 335 88 304 189 343 143 b 219 -14 328 32 275 -14 b 132 88 164 -14 125 32 m 235 278 l 251 947 b 374 1069 254 1025 304 1069 b 454 947 443 1069 474 1025 l 290 278 m 465 88 b 582 189 474 143 526 189 b 668 88 638 189 676 143 b 553 -14 661 32 608 -14 b 465 88 497 -14 458 32 m 568 278 l 585 947 b 707 1069 588 1025 638 1069 b 788 947 776 1069 807 1025 l 624 278 "},"∕":{"ha":667,"x_min":0,"x_max":0,"o":"m 610 1069 l 113 -83 l 196 -83 l 692 1069 "},"∙":{"ha":494,"x_min":0,"x_max":0,"o":"m 163 344 b 314 476 174 417 242 476 b 426 344 386 476 438 417 b 276 213 417 272 349 213 b 163 344 204 213 153 272 "},"≤":{"ha":778,"x_min":0,"x_max":0,"o":"m 282 374 l 733 581 l 746 671 l 179 393 l 174 351 l 560 132 l 143 132 l 132 56 l 660 56 l 675 164 "},"≈":{"ha":764,"x_min":0,"x_max":0,"o":"m 171 431 b 363 611 208 490 299 611 b 572 514 418 611 518 514 b 688 597 621 514 661 569 l 732 569 b 549 403 694 511 613 403 b 333 500 483 403 399 500 b 215 403 283 500 242 429 m 142 222 b 333 403 179 282 269 403 b 542 306 389 403 488 306 b 658 389 590 306 632 361 l 703 361 b 519 194 665 303 583 194 b 304 292 454 194 369 292 b 186 194 254 292 213 221 "},"≠":{"ha":778,"x_min":0,"x_max":0,"o":"m 369 313 l 421 431 l 185 431 l 196 507 l 454 507 l 557 743 l 639 743 l 538 507 l 724 507 l 713 431 l 504 431 l 453 313 l 696 313 l 685 236 l 419 236 l 319 0 l 236 0 l 336 236 l 157 236 l 168 313 "},"℮":{"ha":1078,"x_min":0,"x_max":0,"o":"m 1076 485 b 983 860 1093 651 1061 775 b 676 986 906 943 803 986 b 318 844 538 986 419 939 b 138 485 217 750 157 632 b 218 129 117 340 143 222 b 536 -14 289 33 396 -14 b 778 46 631 -14 710 6 b 985 232 843 85 913 147 l 926 268 b 546 50 824 124 696 50 b 297 158 446 50 361 86 l 343 485 m 351 551 l 389 814 b 667 921 471 885 563 921 b 917 814 768 921 851 885 l 879 551 "},"∂":{"ha":804,"x_min":0,"x_max":0,"o":"m 318 333 b 531 611 383 542 443 611 b 568 333 618 611 633 542 b 356 56 501 125 443 56 b 318 333 268 56 251 125 m 558 681 b 83 333 350 681 147 533 b 326 -14 15 133 117 -14 b 818 375 533 -14 746 144 b 500 1069 938 750 789 1069 b 483 924 393 1069 369 879 b 707 596 706 1013 740 789 b 558 681 676 661 607 681 "},"≥":{"ha":778,"x_min":0,"x_max":0,"o":"m 599 374 l 206 581 l 218 671 l 707 393 l 701 351 l 254 132 l 671 132 l 660 56 l 132 56 l 147 164 "},"μ":{"ha":871,"x_min":0,"x_max":0,"o":"m 224 542 b 196 597 229 585 208 597 b 119 486 171 597 154 572 l 71 507 b 300 708 106 618 158 708 b 446 542 422 708 460 639 l 399 208 b 432 125 390 146 397 125 b 592 396 489 125 574 264 l 633 694 l 856 694 l 781 153 b 808 97 775 110 796 97 b 885 208 833 97 850 122 l 933 188 b 704 -14 899 76 846 -14 b 558 150 582 -14 542 56 l 564 181 l 561 181 b 361 -6 514 82 442 15 b 25 -375 303 -215 124 -375 b 31 -236 -128 -375 -47 -194 b 154 63 199 -328 124 -153 "}}}
